<svg xmlns="http://www.w3.org/2000/svg" width="50" height="51" viewBox="0 0 50 51" fill="none">
  <g clip-path="url(#clip0_1141_438)">
    <path d="M43.75 0.5H6.25C4.5924 0.5 3.00269 1.15848 1.83058 2.33058C0.65848 3.50269 0 5.0924 0 6.75L0 44.25C0 45.9076 0.65848 47.4973 1.83058 48.6694C3.00269 49.8415 4.5924 50.5 6.25 50.5H43.75C45.4076 50.5 46.9973 49.8415 48.1694 48.6694C49.3415 47.4973 50 45.9076 50 44.25V6.75C50 5.0924 49.3415 3.50269 48.1694 2.33058C46.9973 1.15848 45.4076 0.5 43.75 0.5ZM3.125 12.5531C3.125 11.075 4.525 9.875 6.25 9.875H43.75C45.475 9.875 46.875 11.075 46.875 12.5531V44.6969C46.875 46.175 45.475 47.375 43.75 47.375H6.25C4.525 47.375 3.125 46.175 3.125 44.6969V12.5531Z" fill="white"/>
    <path d="M20.3125 22.375C21.1413 22.375 21.9362 22.0458 22.5222 21.4597C23.1083 20.8737 23.4375 20.0788 23.4375 19.25C23.4375 18.4212 23.1083 17.6263 22.5222 17.0403C21.9362 16.4542 21.1413 16.125 20.3125 16.125C19.4837 16.125 18.6888 16.4542 18.1028 17.0403C17.5167 17.6263 17.1875 18.4212 17.1875 19.25C17.1875 20.0788 17.5167 20.8737 18.1028 21.4597C18.6888 22.0458 19.4837 22.375 20.3125 22.375ZM29.6875 22.375C30.5163 22.375 31.3112 22.0458 31.8972 21.4597C32.4833 20.8737 32.8125 20.0788 32.8125 19.25C32.8125 18.4212 32.4833 17.6263 31.8972 17.0403C31.3112 16.4542 30.5163 16.125 29.6875 16.125C28.8587 16.125 28.0638 16.4542 27.4778 17.0403C26.8917 17.6263 26.5625 18.4212 26.5625 19.25C26.5625 20.0788 26.8917 20.8737 27.4778 21.4597C28.0638 22.0458 28.8587 22.375 29.6875 22.375ZM39.0625 22.375C39.8913 22.375 40.6862 22.0458 41.2722 21.4597C41.8583 20.8737 42.1875 20.0788 42.1875 19.25C42.1875 18.4212 41.8583 17.6263 41.2722 17.0403C40.6862 16.4542 39.8913 16.125 39.0625 16.125C38.2337 16.125 37.4388 16.4542 36.8528 17.0403C36.2667 17.6263 35.9375 18.4212 35.9375 19.25C35.9375 20.0788 36.2667 20.8737 36.8528 21.4597C37.4388 22.0458 38.2337 22.375 39.0625 22.375ZM10.9375 31.75C11.7663 31.75 12.5612 31.4208 13.1472 30.8347C13.7333 30.2487 14.0625 29.4538 14.0625 28.625C14.0625 27.7962 13.7333 27.0013 13.1472 26.4153C12.5612 25.8292 11.7663 25.5 10.9375 25.5C10.1087 25.5 9.31384 25.8292 8.72779 26.4153C8.14174 27.0013 7.8125 27.7962 7.8125 28.625C7.8125 29.4538 8.14174 30.2487 8.72779 30.8347C9.31384 31.4208 10.1087 31.75 10.9375 31.75ZM20.3125 31.75C21.1413 31.75 21.9362 31.4208 22.5222 30.8347C23.1083 30.2487 23.4375 29.4538 23.4375 28.625C23.4375 27.7962 23.1083 27.0013 22.5222 26.4153C21.9362 25.8292 21.1413 25.5 20.3125 25.5C19.4837 25.5 18.6888 25.8292 18.1028 26.4153C17.5167 27.0013 17.1875 27.7962 17.1875 28.625C17.1875 29.4538 17.5167 30.2487 18.1028 30.8347C18.6888 31.4208 19.4837 31.75 20.3125 31.75ZM29.6875 31.75C30.5163 31.75 31.3112 31.4208 31.8972 30.8347C32.4833 30.2487 32.8125 29.4538 32.8125 28.625C32.8125 27.7962 32.4833 27.0013 31.8972 26.4153C31.3112 25.8292 30.5163 25.5 29.6875 25.5C28.8587 25.5 28.0638 25.8292 27.4778 26.4153C26.8917 27.0013 26.5625 27.7962 26.5625 28.625C26.5625 29.4538 26.8917 30.2487 27.4778 30.8347C28.0638 31.4208 28.8587 31.75 29.6875 31.75ZM39.0625 31.75C39.8913 31.75 40.6862 31.4208 41.2722 30.8347C41.8583 30.2487 42.1875 29.4538 42.1875 28.625C42.1875 27.7962 41.8583 27.0013 41.2722 26.4153C40.6862 25.8292 39.8913 25.5 39.0625 25.5C38.2337 25.5 37.4388 25.8292 36.8528 26.4153C36.2667 27.0013 35.9375 27.7962 35.9375 28.625C35.9375 29.4538 36.2667 30.2487 36.8528 30.8347C37.4388 31.4208 38.2337 31.75 39.0625 31.75ZM10.9375 41.125C11.7663 41.125 12.5612 40.7958 13.1472 40.2097C13.7333 39.6237 14.0625 38.8288 14.0625 38C14.0625 37.1712 13.7333 36.3763 13.1472 35.7903C12.5612 35.2042 11.7663 34.875 10.9375 34.875C10.1087 34.875 9.31384 35.2042 8.72779 35.7903C8.14174 36.3763 7.8125 37.1712 7.8125 38C7.8125 38.8288 8.14174 39.6237 8.72779 40.2097C9.31384 40.7958 10.1087 41.125 10.9375 41.125ZM20.3125 41.125C21.1413 41.125 21.9362 40.7958 22.5222 40.2097C23.1083 39.6237 23.4375 38.8288 23.4375 38C23.4375 37.1712 23.1083 36.3763 22.5222 35.7903C21.9362 35.2042 21.1413 34.875 20.3125 34.875C19.4837 34.875 18.6888 35.2042 18.1028 35.7903C17.5167 36.3763 17.1875 37.1712 17.1875 38C17.1875 38.8288 17.5167 39.6237 18.1028 40.2097C18.6888 40.7958 19.4837 41.125 20.3125 41.125ZM29.6875 41.125C30.5163 41.125 31.3112 40.7958 31.8972 40.2097C32.4833 39.6237 32.8125 38.8288 32.8125 38C32.8125 37.1712 32.4833 36.3763 31.8972 35.7903C31.3112 35.2042 30.5163 34.875 29.6875 34.875C28.8587 34.875 28.0638 35.2042 27.4778 35.7903C26.8917 36.3763 26.5625 37.1712 26.5625 38C26.5625 38.8288 26.8917 39.6237 27.4778 40.2097C28.0638 40.7958 28.8587 41.125 29.6875 41.125Z" fill="white"/>
  </g>
  <defs>
    <clipPath id="clip0_1141_438">
      <rect width="50" height="50" fill="white" transform="translate(0 0.5)"/>
    </clipPath>
  </defs>
</svg>