<svg xmlns="http://www.w3.org/2000/svg" width="60" height="46" viewBox="0 0 60 46" fill="none">
<path d="M54.375 4.25C54.8723 4.25 55.3492 4.44754 55.7008 4.79918C56.0525 5.15081 56.25 5.62772 56.25 6.125V39.875C56.25 40.3723 56.0525 40.8492 55.7008 41.2008C55.3492 41.5525 54.8723 41.75 54.375 41.75H5.625C5.12772 41.75 4.65081 41.5525 4.29917 41.2008C3.94754 40.8492 3.75 40.3723 3.75 39.875V6.125C3.75 5.62772 3.94754 5.15081 4.29917 4.79918C4.65081 4.44754 5.12772 4.25 5.625 4.25H54.375ZM5.625 0.5C4.13316 0.5 2.70242 1.09263 1.64752 2.14752C0.592632 3.20242 0 4.63316 0 6.125L0 39.875C0 41.3668 0.592632 42.7976 1.64752 43.8525C2.70242 44.9074 4.13316 45.5 5.625 45.5H54.375C55.8668 45.5 57.2976 44.9074 58.3525 43.8525C59.4074 42.7976 60 41.3668 60 39.875V6.125C60 4.63316 59.4074 3.20242 58.3525 2.14752C57.2976 1.09263 55.8668 0.5 54.375 0.5H5.625Z" fill="#444444"/>
<path d="M11.25 24.875C11.25 24.3777 11.4475 23.9008 11.7992 23.5492C12.1508 23.1975 12.6277 23 13.125 23H46.875C47.3723 23 47.8492 23.1975 48.2008 23.5492C48.5525 23.9008 48.75 24.3777 48.75 24.875C48.75 25.3723 48.5525 25.8492 48.2008 26.2008C47.8492 26.5525 47.3723 26.75 46.875 26.75H13.125C12.6277 26.75 12.1508 26.5525 11.7992 26.2008C11.4475 25.8492 11.25 25.3723 11.25 24.875ZM11.25 32.375C11.25 31.8777 11.4475 31.4008 11.7992 31.0492C12.1508 30.6975 12.6277 30.5 13.125 30.5H35.625C36.1223 30.5 36.5992 30.6975 36.9508 31.0492C37.3025 31.4008 37.5 31.8777 37.5 32.375C37.5 32.8723 37.3025 33.3492 36.9508 33.7008C36.5992 34.0525 36.1223 34.25 35.625 34.25H13.125C12.6277 34.25 12.1508 34.0525 11.7992 33.7008C11.4475 33.3492 11.25 32.8723 11.25 32.375ZM11.25 13.625C11.25 13.1277 11.4475 12.6508 11.7992 12.2992C12.1508 11.9475 12.6277 11.75 13.125 11.75H46.875C47.3723 11.75 47.8492 11.9475 48.2008 12.2992C48.5525 12.6508 48.75 13.1277 48.75 13.625V17.375C48.75 17.8723 48.5525 18.3492 48.2008 18.7008C47.8492 19.0525 47.3723 19.25 46.875 19.25H13.125C12.6277 19.25 12.1508 19.0525 11.7992 18.7008C11.4475 18.3492 11.25 17.8723 11.25 17.375V13.625Z" fill="#444444"/>
</svg>