<svg xmlns="http://www.w3.org/2000/svg" width="60" height="60" viewBox="0 0 60 60" fill="none">
<path d="M15 41.25C15 40.2554 15.3951 39.3016 16.0984 38.5984C16.8016 37.8951 17.7554 37.5 18.75 37.5C19.7446 37.5 20.6984 37.8951 21.4016 38.5984C22.1049 39.3016 22.5 40.2554 22.5 41.25V45C22.5 45.9946 22.1049 46.9484 21.4016 47.6516C20.6984 48.3549 19.7446 48.75 18.75 48.75C17.7554 48.75 16.8016 48.3549 16.0984 47.6516C15.3951 46.9484 15 45.9946 15 45V41.25ZM37.5 26.25C37.5 25.2554 37.8951 24.3016 38.5984 23.5984C39.3016 22.8951 40.2554 22.5 41.25 22.5C42.2446 22.5 43.1984 22.8951 43.9016 23.5984C44.6049 24.3016 45 25.2554 45 26.25V45C45 45.9946 44.6049 46.9484 43.9016 47.6516C43.1984 48.3549 42.2446 48.75 41.25 48.75C40.2554 48.75 39.3016 48.3549 38.5984 47.6516C37.8951 46.9484 37.5 45.9946 37.5 45V26.25ZM26.25 33.75C26.25 32.7554 26.6451 31.8016 27.3484 31.0984C28.0516 30.3951 29.0054 30 30 30C30.9946 30 31.9484 30.3951 32.6516 31.0984C33.3549 31.8016 33.75 32.7554 33.75 33.75V45C33.75 45.9946 33.3549 46.9484 32.6516 47.6516C31.9484 48.3549 30.9946 48.75 30 48.75C29.0054 48.75 28.0516 48.3549 27.3484 47.6516C26.6451 46.9484 26.25 45.9946 26.25 45V33.75Z" fill="#444444"/>
<path d="M15 5.625H11.25C9.26088 5.625 7.35322 6.41518 5.9467 7.8217C4.54018 9.22822 3.75 11.1359 3.75 13.125V52.5C3.75 54.4891 4.54018 56.3968 5.9467 57.8033C7.35322 59.2098 9.26088 60 11.25 60H48.75C50.7391 60 52.6468 59.2098 54.0533 57.8033C55.4598 56.3968 56.25 54.4891 56.25 52.5V13.125C56.25 11.1359 55.4598 9.22822 54.0533 7.8217C52.6468 6.41518 50.7391 5.625 48.75 5.625H45V9.375H48.75C49.7446 9.375 50.6984 9.77009 51.4016 10.4733C52.1049 11.1766 52.5 12.1304 52.5 13.125V52.5C52.5 53.4946 52.1049 54.4484 51.4016 55.1516C50.6984 55.8549 49.7446 56.25 48.75 56.25H11.25C10.2554 56.25 9.30161 55.8549 8.59835 55.1516C7.89509 54.4484 7.5 53.4946 7.5 52.5V13.125C7.5 12.1304 7.89509 11.1766 8.59835 10.4733C9.30161 9.77009 10.2554 9.375 11.25 9.375H15V5.625Z" fill="#444444"/>
<path d="M35.625 3.75C36.1223 3.75 36.5992 3.94754 36.9508 4.29917C37.3025 4.65081 37.5 5.12772 37.5 5.625V9.375C37.5 9.87228 37.3025 10.3492 36.9508 10.7008C36.5992 11.0525 36.1223 11.25 35.625 11.25H24.375C23.8777 11.25 23.4008 11.0525 23.0492 10.7008C22.6975 10.3492 22.5 9.87228 22.5 9.375V5.625C22.5 5.12772 22.6975 4.65081 23.0492 4.29917C23.4008 3.94754 23.8777 3.75 24.375 3.75H35.625ZM24.375 0C22.8832 0 21.4524 0.592632 20.3975 1.64752C19.3426 2.70242 18.75 4.13316 18.75 5.625V9.375C18.75 10.8668 19.3426 12.2976 20.3975 13.3525C21.4524 14.4074 22.8832 15 24.375 15H35.625C37.1168 15 38.5476 14.4074 39.6025 13.3525C40.6574 12.2976 41.25 10.8668 41.25 9.375V5.625C41.25 4.13316 40.6574 2.70242 39.6025 1.64752C38.5476 0.592632 37.1168 0 35.625 0L24.375 0Z" fill="#444444"/>
</svg>