<svg xmlns="http://www.w3.org/2000/svg" width="50" height="50" viewBox="0 0 50 50" fill="none">
  <path d="M37.9375 27.3531L20.8063 42.3406C18.7875 44.1093 15.625 42.6718 15.625 39.9874V10.0124C15.6245 9.41168 15.7971 8.8235 16.1223 8.31835C16.4475 7.81319 16.9114 7.41247 17.4584 7.16417C18.0055 6.91587 18.6125 6.83052 19.2068 6.91834C19.8011 7.00615 20.3575 7.26342 20.8094 7.65932L37.9344 22.6468C38.27 22.9401 38.5391 23.3019 38.7234 23.7077C38.9077 24.1136 39.0031 24.5542 39.0031 24.9999C39.0031 25.4457 38.9077 25.8863 38.7234 26.2922C38.5391 26.698 38.27 27.0598 37.9344 27.3531H37.9375Z" fill="white"/>
</svg>