<svg xmlns="http://www.w3.org/2000/svg" width="40" height="40" viewBox="0 0 40 40" fill="none">
  <g clip-path="url(#clip0_1181_215)">
    <path d="M23.2325 0H10C8.67392 0 7.40215 0.526784 6.46447 1.46447C5.52678 2.40215 5 3.67392 5 5V35C5 36.3261 5.52678 37.5979 6.46447 38.5355C7.40215 39.4732 8.67392 40 10 40H30C31.3261 40 32.5979 39.4732 33.5355 38.5355C34.4732 37.5979 35 36.3261 35 35V11.7675C34.9999 11.1045 34.7364 10.4687 34.2675 10L25 0.7325C24.5313 0.263627 23.8955 0.000141594 23.2325 0ZM23.75 8.75V3.75L31.25 11.25H26.25C25.587 11.25 24.9511 10.9866 24.4822 10.5178C24.0134 10.0489 23.75 9.41304 23.75 8.75ZM16.25 13.75V15.335L17.6225 14.5425C17.7647 14.4591 17.922 14.4047 18.0853 14.3824C18.2487 14.36 18.4148 14.3702 18.5742 14.4124C18.7336 14.4545 18.883 14.5278 19.014 14.6279C19.1449 14.728 19.2548 14.8531 19.3372 14.9958C19.4196 15.1386 19.473 15.2963 19.4943 15.4597C19.5155 15.6232 19.5042 15.7893 19.461 15.9484C19.4178 16.1075 19.3436 16.2564 19.2426 16.3867C19.1416 16.517 19.0158 16.626 18.8725 16.7075L17.5 17.5L18.8725 18.2925C19.0158 18.374 19.1416 18.483 19.2426 18.6133C19.3436 18.7436 19.4178 18.8925 19.461 19.0516C19.5042 19.2107 19.5155 19.3768 19.4943 19.5403C19.473 19.7037 19.4196 19.8614 19.3372 20.0042C19.2548 20.1469 19.1449 20.272 19.014 20.3721C18.883 20.4722 18.7336 20.5455 18.5742 20.5876C18.4148 20.6298 18.2487 20.64 18.0853 20.6176C17.922 20.5953 17.7647 20.5409 17.6225 20.4575L16.25 19.665V21.25C16.25 21.5815 16.1183 21.8995 15.8839 22.1339C15.6495 22.3683 15.3315 22.5 15 22.5C14.6685 22.5 14.3505 22.3683 14.1161 22.1339C13.8817 21.8995 13.75 21.5815 13.75 21.25V19.665L12.3775 20.4575C12.2353 20.5409 12.078 20.5953 11.9147 20.6176C11.7513 20.64 11.5852 20.6298 11.4258 20.5876C11.2664 20.5455 11.117 20.4722 10.986 20.3721C10.8551 20.272 10.7452 20.1469 10.6628 20.0042C10.5804 19.8614 10.527 19.7037 10.5057 19.5403C10.4845 19.3768 10.4958 19.2107 10.539 19.0516C10.5822 18.8925 10.6564 18.7436 10.7574 18.6133C10.8584 18.483 10.9842 18.374 11.1275 18.2925L12.5 17.5L11.1275 16.7075C10.8427 16.5406 10.6356 16.2678 10.5512 15.9486C10.4668 15.6295 10.5121 15.29 10.6772 15.0041C10.8422 14.7183 11.1136 14.5093 11.4322 14.4228C11.7507 14.3363 12.0906 14.3794 12.3775 14.5425L13.75 15.335V13.75C13.75 13.4185 13.8817 13.1005 14.1161 12.8661C14.3505 12.6317 14.6685 12.5 15 12.5C15.3315 12.5 15.6495 12.6317 15.8839 12.8661C16.1183 13.1005 16.25 13.4185 16.25 13.75ZM11.25 25H23.75C24.0815 25 24.3995 25.1317 24.6339 25.3661C24.8683 25.6005 25 25.9185 25 26.25C25 26.5815 24.8683 26.8995 24.6339 27.1339C24.3995 27.3683 24.0815 27.5 23.75 27.5H11.25C10.9185 27.5 10.6005 27.3683 10.3661 27.1339C10.1317 26.8995 10 26.5815 10 26.25C10 25.9185 10.1317 25.6005 10.3661 25.3661C10.6005 25.1317 10.9185 25 11.25 25ZM11.25 30H23.75C24.0815 30 24.3995 30.1317 24.6339 30.3661C24.8683 30.6005 25 30.9185 25 31.25C25 31.5815 24.8683 31.8995 24.6339 32.1339C24.3995 32.3683 24.0815 32.5 23.75 32.5H11.25C10.9185 32.5 10.6005 32.3683 10.3661 32.1339C10.1317 31.8995 10 31.5815 10 31.25C10 30.9185 10.1317 30.6005 10.3661 30.3661C10.6005 30.1317 10.9185 30 11.25 30Z" fill="white"/>
  </g>
  <defs>
    <clipPath id="clip0_1181_215">
      <rect width="40" height="40" fill="white"/>
    </clipPath>
  </defs>
</svg>