<svg xmlns="http://www.w3.org/2000/svg" width="30" height="31" viewBox="0 0 30 31" fill="none">
  <g clip-path="url(#clip0_229_1023)">
    <path d="M26.25 0.5H3.75C2.75544 0.5 1.80161 0.895088 1.09835 1.59835C0.395088 2.30161 0 3.25544 0 4.25L0 26.75C0 27.7446 0.395088 28.6984 1.09835 29.4016C1.80161 30.1049 2.75544 30.5 3.75 30.5H26.25C27.2446 30.5 28.1984 30.1049 28.9016 29.4016C29.6049 28.6984 30 27.7446 30 26.75V4.25C30 3.25544 29.6049 2.30161 28.9016 1.59835C28.1984 0.895088 27.2446 0.5 26.25 0.5ZM1.875 7.73188C1.875 6.845 2.715 6.125 3.75 6.125H26.25C27.285 6.125 28.125 6.845 28.125 7.73188V27.0181C28.125 27.905 27.285 28.625 26.25 28.625H3.75C2.715 28.625 1.875 27.905 1.875 27.0181V7.73188Z" fill="#343A40"/>
    <path d="M12.1875 13.625C12.6848 13.625 13.1617 13.4275 13.5133 13.0758C13.865 12.7242 14.0625 12.2473 14.0625 11.75C14.0625 11.2527 13.865 10.7758 13.5133 10.4242C13.1617 10.0725 12.6848 9.875 12.1875 9.875C11.6902 9.875 11.2133 10.0725 10.8617 10.4242C10.51 10.7758 10.3125 11.2527 10.3125 11.75C10.3125 12.2473 10.51 12.7242 10.8617 13.0758C11.2133 13.4275 11.6902 13.625 12.1875 13.625ZM17.8125 13.625C18.3098 13.625 18.7867 13.4275 19.1383 13.0758C19.49 12.7242 19.6875 12.2473 19.6875 11.75C19.6875 11.2527 19.49 10.7758 19.1383 10.4242C18.7867 10.0725 18.3098 9.875 17.8125 9.875C17.3152 9.875 16.8383 10.0725 16.4867 10.4242C16.135 10.7758 15.9375 11.2527 15.9375 11.75C15.9375 12.2473 16.135 12.7242 16.4867 13.0758C16.8383 13.4275 17.3152 13.625 17.8125 13.625ZM23.4375 13.625C23.9348 13.625 24.4117 13.4275 24.7633 13.0758C25.115 12.7242 25.3125 12.2473 25.3125 11.75C25.3125 11.2527 25.115 10.7758 24.7633 10.4242C24.4117 10.0725 23.9348 9.875 23.4375 9.875C22.9402 9.875 22.4633 10.0725 22.1117 10.4242C21.76 10.7758 21.5625 11.2527 21.5625 11.75C21.5625 12.2473 21.76 12.7242 22.1117 13.0758C22.4633 13.4275 22.9402 13.625 23.4375 13.625ZM6.5625 19.25C7.05978 19.25 7.53669 19.0525 7.88832 18.7008C8.23996 18.3492 8.4375 17.8723 8.4375 17.375C8.4375 16.8777 8.23996 16.4008 7.88832 16.0492C7.53669 15.6975 7.05978 15.5 6.5625 15.5C6.06522 15.5 5.58831 15.6975 5.23667 16.0492C4.88504 16.4008 4.6875 16.8777 4.6875 17.375C4.6875 17.8723 4.88504 18.3492 5.23667 18.7008C5.58831 19.0525 6.06522 19.25 6.5625 19.25ZM12.1875 19.25C12.6848 19.25 13.1617 19.0525 13.5133 18.7008C13.865 18.3492 14.0625 17.8723 14.0625 17.375C14.0625 16.8777 13.865 16.4008 13.5133 16.0492C13.1617 15.6975 12.6848 15.5 12.1875 15.5C11.6902 15.5 11.2133 15.6975 10.8617 16.0492C10.51 16.4008 10.3125 16.8777 10.3125 17.375C10.3125 17.8723 10.51 18.3492 10.8617 18.7008C11.2133 19.0525 11.6902 19.25 12.1875 19.25ZM17.8125 19.25C18.3098 19.25 18.7867 19.0525 19.1383 18.7008C19.49 18.3492 19.6875 17.8723 19.6875 17.375C19.6875 16.8777 19.49 16.4008 19.1383 16.0492C18.7867 15.6975 18.3098 15.5 17.8125 15.5C17.3152 15.5 16.8383 15.6975 16.4867 16.0492C16.135 16.4008 15.9375 16.8777 15.9375 17.375C15.9375 17.8723 16.135 18.3492 16.4867 18.7008C16.8383 19.0525 17.3152 19.25 17.8125 19.25ZM23.4375 19.25C23.9348 19.25 24.4117 19.0525 24.7633 18.7008C25.115 18.3492 25.3125 17.8723 25.3125 17.375C25.3125 16.8777 25.115 16.4008 24.7633 16.0492C24.4117 15.6975 23.9348 15.5 23.4375 15.5C22.9402 15.5 22.4633 15.6975 22.1117 16.0492C21.76 16.4008 21.5625 16.8777 21.5625 17.375C21.5625 17.8723 21.76 18.3492 22.1117 18.7008C22.4633 19.0525 22.9402 19.25 23.4375 19.25ZM6.5625 24.875C7.05978 24.875 7.53669 24.6775 7.88832 24.3258C8.23996 23.9742 8.4375 23.4973 8.4375 23C8.4375 22.5027 8.23996 22.0258 7.88832 21.6742C7.53669 21.3225 7.05978 21.125 6.5625 21.125C6.06522 21.125 5.58831 21.3225 5.23667 21.6742C4.88504 22.0258 4.6875 22.5027 4.6875 23C4.6875 23.4973 4.88504 23.9742 5.23667 24.3258C5.58831 24.6775 6.06522 24.875 6.5625 24.875ZM12.1875 24.875C12.6848 24.875 13.1617 24.6775 13.5133 24.3258C13.865 23.9742 14.0625 23.4973 14.0625 23C14.0625 22.5027 13.865 22.0258 13.5133 21.6742C13.1617 21.3225 12.6848 21.125 12.1875 21.125C11.6902 21.125 11.2133 21.3225 10.8617 21.6742C10.51 22.0258 10.3125 22.5027 10.3125 23C10.3125 23.4973 10.51 23.9742 10.8617 24.3258C11.2133 24.6775 11.6902 24.875 12.1875 24.875ZM17.8125 24.875C18.3098 24.875 18.7867 24.6775 19.1383 24.3258C19.49 23.9742 19.6875 23.4973 19.6875 23C19.6875 22.5027 19.49 22.0258 19.1383 21.6742C18.7867 21.3225 18.3098 21.125 17.8125 21.125C17.3152 21.125 16.8383 21.3225 16.4867 21.6742C16.135 22.0258 15.9375 22.5027 15.9375 23C15.9375 23.4973 16.135 23.9742 16.4867 24.3258C16.8383 24.6775 17.3152 24.875 17.8125 24.875Z" fill="#343A40"/>
  </g>
  <defs>
    <clipPath id="clip0_229_1023">
      <rect width="30" height="30" fill="white" transform="translate(0 0.5)"/>
    </clipPath>
  </defs>
</svg>