<svg xmlns="http://www.w3.org/2000/svg" width="21" height="21" viewBox="0 0 21 21" fill="none">
  <g clip-path="url(#clip0_1511_878)">
    <path d="M6.75 13.625C6.75 13.4592 6.81585 13.3003 6.93306 13.1831C7.05027 13.0658 7.20924 13 7.375 13H9.875C10.0408 13 10.1997 13.0658 10.3169 13.1831C10.4342 13.3003 10.5 13.4592 10.5 13.625C10.5 13.7908 10.4342 13.9497 10.3169 14.0669C10.1997 14.1842 10.0408 14.25 9.875 14.25H7.375C7.20924 14.25 7.05027 14.1842 6.93306 14.0669C6.81585 13.9497 6.75 13.7908 6.75 13.625ZM6.75 11.125C6.75 10.9592 6.81585 10.8003 6.93306 10.6831C7.05027 10.5658 7.20924 10.5 7.375 10.5H13.625C13.7908 10.5 13.9497 10.5658 14.0669 10.6831C14.1842 10.8003 14.25 10.9592 14.25 11.125C14.25 11.2908 14.1842 11.4497 14.0669 11.5669C13.9497 11.6842 13.7908 11.75 13.625 11.75H7.375C7.20924 11.75 7.05027 11.6842 6.93306 11.5669C6.81585 11.4497 6.75 11.2908 6.75 11.125ZM6.75 8.625C6.75 8.45924 6.81585 8.30027 6.93306 8.18306C7.05027 8.06585 7.20924 8 7.375 8H13.625C13.7908 8 13.9497 8.06585 14.0669 8.18306C14.1842 8.30027 14.25 8.45924 14.25 8.625C14.25 8.79076 14.1842 8.94973 14.0669 9.06694C13.9497 9.18415 13.7908 9.25 13.625 9.25H7.375C7.20924 9.25 7.05027 9.18415 6.93306 9.06694C6.81585 8.94973 6.75 8.79076 6.75 8.625ZM6.75 6.125C6.75 5.95924 6.81585 5.80027 6.93306 5.68306C7.05027 5.56585 7.20924 5.5 7.375 5.5H13.625C13.7908 5.5 13.9497 5.56585 14.0669 5.68306C14.1842 5.80027 14.25 5.95924 14.25 6.125C14.25 6.29076 14.1842 6.44973 14.0669 6.56694C13.9497 6.68415 13.7908 6.75 13.625 6.75H7.375C7.20924 6.75 7.05027 6.68415 6.93306 6.56694C6.81585 6.44973 6.75 6.29076 6.75 6.125Z" fill="#0F4E7B"/>
    <path d="M4.25 0.5H16.75C17.413 0.5 18.0489 0.763392 18.5178 1.23223C18.9866 1.70107 19.25 2.33696 19.25 3V18C19.25 18.663 18.9866 19.2989 18.5178 19.7678C18.0489 20.2366 17.413 20.5 16.75 20.5H4.25C3.58696 20.5 2.95107 20.2366 2.48223 19.7678C2.01339 19.2989 1.75 18.663 1.75 18V16.75H3V18C3 18.3315 3.1317 18.6495 3.36612 18.8839C3.60054 19.1183 3.91848 19.25 4.25 19.25H16.75C17.0815 19.25 17.3995 19.1183 17.6339 18.8839C17.8683 18.6495 18 18.3315 18 18V3C18 2.66848 17.8683 2.35054 17.6339 2.11612C17.3995 1.8817 17.0815 1.75 16.75 1.75H4.25C3.91848 1.75 3.60054 1.8817 3.36612 2.11612C3.1317 2.35054 3 2.66848 3 3V4.25H1.75V3C1.75 2.33696 2.01339 1.70107 2.48223 1.23223C2.95107 0.763392 3.58696 0.5 4.25 0.5Z" fill="#0F4E7B"/>
    <path d="M1.75 6.75V6.125C1.75 5.95924 1.81585 5.80027 1.93306 5.68306C2.05027 5.56585 2.20924 5.5 2.375 5.5C2.54076 5.5 2.69973 5.56585 2.81694 5.68306C2.93415 5.80027 3 5.95924 3 6.125V6.75H3.625C3.79076 6.75 3.94973 6.81585 4.06694 6.93306C4.18415 7.05027 4.25 7.20924 4.25 7.375C4.25 7.54076 4.18415 7.69973 4.06694 7.81694C3.94973 7.93415 3.79076 8 3.625 8H1.125C0.95924 8 0.800269 7.93415 0.683058 7.81694C0.565848 7.69973 0.5 7.54076 0.5 7.375C0.5 7.20924 0.565848 7.05027 0.683058 6.93306C0.800269 6.81585 0.95924 6.75 1.125 6.75H1.75ZM1.75 10.5V9.875C1.75 9.70924 1.81585 9.55027 1.93306 9.43306C2.05027 9.31585 2.20924 9.25 2.375 9.25C2.54076 9.25 2.69973 9.31585 2.81694 9.43306C2.93415 9.55027 3 9.70924 3 9.875V10.5H3.625C3.79076 10.5 3.94973 10.5658 4.06694 10.6831C4.18415 10.8003 4.25 10.9592 4.25 11.125C4.25 11.2908 4.18415 11.4497 4.06694 11.5669C3.94973 11.6842 3.79076 11.75 3.625 11.75H1.125C0.95924 11.75 0.800269 11.6842 0.683058 11.5669C0.565848 11.4497 0.5 11.2908 0.5 11.125C0.5 10.9592 0.565848 10.8003 0.683058 10.6831C0.800269 10.5658 0.95924 10.5 1.125 10.5H1.75ZM1.75 14.25V13.625C1.75 13.4592 1.81585 13.3003 1.93306 13.1831C2.05027 13.0658 2.20924 13 2.375 13C2.54076 13 2.69973 13.0658 2.81694 13.1831C2.93415 13.3003 3 13.4592 3 13.625V14.25H3.625C3.79076 14.25 3.94973 14.3158 4.06694 14.4331C4.18415 14.5503 4.25 14.7092 4.25 14.875C4.25 15.0408 4.18415 15.1997 4.06694 15.3169C3.94973 15.4342 3.79076 15.5 3.625 15.5H1.125C0.95924 15.5 0.800269 15.4342 0.683058 15.3169C0.565848 15.1997 0.5 15.0408 0.5 14.875C0.5 14.7092 0.565848 14.5503 0.683058 14.4331C0.800269 14.3158 0.95924 14.25 1.125 14.25H1.75Z" fill="#0F4E7B"/>
  </g>
  <defs>
    <clipPath id="clip0_1511_878">
      <rect width="20" height="20" fill="white" transform="translate(0.5 0.5)"/>
    </clipPath>
  </defs>
</svg>