<svg xmlns="http://www.w3.org/2000/svg" width="25" height="26" viewBox="0 0 25 26" fill="none">
  <path fill-rule="evenodd" clip-rule="evenodd" d="M7.81349 18.4688C7.81349 18.2616 7.8958 18.0629 8.04231 17.9164C8.18882 17.7699 8.38754 17.6876 8.59474 17.6876H22.6572C22.8644 17.6876 23.0632 17.7699 23.2097 17.9164C23.3562 18.0629 23.4385 18.2616 23.4385 18.4688C23.4385 18.676 23.3562 18.8747 23.2097 19.0212C23.0632 19.1677 22.8644 19.2501 22.6572 19.2501H8.59474C8.38754 19.2501 8.18882 19.1677 8.04231 19.0212C7.8958 18.8747 7.81349 18.676 7.81349 18.4688ZM7.81349 12.2188C7.81349 12.0116 7.8958 11.8129 8.04231 11.6664C8.18882 11.5199 8.38754 11.4376 8.59474 11.4376H22.6572C22.8644 11.4376 23.0632 11.5199 23.2097 11.6664C23.3562 11.8129 23.4385 12.0116 23.4385 12.2188C23.4385 12.426 23.3562 12.6247 23.2097 12.7712C23.0632 12.9177 22.8644 13.0001 22.6572 13.0001H8.59474C8.38754 13.0001 8.18882 12.9177 8.04231 12.7712C7.8958 12.6247 7.81349 12.426 7.81349 12.2188ZM7.81349 5.9688C7.81349 5.7616 7.8958 5.56289 8.04231 5.41638C8.18882 5.26986 8.38754 5.18755 8.59474 5.18755H22.6572C22.8644 5.18755 23.0632 5.26986 23.2097 5.41638C23.3562 5.56289 23.4385 5.7616 23.4385 5.9688C23.4385 6.176 23.3562 6.37472 23.2097 6.52123C23.0632 6.66774 22.8644 6.75005 22.6572 6.75005H8.59474C8.38754 6.75005 8.18882 6.66774 8.04231 6.52123C7.8958 6.37472 7.81349 6.176 7.81349 5.9688ZM6.02286 3.85318C6.09562 3.92575 6.15334 4.01196 6.19273 4.10688C6.23211 4.20179 6.25238 4.30354 6.25238 4.4063C6.25238 4.50907 6.23211 4.61082 6.19273 4.70573C6.15334 4.80065 6.09562 4.88686 6.02286 4.95943L3.67911 7.30318C3.60654 7.37593 3.52033 7.43366 3.42541 7.47304C3.3305 7.51243 3.22875 7.5327 3.12599 7.5327C3.02323 7.5327 2.92147 7.51243 2.82656 7.47304C2.73165 7.43366 2.64543 7.37593 2.57286 7.30318L1.79161 6.52193C1.71897 6.44929 1.66136 6.36306 1.62204 6.26815C1.58273 6.17325 1.5625 6.07153 1.5625 5.9688C1.5625 5.86608 1.58273 5.76436 1.62204 5.66945C1.66136 5.57455 1.71897 5.48832 1.79161 5.41568C1.86425 5.34304 1.95048 5.28542 2.04539 5.24611C2.14029 5.2068 2.24201 5.18657 2.34474 5.18657C2.44746 5.18657 2.54918 5.2068 2.64409 5.24611C2.73899 5.28542 2.82522 5.34304 2.89786 5.41568L3.12599 5.64537L4.91661 3.85318C4.98918 3.78042 5.0754 3.7227 5.17031 3.68332C5.26522 3.64393 5.36698 3.62366 5.46974 3.62366C5.5725 3.62366 5.67425 3.64393 5.76917 3.68332C5.86408 3.7227 5.95029 3.78042 6.02286 3.85318ZM6.02286 10.1032C6.09562 10.1757 6.15334 10.262 6.19273 10.3569C6.23211 10.4518 6.25238 10.5535 6.25238 10.6563C6.25238 10.7591 6.23211 10.8608 6.19273 10.9557C6.15334 11.0506 6.09562 11.1369 6.02286 11.2094L3.67911 13.5532C3.60654 13.6259 3.52033 13.6837 3.42541 13.723C3.3305 13.7624 3.22875 13.7827 3.12599 13.7827C3.02323 13.7827 2.92147 13.7624 2.82656 13.723C2.73165 13.6837 2.64543 13.6259 2.57286 13.5532L1.79161 12.7719C1.64491 12.6252 1.5625 12.4263 1.5625 12.2188C1.5625 12.0113 1.64491 11.8124 1.79161 11.6657C1.93831 11.519 2.13727 11.4366 2.34474 11.4366C2.5522 11.4366 2.75116 11.519 2.89786 11.6657L3.12599 11.8954L4.91661 10.1032C4.98918 10.0304 5.0754 9.9727 5.17031 9.93332C5.26522 9.89393 5.36698 9.87366 5.46974 9.87366C5.5725 9.87366 5.67425 9.89393 5.76917 9.93332C5.86408 9.9727 5.95029 10.0304 6.02286 10.1032ZM6.02286 16.3532C6.09562 16.4257 6.15334 16.512 6.19273 16.6069C6.23211 16.7018 6.25238 16.8035 6.25238 16.9063C6.25238 17.0091 6.23211 17.1108 6.19273 17.2057C6.15334 17.3006 6.09562 17.3869 6.02286 17.4594L3.67911 19.8032C3.60654 19.8759 3.52033 19.9337 3.42541 19.973C3.3305 20.0124 3.22875 20.0327 3.12599 20.0327C3.02323 20.0327 2.92147 20.0124 2.82656 19.973C2.73165 19.9337 2.64543 19.8759 2.57286 19.8032L1.79161 19.0219C1.64491 18.8752 1.5625 18.6763 1.5625 18.4688C1.5625 18.2613 1.64491 18.0624 1.79161 17.9157C1.93831 17.769 2.13727 17.6866 2.34474 17.6866C2.5522 17.6866 2.75116 17.769 2.89786 17.9157L3.12599 18.1454L4.91661 16.3532C4.98918 16.2804 5.0754 16.2227 5.17031 16.1833C5.26522 16.1439 5.36698 16.1237 5.46974 16.1237C5.5725 16.1237 5.67425 16.1439 5.76917 16.1833C5.86408 16.2227 5.95029 16.2804 6.02286 16.3532Z" fill="#0F4E7B"/>
</svg>