<svg xmlns="http://www.w3.org/2000/svg" width="60" height="60" viewBox="0 0 60 60" fill="none">
  <g clip-path="url(#clip0_352_932)">
    <path d="M54.375 11.25C54.8723 11.25 55.3492 11.4475 55.7008 11.7992C56.0525 12.1508 56.25 12.6277 56.25 13.125V46.875C56.25 47.3723 56.0525 47.8492 55.7008 48.2008C55.3492 48.5525 54.8723 48.75 54.375 48.75H5.625C5.12772 48.75 4.65081 48.5525 4.29917 48.2008C3.94754 47.8492 3.75 47.3723 3.75 46.875V13.125C3.75 12.6277 3.94754 12.1508 4.29917 11.7992C4.65081 11.4475 5.12772 11.25 5.625 11.25H54.375ZM5.625 7.5C4.13316 7.5 2.70242 8.09263 1.64752 9.14752C0.592632 10.2024 0 11.6332 0 13.125L0 46.875C0 48.3668 0.592632 49.7976 1.64752 50.8525C2.70242 51.9074 4.13316 52.5 5.625 52.5H54.375C55.8668 52.5 57.2976 51.9074 58.3525 50.8525C59.4074 49.7976 60 48.3668 60 46.875V13.125C60 11.6332 59.4074 10.2024 58.3525 9.14752C57.2976 8.09263 55.8668 7.5 54.375 7.5H5.625Z" fill="white"/>
    <path d="M11.25 20.625C11.25 20.1277 11.4475 19.6508 11.7992 19.2992C12.1508 18.9475 12.6277 18.75 13.125 18.75H46.875C47.3723 18.75 47.8492 18.9475 48.2008 19.2992C48.5525 19.6508 48.75 20.1277 48.75 20.625C48.75 21.1223 48.5525 21.5992 48.2008 21.9508C47.8492 22.3025 47.3723 22.5 46.875 22.5H13.125C12.6277 22.5 12.1508 22.3025 11.7992 21.9508C11.4475 21.5992 11.25 21.1223 11.25 20.625ZM11.25 30C11.25 29.5027 11.4475 29.0258 11.7992 28.6742C12.1508 28.3225 12.6277 28.125 13.125 28.125H46.875C47.3723 28.125 47.8492 28.3225 48.2008 28.6742C48.5525 29.0258 48.75 29.5027 48.75 30C48.75 30.4973 48.5525 30.9742 48.2008 31.3258C47.8492 31.6775 47.3723 31.875 46.875 31.875H13.125C12.6277 31.875 12.1508 31.6775 11.7992 31.3258C11.4475 30.9742 11.25 30.4973 11.25 30ZM11.25 39.375C11.25 38.8777 11.4475 38.4008 11.7992 38.0492C12.1508 37.6975 12.6277 37.5 13.125 37.5H35.625C36.1223 37.5 36.5992 37.6975 36.9508 38.0492C37.3025 38.4008 37.5 38.8777 37.5 39.375C37.5 39.8723 37.3025 40.3492 36.9508 40.7008C36.5992 41.0525 36.1223 41.25 35.625 41.25H13.125C12.6277 41.25 12.1508 41.0525 11.7992 40.7008C11.4475 40.3492 11.25 39.8723 11.25 39.375Z" fill="white"/>
  </g>
  <defs>
    <clipPath id="clip0_352_932">
      <rect width="60" height="60" fill="white"/>
    </clipPath>
  </defs>
</svg>