<svg xmlns="http://www.w3.org/2000/svg" width="21" height="21" viewBox="0 0 21 21" fill="none">
  <g clip-path="url(#clip0_1603_2319)">
    <path d="M7.375 7.375C7.54076 7.375 7.69973 7.44085 7.81694 7.55806C7.93415 7.67527 8 7.83424 8 8V15.5C8 15.6658 7.93415 15.8247 7.81694 15.9419C7.69973 16.0592 7.54076 16.125 7.375 16.125C7.20924 16.125 7.05027 16.0592 6.93306 15.9419C6.81585 15.8247 6.75 15.6658 6.75 15.5V8C6.75 7.83424 6.81585 7.67527 6.93306 7.55806C7.05027 7.44085 7.20924 7.375 7.375 7.375ZM10.5 7.375C10.6658 7.375 10.8247 7.44085 10.9419 7.55806C11.0592 7.67527 11.125 7.83424 11.125 8V15.5C11.125 15.6658 11.0592 15.8247 10.9419 15.9419C10.8247 16.0592 10.6658 16.125 10.5 16.125C10.3342 16.125 10.1753 16.0592 10.0581 15.9419C9.94085 15.8247 9.875 15.6658 9.875 15.5V8C9.875 7.83424 9.94085 7.67527 10.0581 7.55806C10.1753 7.44085 10.3342 7.375 10.5 7.375ZM14.25 8C14.25 7.83424 14.1842 7.67527 14.0669 7.55806C13.9497 7.44085 13.7908 7.375 13.625 7.375C13.4592 7.375 13.3003 7.44085 13.1831 7.55806C13.0658 7.67527 13 7.83424 13 8V15.5C13 15.6658 13.0658 15.8247 13.1831 15.9419C13.3003 16.0592 13.4592 16.125 13.625 16.125C13.7908 16.125 13.9497 16.0592 14.0669 15.9419C14.1842 15.8247 14.25 15.6658 14.25 15.5V8Z" fill="#0F4E7B"/>
    <path d="M18.625 4.25C18.625 4.58152 18.4933 4.89946 18.2589 5.13388C18.0245 5.3683 17.7065 5.5 17.375 5.5H16.75V16.75C16.75 17.413 16.4866 18.0489 16.0178 18.5178C15.5489 18.9866 14.913 19.25 14.25 19.25H6.75C6.08696 19.25 5.45107 18.9866 4.98223 18.5178C4.51339 18.0489 4.25 17.413 4.25 16.75V5.5H3.625C3.29348 5.5 2.97554 5.3683 2.74112 5.13388C2.5067 4.89946 2.375 4.58152 2.375 4.25V3C2.375 2.66848 2.5067 2.35054 2.74112 2.11612C2.97554 1.8817 3.29348 1.75 3.625 1.75H8C8 1.41848 8.1317 1.10054 8.36612 0.866117C8.60054 0.631696 8.91848 0.5 9.25 0.5L11.75 0.5C12.0815 0.5 12.3995 0.631696 12.6339 0.866117C12.8683 1.10054 13 1.41848 13 1.75H17.375C17.7065 1.75 18.0245 1.8817 18.2589 2.11612C18.4933 2.35054 18.625 2.66848 18.625 3V4.25ZM5.6475 5.5L5.5 5.57375V16.75C5.5 17.0815 5.6317 17.3995 5.86612 17.6339C6.10054 17.8683 6.41848 18 6.75 18H14.25C14.5815 18 14.8995 17.8683 15.1339 17.6339C15.3683 17.3995 15.5 17.0815 15.5 16.75V5.57375L15.3525 5.5H5.6475ZM3.625 4.25H17.375V3H3.625V4.25Z" fill="#0F4E7B"/>
  </g>
  <defs>
    <clipPath id="clip0_1603_2319">
      <rect width="20" height="20" fill="white" transform="translate(0.5 0.5)"/>
    </clipPath>
  </defs>
</svg>