<svg xmlns="http://www.w3.org/2000/svg" width="40" height="40" viewBox="0 0 40 40" fill="none">
  <path fill-rule="evenodd" clip-rule="evenodd" d="M20 10C20.3315 10 20.6495 10.1317 20.8839 10.3661C21.1183 10.6005 21.25 10.9185 21.25 11.25V12.835L22.6225 12.0425C22.7647 11.9591 22.922 11.9047 23.0853 11.8824C23.2487 11.86 23.4148 11.8702 23.5742 11.9124C23.7336 11.9545 23.883 12.0278 24.014 12.1279C24.1449 12.228 24.2548 12.3531 24.3372 12.4958C24.4196 12.6386 24.473 12.7963 24.4943 12.9597C24.5155 13.1232 24.5042 13.2893 24.461 13.4484C24.4178 13.6075 24.3436 13.7564 24.2426 13.8867C24.1416 14.017 24.0158 14.126 23.8725 14.2075L22.5 15L23.8725 15.7925C24.0158 15.874 24.1416 15.983 24.2426 16.1133C24.3436 16.2436 24.4178 16.3925 24.461 16.5516C24.5042 16.7107 24.5155 16.8768 24.4943 17.0403C24.473 17.2037 24.4196 17.3614 24.3372 17.5042C24.2548 17.6469 24.1449 17.772 24.014 17.8721C23.883 17.9722 23.7336 18.0455 23.5742 18.0876C23.4148 18.1298 23.2487 18.14 23.0853 18.1176C22.922 18.0953 22.7647 18.0409 22.6225 17.9575L21.25 17.165V18.75C21.25 19.0815 21.1183 19.3995 20.8839 19.6339C20.6495 19.8683 20.3315 20 20 20C19.6685 20 19.3505 19.8683 19.1161 19.6339C18.8817 19.3995 18.75 19.0815 18.75 18.75V17.165L17.3775 17.9575C17.2353 18.0409 17.078 18.0953 16.9147 18.1176C16.7513 18.14 16.5852 18.1298 16.4258 18.0876C16.2664 18.0455 16.117 17.9722 15.986 17.8721C15.8551 17.772 15.7452 17.6469 15.6628 17.5042C15.5804 17.3614 15.527 17.2037 15.5057 17.0403C15.4845 16.8768 15.4958 16.7107 15.539 16.5516C15.5822 16.3925 15.6564 16.2436 15.7574 16.1133C15.8584 15.983 15.9842 15.874 16.1275 15.7925L17.5 15L16.1275 14.2075C15.8427 14.0406 15.6356 13.7678 15.5512 13.4486C15.4668 13.1295 15.5121 12.79 15.6772 12.5041C15.8422 12.2183 16.1136 12.0093 16.4322 11.9228C16.7507 11.8363 17.0906 11.8794 17.3775 12.0425L18.75 12.835V11.25C18.75 10.9185 18.8817 10.6005 19.1161 10.3661C19.3505 10.1317 19.6685 10 20 10ZM12.5 23.75C12.5 23.4185 12.6317 23.1005 12.8661 22.8661C13.1005 22.6317 13.4185 22.5 13.75 22.5H26.25C26.5815 22.5 26.8995 22.6317 27.1339 22.8661C27.3683 23.1005 27.5 23.4185 27.5 23.75C27.5 24.0815 27.3683 24.3995 27.1339 24.6339C26.8995 24.8683 26.5815 25 26.25 25H13.75C13.4185 25 13.1005 24.8683 12.8661 24.6339C12.6317 24.3995 12.5 24.0815 12.5 23.75ZM12.5 28.75C12.5 28.4185 12.6317 28.1005 12.8661 27.8661C13.1005 27.6317 13.4185 27.5 13.75 27.5H26.25C26.5815 27.5 26.8995 27.6317 27.1339 27.8661C27.3683 28.1005 27.5 28.4185 27.5 28.75C27.5 29.0815 27.3683 29.3995 27.1339 29.6339C26.8995 29.8683 26.5815 30 26.25 30H13.75C13.4185 30 13.1005 29.8683 12.8661 29.6339C12.6317 29.3995 12.5 29.0815 12.5 28.75Z" fill="white"/>
  <path d="M7.5 0H32.5C33.8261 0 35.0979 0.526784 36.0355 1.46447C36.9732 2.40215 37.5 3.67392 37.5 5V35C37.5 36.3261 36.9732 37.5979 36.0355 38.5355C35.0979 39.4732 33.8261 40 32.5 40H7.5C6.17392 40 4.90215 39.4732 3.96447 38.5355C3.02678 37.5979 2.5 36.3261 2.5 35V32.5H5V35C5 35.663 5.26339 36.2989 5.73223 36.7678C6.20107 37.2366 6.83696 37.5 7.5 37.5H32.5C33.163 37.5 33.7989 37.2366 34.2678 36.7678C34.7366 36.2989 35 35.663 35 35V5C35 4.33696 34.7366 3.70107 34.2678 3.23223C33.7989 2.76339 33.163 2.5 32.5 2.5H7.5C6.83696 2.5 6.20107 2.76339 5.73223 3.23223C5.26339 3.70107 5 4.33696 5 5V7.5H2.5V5C2.5 3.67392 3.02678 2.40215 3.96447 1.46447C4.90215 0.526784 6.17392 0 7.5 0Z" fill="white"/>
  <path d="M2.5 12.5V11.25C2.5 10.9185 2.6317 10.6005 2.86612 10.3661C3.10054 10.1317 3.41848 10 3.75 10C4.08152 10 4.39946 10.1317 4.63388 10.3661C4.8683 10.6005 5 10.9185 5 11.25V12.5H6.25C6.58152 12.5 6.89946 12.6317 7.13388 12.8661C7.3683 13.1005 7.5 13.4185 7.5 13.75C7.5 14.0815 7.3683 14.3995 7.13388 14.6339C6.89946 14.8683 6.58152 15 6.25 15H1.25C0.918479 15 0.600537 14.8683 0.366117 14.6339C0.131696 14.3995 0 14.0815 0 13.75C0 13.4185 0.131696 13.1005 0.366117 12.8661C0.600537 12.6317 0.918479 12.5 1.25 12.5H2.5ZM2.5 20V18.75C2.5 18.4185 2.6317 18.1005 2.86612 17.8661C3.10054 17.6317 3.41848 17.5 3.75 17.5C4.08152 17.5 4.39946 17.6317 4.63388 17.8661C4.8683 18.1005 5 18.4185 5 18.75V20H6.25C6.58152 20 6.89946 20.1317 7.13388 20.3661C7.3683 20.6005 7.5 20.9185 7.5 21.25C7.5 21.5815 7.3683 21.8995 7.13388 22.1339C6.89946 22.3683 6.58152 22.5 6.25 22.5H1.25C0.918479 22.5 0.600537 22.3683 0.366117 22.1339C0.131696 21.8995 0 21.5815 0 21.25C0 20.9185 0.131696 20.6005 0.366117 20.3661C0.600537 20.1317 0.918479 20 1.25 20H2.5ZM2.5 27.5V26.25C2.5 25.9185 2.6317 25.6005 2.86612 25.3661C3.10054 25.1317 3.41848 25 3.75 25C4.08152 25 4.39946 25.1317 4.63388 25.3661C4.8683 25.6005 5 25.9185 5 26.25V27.5H6.25C6.58152 27.5 6.89946 27.6317 7.13388 27.8661C7.3683 28.1005 7.5 28.4185 7.5 28.75C7.5 29.0815 7.3683 29.3995 7.13388 29.6339C6.89946 29.8683 6.58152 30 6.25 30H1.25C0.918479 30 0.600537 29.8683 0.366117 29.6339C0.131696 29.3995 0 29.0815 0 28.75C0 28.4185 0.131696 28.1005 0.366117 27.8661C0.600537 27.6317 0.918479 27.5 1.25 27.5H2.5Z" fill="white"/>
</svg>