<svg xmlns="http://www.w3.org/2000/svg" width="50" height="50" viewBox="0 0 50 50" fill="none">
  <path d="M25.0386 14.3743L40.0261 31.5055C41.7949 33.5243 40.3574 36.6868 37.673 36.6868H7.69799C7.09723 36.6873 6.50905 36.5146 6.00389 36.1895C5.49874 35.8643 5.09801 35.4004 4.84971 34.8534C4.60142 34.3063 4.51606 33.6993 4.60388 33.105C4.6917 32.5107 4.94896 31.9543 5.34487 31.5024L20.3324 14.3774C20.6257 14.0417 20.9874 13.7727 21.3933 13.5884C21.7991 13.4041 22.2397 13.3087 22.6855 13.3087C23.1313 13.3087 23.5718 13.4041 23.9777 13.5884C24.3836 13.7727 24.7453 14.0417 25.0386 14.3774V14.3743Z" fill="white"/>
</svg>