<svg xmlns="http://www.w3.org/2000/svg" width="54" height="70" viewBox="0 0 54 70" fill="none">
  <path d="M32.6569 0H9.5C7.17936 0 4.95376 0.921872 3.31282 2.56282C1.67187 4.20376 0.75 6.42936 0.75 8.75V61.25C0.75 63.5706 1.67187 65.7962 3.31282 67.4372C4.95376 69.0781 7.17936 70 9.5 70H44.5C46.8206 70 49.0462 69.0781 50.6872 67.4372C52.3281 65.7962 53.25 63.5706 53.25 61.25V20.5931C53.2498 19.4329 52.7887 18.3203 51.9681 17.5L35.75 1.28188C34.9297 0.461347 33.8171 0.000247789 32.6569 0ZM33.5625 15.3125V6.5625L46.6875 19.6875H37.9375C36.7772 19.6875 35.6644 19.2266 34.8439 18.4061C34.0234 17.5856 33.5625 16.4728 33.5625 15.3125ZM20.4375 24.0625V26.8362L22.8394 25.4494C23.0882 25.3035 23.3635 25.2082 23.6494 25.1692C23.9352 25.1301 24.2259 25.1479 24.5048 25.2217C24.7837 25.2954 25.0453 25.4236 25.2745 25.5988C25.5036 25.774 25.6959 25.9929 25.8401 26.2427C25.9844 26.4926 26.0778 26.7685 26.1149 27.0545C26.1521 27.3406 26.1324 27.6312 26.0568 27.9096C25.9812 28.188 25.8513 28.4488 25.6745 28.6768C25.4978 28.9048 25.2777 29.0955 25.0269 29.2381L22.625 30.625L25.0269 32.0119C25.2777 32.1545 25.4978 32.3452 25.6745 32.5732C25.8513 32.8012 25.9812 33.062 26.0568 33.3404C26.1324 33.6188 26.1521 33.9094 26.1149 34.1955C26.0778 34.4815 25.9844 34.7574 25.8401 35.0073C25.6959 35.2571 25.5036 35.4759 25.2745 35.6512C25.0453 35.8264 24.7837 35.9546 24.5048 36.0283C24.2259 36.1021 23.9352 36.1199 23.6494 36.0808C23.3635 36.0418 23.0882 35.9465 22.8394 35.8006L20.4375 34.4137V37.1875C20.4375 37.7677 20.207 38.3241 19.7968 38.7343C19.3866 39.1445 18.8302 39.375 18.25 39.375C17.6698 39.375 17.1134 39.1445 16.7032 38.7343C16.293 38.3241 16.0625 37.7677 16.0625 37.1875V34.4137L13.6606 35.8006C13.4118 35.9465 13.1365 36.0418 12.8506 36.0808C12.5648 36.1199 12.2741 36.1021 11.9952 36.0283C11.7163 35.9546 11.4547 35.8264 11.2255 35.6512C10.9964 35.4759 10.8041 35.2571 10.6599 35.0073C10.5156 34.7574 10.4222 34.4815 10.3851 34.1955C10.3479 33.9094 10.3676 33.6188 10.4432 33.3404C10.5188 33.062 10.6487 32.8012 10.8255 32.5732C11.0022 32.3452 11.2223 32.1545 11.4731 32.0119L13.875 30.625L11.4731 29.2381C10.9748 28.946 10.6123 28.4686 10.4646 27.9101C10.317 27.3517 10.3962 26.7575 10.685 26.2572C10.9739 25.757 11.4488 25.3913 12.0063 25.2399C12.5638 25.0886 13.1585 25.1639 13.6606 25.4494L16.0625 26.8362V24.0625C16.0625 23.4823 16.293 22.9259 16.7032 22.5157C17.1134 22.1055 17.6698 21.875 18.25 21.875C18.8302 21.875 19.3866 22.1055 19.7968 22.5157C20.207 22.9259 20.4375 23.4823 20.4375 24.0625ZM11.6875 43.75H33.5625C34.1427 43.75 34.6991 43.9805 35.1093 44.3907C35.5195 44.8009 35.75 45.3573 35.75 45.9375C35.75 46.5177 35.5195 47.0741 35.1093 47.4843C34.6991 47.8945 34.1427 48.125 33.5625 48.125H11.6875C11.1073 48.125 10.5509 47.8945 10.1407 47.4843C9.73047 47.0741 9.5 46.5177 9.5 45.9375C9.5 45.3573 9.73047 44.8009 10.1407 44.3907C10.5509 43.9805 11.1073 43.75 11.6875 43.75ZM11.6875 52.5H33.5625C34.1427 52.5 34.6991 52.7305 35.1093 53.1407C35.5195 53.5509 35.75 54.1073 35.75 54.6875C35.75 55.2677 35.5195 55.8241 35.1093 56.2343C34.6991 56.6445 34.1427 56.875 33.5625 56.875H11.6875C11.1073 56.875 10.5509 56.6445 10.1407 56.2343C9.73047 55.8241 9.5 55.2677 9.5 54.6875C9.5 54.1073 9.73047 53.5509 10.1407 53.1407C10.5509 52.7305 11.1073 52.5 11.6875 52.5Z" fill="#343A40"/>
</svg>