<svg xmlns="http://www.w3.org/2000/svg" width="50" height="50" viewBox="0 0 50 50" fill="none">
  <path d="M37.9375 27.3531L20.8063 42.3406C18.7875 44.1094 15.625 42.6719 15.625 39.9875V10.0125C15.6245 9.41174 15.7971 8.82357 16.1223 8.31841C16.4475 7.81325 16.9114 7.41253 17.4584 7.16423C18.0055 6.91593 18.6125 6.83058 19.2068 6.9184C19.8011 7.00621 20.3575 7.26348 20.8094 7.65938L37.9344 22.6469C38.27 22.9402 38.5391 23.3019 38.7234 23.7078C38.9077 24.1137 39.0031 24.5543 39.0031 25C39.0031 25.4458 38.9077 25.8864 38.7234 26.2922C38.5391 26.6981 38.27 27.0598 37.9344 27.3531H37.9375Z" fill="black"/>
</svg>