<svg xmlns="http://www.w3.org/2000/svg" width="40" height="40" viewBox="0 0 40 40" fill="none">
  <path fill-rule="evenodd" clip-rule="evenodd" d="M19.9987 7.5C22.7003 7.50104 25.3288 8.37732 27.4906 9.9976C29.6524 11.6179 31.2311 13.8949 31.9902 16.4877C32.7494 19.0805 32.648 21.8494 31.7014 24.3797C30.7548 26.9101 29.014 29.0657 26.7395 30.5236C24.465 31.9815 21.7795 32.6633 19.085 32.4669C16.3905 32.2705 13.8322 31.2064 11.7933 29.434C9.75431 27.6616 8.34444 25.2764 7.77483 22.6355C7.20522 19.9946 7.50654 17.2403 8.63366 14.785C8.75633 14.4865 8.7588 14.1521 8.64054 13.8518C8.52228 13.5515 8.29245 13.3086 7.99916 13.1739C7.70588 13.0392 7.37186 13.0232 7.06702 13.1292C6.76218 13.2351 6.51014 13.4549 6.36366 13.7425C5.01118 16.689 4.64974 19.9943 5.33348 23.1635C6.01722 26.3326 7.70933 29.1949 10.1563 31.3216C12.6034 33.4484 15.6736 34.725 18.9071 34.9604C22.1405 35.1958 25.3633 34.3772 28.0925 32.6273C30.8217 30.8774 32.9105 28.2903 34.046 25.2536C35.1815 22.2169 35.3026 18.8941 34.3911 15.7828C33.4796 12.6715 31.5846 9.93928 28.9899 7.99538C26.3953 6.05149 23.2407 5.00055 19.9987 5V7.5Z" fill="white"/>
  <path d="M20.0013 11.165V1.33497C20.0012 1.21621 19.9674 1.09992 19.9036 0.999724C19.8399 0.899524 19.7489 0.819559 19.6413 0.769194C19.5338 0.718829 19.4141 0.700149 19.2963 0.71534C19.1786 0.730531 19.0675 0.778965 18.9763 0.854971L13.0763 5.76997C13.0059 5.82863 12.9494 5.90203 12.9105 5.98497C12.8717 6.06792 12.8516 6.15838 12.8516 6.24997C12.8516 6.34156 12.8717 6.43202 12.9105 6.51497C12.9494 6.59792 13.0059 6.67131 13.0763 6.72997L18.9763 11.645C19.0675 11.721 19.1786 11.7694 19.2963 11.7846C19.4141 11.7998 19.5338 11.7811 19.6413 11.7307C19.7489 11.6804 19.8399 11.6004 19.9036 11.5002C19.9674 11.4 20.0012 11.2837 20.0013 11.165Z" fill="white"/>
</svg>