<svg xmlns="http://www.w3.org/2000/svg" width="40" height="40" viewBox="0 0 40 40" fill="none">
  <path d="M20 5C16.7006 5.01035 13.5137 6.20034 11.015 8.355C9.1 10.005 7.7125 12.155 7.355 14.3125C3.165 15.2375 0 18.8875 0 23.295C0 28.415 4.27 32.5 9.4525 32.5H31.7175C36.255 32.5 40 28.925 40 24.4325C40 20.3425 36.895 17.01 32.915 16.4475C32.3075 9.9975 26.725 5 20 5ZM25.885 22.135L20.885 27.135C20.7689 27.2514 20.6309 27.3438 20.4791 27.4068C20.3272 27.4698 20.1644 27.5022 20 27.5022C19.8356 27.5022 19.6728 27.4698 19.5209 27.4068C19.3691 27.3438 19.2311 27.2514 19.115 27.135L14.115 22.135C13.9988 22.0188 13.9066 21.8808 13.8437 21.729C13.7808 21.5771 13.7484 21.4144 13.7484 21.25C13.7484 21.0856 13.7808 20.9229 13.8437 20.771C13.9066 20.6192 13.9988 20.4812 14.115 20.365C14.3497 20.1303 14.6681 19.9984 15 19.9984C15.1644 19.9984 15.3271 20.0308 15.479 20.0937C15.6308 20.1566 15.7688 20.2488 15.885 20.365L18.75 23.2325V13.75C18.75 13.4185 18.8817 13.1005 19.1161 12.8661C19.3505 12.6317 19.6685 12.5 20 12.5C20.3315 12.5 20.6495 12.6317 20.8839 12.8661C21.1183 13.1005 21.25 13.4185 21.25 13.75V23.2325L24.115 20.365C24.3497 20.1303 24.6681 19.9984 25 19.9984C25.3319 19.9984 25.6503 20.1303 25.885 20.365C26.1197 20.5997 26.2516 20.9181 26.2516 21.25C26.2516 21.5819 26.1197 21.9003 25.885 22.135Z" fill="white"/>
</svg>