<svg xmlns="http://www.w3.org/2000/svg" width="563" height="108" viewBox="0 0 563 108" fill="none">
<g filter="url(#filter0_d_114_94)">
<path d="M25.026 5.23374H54.7964C59.3581 5.23374 63.056 8.97184 63.056 13.583V43.696H33.2856C28.724 43.696 25.026 39.9579 25.026 35.3467V5.23374Z" fill="#28A745"/>
<path d="M4 18.6385C4 17.602 4.8312 16.7608 5.85655 16.7608C6.88189 16.7608 7.71309 17.602 7.71309 18.6385C7.71309 19.675 6.88189 20.5161 5.85655 20.5161C4.8312 20.5161 4 19.675 4 18.6385Z" fill="#208637"/>
<path d="M15.9645 28.131C15.9645 26.5755 17.2119 25.3146 18.7507 25.3146H18.9542C20.493 25.3146 21.7404 26.5755 21.7404 28.131C21.7404 29.6865 20.493 30.9475 18.9542 30.9475H18.7507C17.2119 30.9475 15.9645 29.6865 15.9645 28.131Z" fill="#343A40"/>
<path d="M10.6016 5.21656C10.0316 4.21809 10.3701 2.94122 11.3576 2.36461L14.9274 0.280162C15.9149 -0.296452 17.1775 0.0455332 17.7475 1.04401L19.809 4.65528C20.379 5.65376 20.0405 6.93062 19.053 7.50724L15.4833 9.59168C14.4958 10.1683 13.2332 9.82631 12.6632 8.82784L10.6016 5.21656Z" fill="#343A40"/>
<path d="M5.75376 39.1989C5.46876 38.6996 5.63799 38.0612 6.13174 37.7729L7.63721 36.8938C8.13096 36.6055 8.76226 36.7765 9.04725 37.2758L9.91669 38.7988C10.2017 39.298 10.0325 39.9365 9.53871 40.2248L8.03324 41.1038C7.53949 41.3921 6.90819 41.2212 6.6232 40.7219L5.75376 39.1989Z" fill="#28A745"/>
<path d="M62.9193 29.5204C62.9193 24.9092 66.6172 21.1711 71.1788 21.1711H100.785V51.2104C100.785 55.8216 97.0872 59.5597 92.5256 59.5597H62.9193V29.5204Z" fill="#343A40"/>
<path d="M95.8169 9.5285C95.5324 9.02896 95.7018 8.38987 96.1953 8.10104L97.9659 7.0647C98.4593 6.77587 99.09 6.94668 99.3744 7.44622L100.398 9.24385C100.683 9.74338 100.513 10.3825 100.02 10.6713L98.2492 11.7076C97.7558 11.9965 97.1251 11.8257 96.8407 11.3261L95.8169 9.5285Z" fill="#28A745"/>
<path d="M83.7999 14.7667C83.7999 13.3334 84.9494 12.1639 86.3673 12.1639C87.7853 12.1639 88.9347 13.3334 88.9347 14.7667C88.9347 16.2001 87.7853 17.3696 86.3673 17.3696C84.9494 17.3696 83.7999 16.2001 83.7999 14.7667Z" fill="#343A40"/>
<path d="M65.1124 14.3893C64.5434 13.3902 64.8822 12.1121 65.8691 11.5344L67.6315 10.5029C68.6184 9.9252 69.8797 10.2668 70.4487 11.2659L71.4691 13.0578C72.0381 14.0569 71.6993 15.3351 70.7124 15.9128L68.95 16.9443C67.9631 17.522 66.7018 17.1803 66.1329 16.1813L65.1124 14.3893Z" fill="#208637"/>
<path d="M10.3979 51.94C10.3979 47.3288 14.0959 43.5907 18.6575 43.5907H48.3953V73.7028C48.3953 78.3139 44.6973 82.0521 40.1357 82.0521H10.3979V51.94Z" fill="#343A40"/>
<path d="M19.8987 95.1803C19.329 94.1816 19.6676 92.9043 20.6549 92.3273L24.2193 90.2443C25.2066 89.6673 26.4687 90.0092 27.0384 91.0079L29.0976 94.6182C29.6673 95.6169 29.3287 96.8942 28.3414 97.4712L24.777 99.5542C23.7897 100.131 22.5276 99.7894 21.9579 98.7907L19.8987 95.1803Z" fill="#343A40"/>
<path d="M41.3155 86.6722C41.3155 85.6366 42.146 84.7946 43.1705 84.7946C44.1949 84.7946 45.0254 85.6366 45.0254 86.6722C45.0254 87.7078 44.1949 88.5498 43.1705 88.5498C42.146 88.5498 41.3155 87.7078 41.3155 86.6722Z" fill="#28A745"/>
<path d="M5.23894 88.5724C5.23894 87.5368 6.06943 86.6948 7.09389 86.6948C8.11835 86.6948 8.94884 87.5368 8.94884 88.5724C8.94884 89.608 8.11835 90.45 7.09389 90.45C6.06943 90.45 5.23894 89.608 5.23894 88.5724Z" fill="#208637"/>
<path d="M48.3952 59.5597H78.0883C82.65 59.5597 86.3479 63.2978 86.3479 67.9089V97.8728H56.6548C52.0932 97.8728 48.3952 94.1347 48.3952 89.5235V59.5597Z" fill="#208637"/>
<path d="M88.2624 87.1367C88.2624 86.1037 89.0933 85.2663 90.1152 85.2663C91.1371 85.2663 91.968 86.1037 91.968 87.1367C91.968 88.1697 91.1371 89.007 90.1152 89.007C89.0933 89.007 88.2624 88.1697 88.2624 87.1367Z" fill="#343A40"/>
<path d="M92.3797 64.5884C92.3797 63.498 93.2568 62.6141 94.3354 62.6141C95.4141 62.6141 96.2911 63.498 96.2911 64.5884C96.2911 65.6787 95.4141 66.5627 94.3354 66.5627C93.2568 66.5627 92.3797 65.6787 92.3797 64.5884Z" fill="#343A40"/>
<path d="M97.3246 97.1526C96.7538 96.1546 97.092 94.8787 98.08 94.3029L99.8688 93.2603C100.857 92.6845 102.12 93.0268 102.691 94.0248L103.723 95.8282C104.293 96.8262 103.955 98.102 102.967 98.6778L101.178 99.7205C100.19 100.296 98.9268 99.954 98.356 98.956L97.3246 97.1526Z" fill="#208637"/>
<path d="M98.7613 75.3949C98.7613 74.4193 99.5437 73.6285 100.509 73.6285H100.925C101.89 73.6285 102.673 74.4193 102.673 75.3949C102.673 76.3705 101.89 77.1614 100.925 77.1614H100.509C99.5437 77.1614 98.7613 76.3705 98.7613 75.3949Z" fill="#28A745"/>
</g>
<g filter="url(#filter1_d_114_94)">
<path d="M143.497 52.5098C142.813 52.5098 142.162 52.3796 141.544 52.1191C140.942 51.8424 140.413 51.4844 139.957 51.0449C139.501 50.5892 139.143 50.0602 138.883 49.458C138.622 48.8395 138.492 48.1885 138.492 47.5049V37.4951C138.492 36.8115 138.622 36.1686 138.883 35.5664C139.143 34.9479 139.501 34.4189 139.957 33.9795C140.413 33.5238 140.942 33.1657 141.544 32.9053C142.162 32.6286 142.813 32.4902 143.497 32.4902H160.489C161.173 32.4902 161.816 32.6286 162.418 32.9053C163.036 33.1657 163.574 33.5238 164.029 33.9795C164.485 34.4189 164.843 34.9479 165.104 35.5664C165.364 36.1686 165.494 36.8115 165.494 37.4951V42.0117H160.489V37.4951H143.497V47.5049H160.489C161.173 47.5049 161.816 47.6351 162.418 47.8955C163.036 48.1559 163.574 48.514 164.029 48.9697C164.485 49.4255 164.843 49.9626 165.104 50.5811C165.364 51.1833 165.494 51.8262 165.494 52.5098V62.4951C165.494 63.1787 165.364 63.8298 165.104 64.4482C164.843 65.0505 164.485 65.5794 164.029 66.0352C163.574 66.4909 163.036 66.849 162.418 67.1094C161.816 67.3698 161.173 67.5 160.489 67.5H143.009C142.325 67.5 141.674 67.3698 141.056 67.1094C140.453 66.849 139.924 66.4909 139.469 66.0352C139.013 65.5794 138.655 65.0505 138.395 64.4482C138.134 63.8298 138.004 63.1787 138.004 62.4951V58.0029H143.009V62.4951H160.489V52.5098H143.497ZM179.093 41.499V67.5H174.283V41.499H179.093ZM174.039 31.4893H179.337V36.4941H174.039V31.4893ZM203.067 62.6904V56.6602H191.666C190.999 56.6602 190.372 56.5381 189.786 56.2939C189.2 56.0335 188.688 55.6917 188.248 55.2686C187.825 54.8291 187.483 54.3164 187.223 53.7305C186.979 53.1445 186.856 52.5179 186.856 51.8506V46.3086C186.856 45.6413 186.979 45.0146 187.223 44.4287C187.483 43.8428 187.825 43.3382 188.248 42.915C188.688 42.4756 189.2 42.1338 189.786 41.8896C190.372 41.6292 190.999 41.499 191.666 41.499H206.876V46.3086H191.666V51.8506H203.067C203.735 51.8506 204.353 51.9808 204.923 52.2412C205.509 52.4854 206.021 52.8271 206.461 53.2666C206.9 53.6898 207.242 54.1943 207.486 54.7803C207.747 55.3662 207.877 55.9928 207.877 56.6602V62.6904C207.877 63.3577 207.747 63.9844 207.486 64.5703C207.242 65.1562 206.9 65.6689 206.461 66.1084C206.021 66.5316 205.509 66.8734 204.923 67.1338C204.353 67.3779 203.735 67.5 203.067 67.5H186.856V62.6904H203.067ZM213.883 41.499H220.23V33.4912H225.04V41.499H233.585V46.3086H225.04V62.6904H233.585V67.5H225.04C224.389 67.5 223.771 67.3779 223.185 67.1338C222.599 66.8734 222.086 66.5316 221.646 66.1084C221.207 65.6689 220.857 65.1562 220.597 64.5703C220.353 63.9844 220.23 63.3577 220.23 62.6904V46.3086H213.883V41.499ZM263.614 56.9531H246.402V62.6904H263.614V67.5H246.402C245.751 67.5 245.133 67.3779 244.547 67.1338C243.961 66.8734 243.448 66.5316 243.009 66.1084C242.586 65.6689 242.244 65.1562 241.983 64.5703C241.739 63.9844 241.617 63.3577 241.617 62.6904V46.3086C241.617 45.6413 241.739 45.0146 241.983 44.4287C242.244 43.8428 242.586 43.3382 243.009 42.915C243.448 42.4756 243.961 42.1338 244.547 41.8896C245.133 41.6292 245.751 41.499 246.402 41.499H258.805C259.472 41.499 260.099 41.6292 260.685 41.8896C261.271 42.1338 261.775 42.4756 262.198 42.915C262.638 43.3382 262.979 43.8428 263.224 44.4287C263.484 45.0146 263.614 45.6413 263.614 46.3086V56.9531ZM246.402 46.3086V52.1436H258.805V46.3086H246.402ZM292.252 46.3086V67.5H287.442V46.3086H276.432V67.5H271.646V41.499H276.432V46.0889C276.464 45.4541 276.611 44.86 276.871 44.3066C277.132 43.737 277.473 43.2487 277.896 42.8418C278.336 42.4186 278.84 42.0931 279.41 41.8652C279.98 41.6211 280.59 41.499 281.241 41.499H287.442C288.077 41.499 288.679 41.6211 289.249 41.8652C289.819 42.0931 290.323 42.4186 290.763 42.8418C291.202 43.2487 291.552 43.737 291.812 44.3066C292.089 44.86 292.236 45.4541 292.252 46.0889C292.285 45.4541 292.423 44.86 292.667 44.3066C292.927 43.737 293.269 43.2487 293.692 42.8418C294.132 42.4186 294.636 42.0931 295.206 41.8652C295.776 41.6211 296.386 41.499 297.037 41.499H303.238C303.906 41.499 304.532 41.6292 305.118 41.8896C305.704 42.1338 306.209 42.4756 306.632 42.915C307.071 43.3382 307.413 43.8428 307.657 44.4287C307.918 45.0146 308.048 45.6413 308.048 46.3086V67.5H303.238V46.3086H292.252ZM316.08 56.1475C316.08 55.4801 316.202 54.8617 316.446 54.292C316.707 53.7061 317.049 53.1934 317.472 52.7539C317.911 52.3145 318.424 51.9727 319.01 51.7285C319.596 51.4681 320.214 51.3379 320.865 51.3379H333.268V46.3086H317.569V41.499H333.268C333.935 41.499 334.562 41.6292 335.147 41.8896C335.733 42.1338 336.238 42.4756 336.661 42.915C337.101 43.3382 337.442 43.8428 337.687 44.4287C337.947 45.0146 338.077 45.6413 338.077 46.3086V67.5H333.268V63.1055C333.219 63.7077 333.056 64.2773 332.779 64.8145C332.503 65.3516 332.145 65.8236 331.705 66.2305C331.282 66.6211 330.794 66.9303 330.24 67.1582C329.687 67.3861 329.101 67.5 328.482 67.5H320.865C320.214 67.5 319.596 67.3779 319.01 67.1338C318.424 66.8734 317.911 66.5316 317.472 66.1084C317.049 65.6689 316.707 65.1562 316.446 64.5703C316.202 63.9844 316.08 63.3577 316.08 62.6904V56.1475ZM320.865 62.6904H333.268V56.1475H320.865V62.6904Z" fill="#343A40"/>
</g>
<g filter="url(#filter2_d_114_94)">
<path d="M362.497 52.5098C361.813 52.5098 361.162 52.3796 360.544 52.1191C359.942 51.8424 359.413 51.4844 358.957 51.0449C358.501 50.5892 358.143 50.0602 357.883 49.458C357.622 48.8395 357.492 48.1885 357.492 47.5049V37.4951C357.492 36.8115 357.622 36.1686 357.883 35.5664C358.143 34.9479 358.501 34.4189 358.957 33.9795C359.413 33.5238 359.942 33.1657 360.544 32.9053C361.162 32.6286 361.813 32.4902 362.497 32.4902H379.489C380.173 32.4902 380.816 32.6286 381.418 32.9053C382.036 33.1657 382.574 33.5238 383.029 33.9795C383.485 34.4189 383.843 34.9479 384.104 35.5664C384.364 36.1686 384.494 36.8115 384.494 37.4951V42.0117H379.489V37.4951H362.497V47.5049H379.489C380.173 47.5049 380.816 47.6351 381.418 47.8955C382.036 48.1559 382.574 48.514 383.029 48.9697C383.485 49.4255 383.843 49.9626 384.104 50.5811C384.364 51.1833 384.494 51.8262 384.494 52.5098V62.4951C384.494 63.1787 384.364 63.8298 384.104 64.4482C383.843 65.0505 383.485 65.5794 383.029 66.0352C382.574 66.4909 382.036 66.849 381.418 67.1094C380.816 67.3698 380.173 67.5 379.489 67.5H362.009C361.325 67.5 360.674 67.3698 360.056 67.1094C359.453 66.849 358.924 66.4909 358.469 66.0352C358.013 65.5794 357.655 65.0505 357.395 64.4482C357.134 63.8298 357.004 63.1787 357.004 62.4951V58.0029H362.009V62.4951H379.489V52.5098H362.497ZM394.797 77.998L400.241 65.1562L390.036 41.499H395.09L402.683 59.3945L410.275 41.499H415.329L399.582 77.998H394.797ZM425.119 31.4893V67.5H420.334V31.4893H425.119ZM437.912 31.4893V67.5H433.127V31.4893H437.912ZM445.92 56.1475C445.92 55.4801 446.042 54.8617 446.286 54.292C446.547 53.7061 446.888 53.1934 447.312 52.7539C447.751 52.3145 448.264 51.9727 448.85 51.7285C449.436 51.4681 450.054 51.3379 450.705 51.3379H463.107V46.3086H447.409V41.499H463.107C463.775 41.499 464.401 41.6292 464.987 41.8896C465.573 42.1338 466.078 42.4756 466.501 42.915C466.94 43.3382 467.282 43.8428 467.526 44.4287C467.787 45.0146 467.917 45.6413 467.917 46.3086V67.5H463.107V63.1055C463.059 63.7077 462.896 64.2773 462.619 64.8145C462.342 65.3516 461.984 65.8236 461.545 66.2305C461.122 66.6211 460.633 66.9303 460.08 67.1582C459.527 67.3861 458.941 67.5 458.322 67.5H450.705C450.054 67.5 449.436 67.3779 448.85 67.1338C448.264 66.8734 447.751 66.5316 447.312 66.1084C446.888 65.6689 446.547 65.1562 446.286 64.5703C446.042 63.9844 445.92 63.3577 445.92 62.6904V56.1475ZM450.705 62.6904H463.107V56.1475H450.705V62.6904ZM498.947 62.6904C498.947 63.3577 498.817 63.9844 498.557 64.5703C498.312 65.1562 497.971 65.6689 497.531 66.1084C497.108 66.5316 496.604 66.8734 496.018 67.1338C495.432 67.3779 494.805 67.5 494.138 67.5H480.734C480.083 67.5 479.465 67.3779 478.879 67.1338C478.293 66.8734 477.78 66.5316 477.341 66.1084C476.918 65.6689 476.576 65.1562 476.315 64.5703C476.071 63.9844 475.949 63.3577 475.949 62.6904V31.4893H480.734V46.0889C480.767 45.4541 480.913 44.86 481.174 44.3066C481.434 43.737 481.776 43.2487 482.199 42.8418C482.639 42.4186 483.143 42.0931 483.713 41.8652C484.283 41.6211 484.893 41.499 485.544 41.499H494.138C494.805 41.499 495.432 41.6292 496.018 41.8896C496.604 42.1338 497.108 42.4756 497.531 42.915C497.971 43.3382 498.312 43.8428 498.557 44.4287C498.817 45.0146 498.947 45.6413 498.947 46.3086V62.6904ZM480.734 46.3086V62.6904H494.138V46.3086H480.734ZM506.955 41.499H511.74V62.6904H525.144V41.499H529.953V67.5H525.144V63.1055C525.095 63.7077 524.932 64.2773 524.655 64.8145C524.379 65.3516 524.021 65.8236 523.581 66.2305C523.158 66.6211 522.67 66.9303 522.116 67.1582C521.563 67.3861 520.977 67.5 520.358 67.5H511.74C511.089 67.5 510.471 67.3779 509.885 67.1338C509.299 66.8734 508.786 66.5316 508.347 66.1084C507.924 65.6689 507.582 65.1562 507.321 64.5703C507.077 63.9844 506.955 63.3577 506.955 62.6904V41.499ZM553.659 62.6904V56.6602H542.258C541.59 56.6602 540.964 56.5381 540.378 56.2939C539.792 56.0335 539.279 55.6917 538.84 55.2686C538.417 54.8291 538.075 54.3164 537.814 53.7305C537.57 53.1445 537.448 52.5179 537.448 51.8506V46.3086C537.448 45.6413 537.57 45.0146 537.814 44.4287C538.075 43.8428 538.417 43.3382 538.84 42.915C539.279 42.4756 539.792 42.1338 540.378 41.8896C540.964 41.6292 541.59 41.499 542.258 41.499H557.468V46.3086H542.258V51.8506H553.659C554.326 51.8506 554.945 51.9808 555.515 52.2412C556.101 52.4854 556.613 52.8271 557.053 53.2666C557.492 53.6898 557.834 54.1943 558.078 54.7803C558.339 55.3662 558.469 55.9928 558.469 56.6602V62.6904C558.469 63.3577 558.339 63.9844 558.078 64.5703C557.834 65.1562 557.492 65.6689 557.053 66.1084C556.613 66.5316 556.101 66.8734 555.515 67.1338C554.945 67.3779 554.326 67.5 553.659 67.5H537.448V62.6904H553.659Z" fill="#208637"/>
</g>
<defs>
<filter id="filter0_d_114_94" x="0" y="0" width="108" height="108" filterUnits="userSpaceOnUse" color-interpolation-filters="sRGB">
<feFlood flood-opacity="0" result="BackgroundImageFix"/>
<feColorMatrix in="SourceAlpha" type="matrix" values="0 0 0 0 0 0 0 0 0 0 0 0 0 0 0 0 0 0 127 0" result="hardAlpha"/>
<feOffset dy="4"/>
<feGaussianBlur stdDeviation="2"/>
<feComposite in2="hardAlpha" operator="out"/>
<feColorMatrix type="matrix" values="0 0 0 0 0 0 0 0 0 0 0 0 0 0 0 0 0 0 0.25 0"/>
<feBlend mode="normal" in2="BackgroundImageFix" result="effect1_dropShadow_114_94"/>
<feBlend mode="normal" in="SourceGraphic" in2="effect1_dropShadow_114_94" result="shape"/>
</filter>
<filter id="filter1_d_114_94" x="134.004" y="29.4893" width="208.074" height="44.0107" filterUnits="userSpaceOnUse" color-interpolation-filters="sRGB">
<feFlood flood-opacity="0" result="BackgroundImageFix"/>
<feColorMatrix in="SourceAlpha" type="matrix" values="0 0 0 0 0 0 0 0 0 0 0 0 0 0 0 0 0 0 127 0" result="hardAlpha"/>
<feOffset dy="2"/>
<feGaussianBlur stdDeviation="2"/>
<feComposite in2="hardAlpha" operator="out"/>
<feColorMatrix type="matrix" values="0 0 0 0 0 0 0 0 0 0 0 0 0 0 0 0 0 0 0.25 0"/>
<feBlend mode="normal" in2="BackgroundImageFix" result="effect1_dropShadow_114_94"/>
<feBlend mode="normal" in="SourceGraphic" in2="effect1_dropShadow_114_94" result="shape"/>
</filter>
<filter id="filter2_d_114_94" x="353.004" y="29.4893" width="209.465" height="54.5088" filterUnits="userSpaceOnUse" color-interpolation-filters="sRGB">
<feFlood flood-opacity="0" result="BackgroundImageFix"/>
<feColorMatrix in="SourceAlpha" type="matrix" values="0 0 0 0 0 0 0 0 0 0 0 0 0 0 0 0 0 0 127 0" result="hardAlpha"/>
<feOffset dy="2"/>
<feGaussianBlur stdDeviation="2"/>
<feComposite in2="hardAlpha" operator="out"/>
<feColorMatrix type="matrix" values="0 0 0 0 0 0 0 0 0 0 0 0 0 0 0 0 0 0 0.25 0"/>
<feBlend mode="normal" in2="BackgroundImageFix" result="effect1_dropShadow_114_94"/>
<feBlend mode="normal" in="SourceGraphic" in2="effect1_dropShadow_114_94" result="shape"/>
</filter>
</defs>
</svg>