<svg xmlns="http://www.w3.org/2000/svg" width="53" height="64" viewBox="0 0 53 64" fill="none">
  <g filter="url(#filter0_d_1258_2116)">
    <path fill-rule="evenodd" clip-rule="evenodd" d="M4.00044 53.654L4 0.000135064L49.0003 0L49.0005 53.654C49.0007 53.9546 48.9161 54.25 48.7551 54.5112C48.5941 54.7725 48.3622 54.9905 48.0821 55.1438C47.8021 55.2972 47.4836 55.3806 47.1581 55.3858C46.8325 55.391 46.5111 55.3179 46.2255 55.1736L26.5004 45.239L6.77544 55.1736C6.4898 55.3179 6.16838 55.391 5.84283 55.3858C5.51728 55.3806 5.19881 55.2972 4.91878 55.1438C4.63875 54.9905 4.4068 54.7725 4.24578 54.5112C4.08475 54.25 4.0002 53.9546 4.00044 53.654ZM22.2029 17.8132C22.0286 17.6523 21.8217 17.5247 21.5939 17.4376C21.3661 17.3505 21.122 17.3057 20.8754 17.3057C20.6289 17.3057 20.3848 17.3505 20.157 17.4376C19.9292 17.5247 19.7223 17.6523 19.5479 17.8132C19.3736 17.9742 19.2353 18.1652 19.141 18.3755C19.0466 18.5857 18.9981 18.8111 18.9981 19.0386C18.9981 19.2662 19.0466 19.4915 19.141 19.7018C19.2353 19.9121 19.3736 20.1031 19.5479 20.264L23.8492 24.2309L19.5479 28.1978C19.3736 28.3588 19.2353 28.5498 19.141 28.7601C19.0466 28.9703 18.9981 29.1957 18.9981 29.4232C18.9981 29.6508 19.0466 29.8761 19.141 30.0864C19.2353 30.2967 19.3736 30.4877 19.5479 30.6486C19.7223 30.8095 19.9292 30.9372 20.157 31.0243C20.3848 31.1114 20.6289 31.1562 20.8754 31.1562C21.122 31.1562 21.3661 31.1114 21.5939 31.0243C21.8217 30.9372 22.0286 30.8095 22.2029 30.6486L26.5004 26.6782L30.798 30.6486C31.15 30.9736 31.6275 31.1562 32.1255 31.1562C32.6234 31.1562 33.1009 30.9736 33.453 30.6486C33.805 30.3236 34.0028 29.8828 34.0028 29.4232C34.0028 28.9636 33.805 28.5228 33.453 28.1978L29.1517 24.2309L33.453 20.264C33.805 19.939 34.0028 19.4982 34.0028 19.0386C34.0028 18.579 33.805 18.1382 33.453 17.8132C33.1009 17.4882 32.6234 17.3057 32.1255 17.3057C31.6275 17.3057 31.15 17.4882 30.798 17.8132L26.5004 21.7836L22.2029 17.8132Z" fill="#343A40"/>
  </g>
  <defs>
    <filter id="filter0_d_1258_2116" x="0" y="0" width="53" height="63.3862" filterUnits="userSpaceOnUse" color-interpolation-filters="sRGB">
      <feFlood flood-opacity="0" result="BackgroundImageFix"/>
      <feColorMatrix in="SourceAlpha" type="matrix" values="0 0 0 0 0 0 0 0 0 0 0 0 0 0 0 0 0 0 127 0" result="hardAlpha"/>
      <feOffset dy="4"/>
      <feGaussianBlur stdDeviation="2"/>
      <feComposite in2="hardAlpha" operator="out"/>
      <feColorMatrix type="matrix" values="0 0 0 0 0 0 0 0 0 0 0 0 0 0 0 0 0 0 0.25 0"/>
      <feBlend mode="normal" in2="BackgroundImageFix" result="effect1_dropShadow_1258_2116"/>
      <feBlend mode="normal" in="SourceGraphic" in2="effect1_dropShadow_1258_2116" result="shape"/>
    </filter>
  </defs>
</svg>