<svg xmlns="http://www.w3.org/2000/svg" width="51" height="50" viewBox="0 0 51 50" fill="none">
  <path fill-rule="evenodd" clip-rule="evenodd" d="M25.5 21.875C25.9144 21.875 26.3118 22.0396 26.6049 22.3326C26.8979 22.6257 27.0625 23.0231 27.0625 23.4375V28.125H31.75C32.1644 28.125 32.5618 28.2896 32.8549 28.5826C33.1479 28.8757 33.3125 29.2731 33.3125 29.6875C33.3125 30.1019 33.1479 30.4993 32.8549 30.7924C32.5618 31.0854 32.1644 31.25 31.75 31.25H27.0625V35.9375C27.0625 36.3519 26.8979 36.7493 26.6049 37.0424C26.3118 37.3354 25.9144 37.5 25.5 37.5C25.0856 37.5 24.6882 37.3354 24.3951 37.0424C24.1021 36.7493 23.9375 36.3519 23.9375 35.9375V31.25H19.25C18.8356 31.25 18.4382 31.0854 18.1451 30.7924C17.8521 30.4993 17.6875 30.1019 17.6875 29.6875C17.6875 29.2731 17.8521 28.8757 18.1451 28.5826C18.4382 28.2896 18.8356 28.125 19.25 28.125H23.9375V23.4375C23.9375 23.0231 24.1021 22.6257 24.3951 22.3326C24.6882 22.0396 25.0856 21.875 25.5 21.875Z" fill="white"/>
  <path d="M13 4.6875H9.875C8.2174 4.6875 6.62769 5.34598 5.45558 6.51808C4.28348 7.69018 3.625 9.2799 3.625 10.9375V43.75C3.625 45.4076 4.28348 46.9973 5.45558 48.1694C6.62769 49.3415 8.2174 50 9.875 50H41.125C42.7826 50 44.3723 49.3415 45.5444 48.1694C46.7165 46.9973 47.375 45.4076 47.375 43.75V10.9375C47.375 9.2799 46.7165 7.69018 45.5444 6.51808C44.3723 5.34598 42.7826 4.6875 41.125 4.6875H38V7.8125H41.125C41.9538 7.8125 42.7487 8.14174 43.3347 8.72779C43.9208 9.31384 44.25 10.1087 44.25 10.9375V43.75C44.25 44.5788 43.9208 45.3737 43.3347 45.9597C42.7487 46.5458 41.9538 46.875 41.125 46.875H9.875C9.0462 46.875 8.25134 46.5458 7.66529 45.9597C7.07924 45.3737 6.75 44.5788 6.75 43.75V10.9375C6.75 10.1087 7.07924 9.31384 7.66529 8.72779C8.25134 8.14174 9.0462 7.8125 9.875 7.8125H13V4.6875Z" fill="white"/>
  <path d="M30.1875 3.125C30.6019 3.125 30.9993 3.28962 31.2924 3.58265C31.5854 3.87567 31.75 4.2731 31.75 4.6875V7.8125C31.75 8.2269 31.5854 8.62433 31.2924 8.91735C30.9993 9.21038 30.6019 9.375 30.1875 9.375H20.8125C20.3981 9.375 20.0007 9.21038 19.7076 8.91735C19.4146 8.62433 19.25 8.2269 19.25 7.8125V4.6875C19.25 4.2731 19.4146 3.87567 19.7076 3.58265C20.0007 3.28962 20.3981 3.125 20.8125 3.125H30.1875ZM20.8125 0C19.5693 0 18.377 0.49386 17.4979 1.37294C16.6189 2.25201 16.125 3.4443 16.125 4.6875V7.8125C16.125 9.0557 16.6189 10.248 17.4979 11.1271C18.377 12.0061 19.5693 12.5 20.8125 12.5H30.1875C31.4307 12.5 32.623 12.0061 33.5021 11.1271C34.3811 10.248 34.875 9.0557 34.875 7.8125V4.6875C34.875 3.4443 34.3811 2.25201 33.5021 1.37294C32.623 0.49386 31.4307 0 30.1875 0L20.8125 0Z" fill="white"/>
</svg>