<svg xmlns="http://www.w3.org/2000/svg" width="61" height="60" viewBox="0 0 61 60" fill="none">
  <path d="M15.5 41.25C15.5 40.2554 15.8951 39.3016 16.5984 38.5984C17.3016 37.8951 18.2554 37.5 19.25 37.5C20.2446 37.5 21.1984 37.8951 21.9016 38.5984C22.6049 39.3016 23 40.2554 23 41.25V45C23 45.9946 22.6049 46.9484 21.9016 47.6516C21.1984 48.3549 20.2446 48.75 19.25 48.75C18.2554 48.75 17.3016 48.3549 16.5984 47.6516C15.8951 46.9484 15.5 45.9946 15.5 45V41.25ZM38 26.25C38 25.2554 38.3951 24.3016 39.0984 23.5984C39.8016 22.8951 40.7554 22.5 41.75 22.5C42.7446 22.5 43.6984 22.8951 44.4016 23.5984C45.1049 24.3016 45.5 25.2554 45.5 26.25V45C45.5 45.9946 45.1049 46.9484 44.4016 47.6516C43.6984 48.3549 42.7446 48.75 41.75 48.75C40.7554 48.75 39.8016 48.3549 39.0984 47.6516C38.3951 46.9484 38 45.9946 38 45V26.25ZM26.75 33.75C26.75 32.7554 27.1451 31.8016 27.8484 31.0984C28.5516 30.3951 29.5054 30 30.5 30C31.4946 30 32.4484 30.3951 33.1516 31.0984C33.8549 31.8016 34.25 32.7554 34.25 33.75V45C34.25 45.9946 33.8549 46.9484 33.1516 47.6516C32.4484 48.3549 31.4946 48.75 30.5 48.75C29.5054 48.75 28.5516 48.3549 27.8484 47.6516C27.1451 46.9484 26.75 45.9946 26.75 45V33.75Z" fill="white"/>
  <path d="M15.5 5.625H11.75C9.76088 5.625 7.85322 6.41518 6.4467 7.8217C5.04018 9.22822 4.25 11.1359 4.25 13.125V52.5C4.25 54.4891 5.04018 56.3968 6.4467 57.8033C7.85322 59.2098 9.76088 60 11.75 60H49.25C51.2391 60 53.1468 59.2098 54.5533 57.8033C55.9598 56.3968 56.75 54.4891 56.75 52.5V13.125C56.75 11.1359 55.9598 9.22822 54.5533 7.8217C53.1468 6.41518 51.2391 5.625 49.25 5.625H45.5V9.375H49.25C50.2446 9.375 51.1984 9.77009 51.9016 10.4733C52.6049 11.1766 53 12.1304 53 13.125V52.5C53 53.4946 52.6049 54.4484 51.9016 55.1516C51.1984 55.8549 50.2446 56.25 49.25 56.25H11.75C10.7554 56.25 9.80161 55.8549 9.09835 55.1516C8.39509 54.4484 8 53.4946 8 52.5V13.125C8 12.1304 8.39509 11.1766 9.09835 10.4733C9.80161 9.77009 10.7554 9.375 11.75 9.375H15.5V5.625Z" fill="white"/>
  <path d="M36.125 3.75C36.6223 3.75 37.0992 3.94754 37.4508 4.29917C37.8025 4.65081 38 5.12772 38 5.625V9.375C38 9.87228 37.8025 10.3492 37.4508 10.7008C37.0992 11.0525 36.6223 11.25 36.125 11.25H24.875C24.3777 11.25 23.9008 11.0525 23.5492 10.7008C23.1975 10.3492 23 9.87228 23 9.375V5.625C23 5.12772 23.1975 4.65081 23.5492 4.29917C23.9008 3.94754 24.3777 3.75 24.875 3.75H36.125ZM24.875 0C23.3832 0 21.9524 0.592632 20.8975 1.64752C19.8426 2.70242 19.25 4.13316 19.25 5.625V9.375C19.25 10.8668 19.8426 12.2976 20.8975 13.3525C21.9524 14.4074 23.3832 15 24.875 15H36.125C37.6168 15 39.0476 14.4074 40.1025 13.3525C41.1574 12.2976 41.75 10.8668 41.75 9.375V5.625C41.75 4.13316 41.1574 2.70242 40.1025 1.64752C39.0476 0.592632 37.6168 0 36.125 0L24.875 0Z" fill="white"/>
</svg>