<svg xmlns="http://www.w3.org/2000/svg" width="1000" height="80" viewBox="0 0 1000 80" fill="none">
<path d="M875.18 26.0157C868.031 10.1793 852.268 0 834.893 0H0V80H999.657C999.791 80 999.863 79.8425 999.775 79.7417L993.114 72.1084C983.218 60.7665 969.072 54.0213 954.029 53.4712L913.852 52.0018C897.072 51.3882 882.089 41.3199 875.18 26.0157Z" fill="#D9D9D9"/>
<path d="M787.682 26.0636C781.28 10.3064 765.968 0 748.96 0H0V80H899.712C899.829 80 899.894 79.8652 899.822 79.7732L893.216 71.3613C884.731 60.5565 871.938 54.0121 858.211 53.4543L824.706 52.0928C808.328 51.4273 793.851 41.2496 787.682 26.0636Z" fill="#208637"/>
<path d="M63.916 42.998C64.847 42.998 65.5632 42.7474 66.0645 42.2461C66.5658 41.7448 66.8164 41.0286 66.8164 40.0977V35.8984C66.8164 35.4427 66.7513 35.0358 66.6211 34.6777C66.4909 34.3197 66.2988 34.0169 66.0449 33.7695C65.7975 33.5156 65.4948 33.3236 65.1367 33.1934C64.7786 33.0632 64.3717 32.998 63.916 32.998H58.7988V42.998H63.916ZM56.7969 45V30.9961H63.916C64.6647 30.9961 65.3385 31.1133 65.9375 31.3477C66.543 31.5755 67.0573 31.9043 67.4805 32.334C67.9102 32.7572 68.2389 33.2715 68.4668 33.877C68.7012 34.4824 68.8184 35.1562 68.8184 35.8984V40.0977C68.8184 40.8398 68.7012 41.5137 68.4668 42.1191C68.2389 42.7246 67.9102 43.2422 67.4805 43.6719C67.0573 44.0951 66.543 44.4238 65.9375 44.6582C65.3385 44.8861 64.6647 45 63.916 45H56.7969ZM80.6348 40.7812H73.75V43.0762H80.6348V45H73.75C73.4896 45 73.2422 44.9512 73.0078 44.8535C72.7734 44.7493 72.5684 44.6126 72.3926 44.4434C72.2233 44.2676 72.0866 44.0625 71.9824 43.8281C71.8848 43.5938 71.8359 43.3431 71.8359 43.0762V36.5234C71.8359 36.2565 71.8848 36.0059 71.9824 35.7715C72.0866 35.5371 72.2233 35.3353 72.3926 35.166C72.5684 34.9902 72.7734 34.8535 73.0078 34.7559C73.2422 34.6517 73.4896 34.5996 73.75 34.5996H78.7109C78.9779 34.5996 79.2285 34.6517 79.4629 34.7559C79.6973 34.8535 79.8991 34.9902 80.0684 35.166C80.2441 35.3353 80.3809 35.5371 80.4785 35.7715C80.5827 36.0059 80.6348 36.2565 80.6348 36.5234V40.7812ZM73.75 36.5234V38.8574H78.7109V36.5234H73.75ZM85.7617 36.5234V45H83.8477V34.5996H85.7617V36.4355C85.7747 36.1816 85.8333 35.944 85.9375 35.7227C86.0417 35.4948 86.1784 35.2995 86.3477 35.1367C86.5234 34.9674 86.7253 34.8372 86.9531 34.7461C87.181 34.6484 87.4251 34.5996 87.6855 34.5996H89.7266C89.9935 34.5996 90.2409 34.6517 90.4688 34.7559C90.7031 34.8535 90.9082 34.9902 91.084 35.166C91.2598 35.3353 91.3965 35.5371 91.4941 35.7715C91.5983 36.0059 91.6504 36.2565 91.6504 36.5234V38.2812H89.7266V36.5234H85.7617ZM102.842 40.7812H95.957V43.0762H102.842V45H95.957C95.6966 45 95.4492 44.9512 95.2148 44.8535C94.9805 44.7493 94.7754 44.6126 94.5996 44.4434C94.4303 44.2676 94.2936 44.0625 94.1895 43.8281C94.0918 43.5938 94.043 43.3431 94.043 43.0762V36.5234C94.043 36.2565 94.0918 36.0059 94.1895 35.7715C94.2936 35.5371 94.4303 35.3353 94.5996 35.166C94.7754 34.9902 94.9805 34.8535 95.2148 34.7559C95.4492 34.6517 95.6966 34.5996 95.957 34.5996H100.918C101.185 34.5996 101.436 34.6517 101.67 34.7559C101.904 34.8535 102.106 34.9902 102.275 35.166C102.451 35.3353 102.588 35.5371 102.686 35.7715C102.79 36.0059 102.842 36.2565 102.842 36.5234V40.7812ZM95.957 36.5234V38.8574H100.918V36.5234H95.957ZM107.969 36.5234V43.0762H112.93V41.3184H114.854V43.0762C114.854 43.3431 114.801 43.5938 114.697 43.8281C114.6 44.0625 114.463 44.2676 114.287 44.4434C114.118 44.6126 113.916 44.7493 113.682 44.8535C113.447 44.9512 113.197 45 112.93 45H107.969C107.708 45 107.461 44.9512 107.227 44.8535C106.992 44.7493 106.787 44.6126 106.611 44.4434C106.442 44.2676 106.305 44.0625 106.201 43.8281C106.104 43.5938 106.055 43.3431 106.055 43.0762V36.5234C106.055 36.2565 106.104 36.0059 106.201 35.7715C106.305 35.5371 106.442 35.3353 106.611 35.166C106.787 34.9902 106.992 34.8535 107.227 34.7559C107.461 34.6517 107.708 34.5996 107.969 34.5996H112.93C113.197 34.5996 113.447 34.6517 113.682 34.7559C113.916 34.8535 114.118 34.9902 114.287 35.166C114.463 35.3353 114.6 35.5371 114.697 35.7715C114.801 36.0059 114.854 36.2565 114.854 36.5234V38.2812H112.93V36.5234H107.969ZM127.266 45H125.342V36.5234H119.98V45H118.066V30.5957H119.98V36.4355C119.993 36.1816 120.052 35.944 120.156 35.7227C120.26 35.4948 120.397 35.2995 120.566 35.1367C120.742 34.9674 120.944 34.8372 121.172 34.7461C121.4 34.6484 121.644 34.5996 121.904 34.5996H125.342C125.609 34.5996 125.859 34.6517 126.094 34.7559C126.328 34.8535 126.53 34.9902 126.699 35.166C126.875 35.3353 127.012 35.5371 127.109 35.7715C127.214 36.0059 127.266 36.2565 127.266 36.5234V45ZM139.463 43.0762C139.463 43.3431 139.411 43.5938 139.307 43.8281C139.209 44.0625 139.072 44.2676 138.896 44.4434C138.727 44.6126 138.525 44.7493 138.291 44.8535C138.063 44.9512 137.816 45 137.549 45H132.383C132.122 45 131.875 44.9512 131.641 44.8535C131.406 44.7493 131.201 44.6126 131.025 44.4434C130.856 44.2676 130.719 44.0625 130.615 43.8281C130.518 43.5938 130.469 43.3431 130.469 43.0762V36.5234C130.469 36.2565 130.518 36.0059 130.615 35.7715C130.719 35.5371 130.856 35.3353 131.025 35.166C131.201 34.9902 131.406 34.8535 131.641 34.7559C131.875 34.6517 132.122 34.5996 132.383 34.5996H137.549C137.816 34.5996 138.063 34.6517 138.291 34.7559C138.525 34.8535 138.727 34.9902 138.896 35.166C139.072 35.3353 139.209 35.5371 139.307 35.7715C139.411 36.0059 139.463 36.2565 139.463 36.5234V43.0762ZM132.383 36.5234V43.0762H137.549V36.5234H132.383ZM148.955 43.0762V40.6641H144.395C144.128 40.6641 143.877 40.6152 143.643 40.5176C143.408 40.4134 143.203 40.2767 143.027 40.1074C142.858 39.9316 142.721 39.7266 142.617 39.4922C142.52 39.2578 142.471 39.0072 142.471 38.7402V36.5234C142.471 36.2565 142.52 36.0059 142.617 35.7715C142.721 35.5371 142.858 35.3353 143.027 35.166C143.203 34.9902 143.408 34.8535 143.643 34.7559C143.877 34.6517 144.128 34.5996 144.395 34.5996H150.479V36.5234H144.395V38.7402H148.955C149.222 38.7402 149.469 38.7923 149.697 38.8965C149.932 38.9941 150.137 39.1309 150.312 39.3066C150.488 39.4759 150.625 39.6777 150.723 39.9121C150.827 40.1465 150.879 40.3971 150.879 40.6641V43.0762C150.879 43.3431 150.827 43.5938 150.723 43.8281C150.625 44.0625 150.488 44.2676 150.312 44.4434C150.137 44.6126 149.932 44.7493 149.697 44.8535C149.469 44.9512 149.222 45 148.955 45H142.471V43.0762H148.955ZM171.143 35.9961C171.143 37.9492 170.309 39.0625 168.643 39.3359L171.279 45H169.062L166.465 39.4043H162.08V45H160.078V30.9961H167.744C170.01 30.9961 171.143 32.1322 171.143 34.4043V35.9961ZM162.08 37.4023H167.637C168.171 37.4023 168.555 37.2852 168.789 37.0508C169.023 36.8164 169.141 36.4323 169.141 35.8984V34.502C169.141 33.9681 169.023 33.584 168.789 33.3496C168.555 33.1152 168.171 32.998 167.637 32.998H162.08V37.4023ZM183.096 40.7812H176.211V43.0762H183.096V45H176.211C175.951 45 175.703 44.9512 175.469 44.8535C175.234 44.7493 175.029 44.6126 174.854 44.4434C174.684 44.2676 174.548 44.0625 174.443 43.8281C174.346 43.5938 174.297 43.3431 174.297 43.0762V36.5234C174.297 36.2565 174.346 36.0059 174.443 35.7715C174.548 35.5371 174.684 35.3353 174.854 35.166C175.029 34.9902 175.234 34.8535 175.469 34.7559C175.703 34.6517 175.951 34.5996 176.211 34.5996H181.172C181.439 34.5996 181.689 34.6517 181.924 34.7559C182.158 34.8535 182.36 34.9902 182.529 35.166C182.705 35.3353 182.842 35.5371 182.939 35.7715C183.044 36.0059 183.096 36.2565 183.096 36.5234V40.7812ZM176.211 36.5234V38.8574H181.172V36.5234H176.211ZM192.588 43.0762V40.6641H188.027C187.76 40.6641 187.51 40.6152 187.275 40.5176C187.041 40.4134 186.836 40.2767 186.66 40.1074C186.491 39.9316 186.354 39.7266 186.25 39.4922C186.152 39.2578 186.104 39.0072 186.104 38.7402V36.5234C186.104 36.2565 186.152 36.0059 186.25 35.7715C186.354 35.5371 186.491 35.3353 186.66 35.166C186.836 34.9902 187.041 34.8535 187.275 34.7559C187.51 34.6517 187.76 34.5996 188.027 34.5996H194.111V36.5234H188.027V38.7402H192.588C192.855 38.7402 193.102 38.7923 193.33 38.8965C193.564 38.9941 193.77 39.1309 193.945 39.3066C194.121 39.4759 194.258 39.6777 194.355 39.9121C194.46 40.1465 194.512 40.3971 194.512 40.6641V43.0762C194.512 43.3431 194.46 43.5938 194.355 43.8281C194.258 44.0625 194.121 44.2676 193.945 44.4434C193.77 44.6126 193.564 44.7493 193.33 44.8535C193.102 44.9512 192.855 45 192.588 45H186.104V43.0762H192.588ZM206.318 40.7812H199.434V43.0762H206.318V45H199.434C199.173 45 198.926 44.9512 198.691 44.8535C198.457 44.7493 198.252 44.6126 198.076 44.4434C197.907 44.2676 197.77 44.0625 197.666 43.8281C197.568 43.5938 197.52 43.3431 197.52 43.0762V36.5234C197.52 36.2565 197.568 36.0059 197.666 35.7715C197.77 35.5371 197.907 35.3353 198.076 35.166C198.252 34.9902 198.457 34.8535 198.691 34.7559C198.926 34.6517 199.173 34.5996 199.434 34.5996H204.395C204.661 34.5996 204.912 34.6517 205.146 34.7559C205.381 34.8535 205.583 34.9902 205.752 35.166C205.928 35.3353 206.064 35.5371 206.162 35.7715C206.266 36.0059 206.318 36.2565 206.318 36.5234V40.7812ZM199.434 36.5234V38.8574H204.395V36.5234H199.434ZM211.445 36.5234V45H209.531V34.5996H211.445V36.4355C211.458 36.1816 211.517 35.944 211.621 35.7227C211.725 35.4948 211.862 35.2995 212.031 35.1367C212.207 34.9674 212.409 34.8372 212.637 34.7461C212.865 34.6484 213.109 34.5996 213.369 34.5996H215.41C215.677 34.5996 215.924 34.6517 216.152 34.7559C216.387 34.8535 216.592 34.9902 216.768 35.166C216.943 35.3353 217.08 35.5371 217.178 35.7715C217.282 36.0059 217.334 36.2565 217.334 36.5234V38.2812H215.41V36.5234H211.445ZM222.686 45L218.525 34.5996H220.527L223.682 42.6953L226.846 34.5996H228.848L224.688 45H222.686ZM230.859 40.459C230.859 40.1921 230.908 39.9447 231.006 39.7168C231.11 39.4824 231.247 39.2773 231.416 39.1016C231.592 38.9258 231.797 38.7891 232.031 38.6914C232.266 38.5872 232.513 38.5352 232.773 38.5352H237.734V36.5234H231.455V34.5996H237.734C238.001 34.5996 238.252 34.6517 238.486 34.7559C238.721 34.8535 238.923 34.9902 239.092 35.166C239.268 35.3353 239.404 35.5371 239.502 35.7715C239.606 36.0059 239.658 36.2565 239.658 36.5234V45H237.734V43.2422C237.715 43.4831 237.65 43.7109 237.539 43.9258C237.428 44.1406 237.285 44.3294 237.109 44.4922C236.94 44.6484 236.745 44.7721 236.523 44.8633C236.302 44.9544 236.068 45 235.82 45H232.773C232.513 45 232.266 44.9512 232.031 44.8535C231.797 44.7493 231.592 44.6126 231.416 44.4434C231.247 44.2676 231.11 44.0625 231.006 43.8281C230.908 43.5938 230.859 43.3431 230.859 43.0762V40.459ZM232.773 43.0762H237.734V40.459H232.773V43.0762ZM242.871 36.5234C242.871 36.2565 242.92 36.0059 243.018 35.7715C243.122 35.5371 243.258 35.3353 243.428 35.166C243.604 34.9902 243.809 34.8535 244.043 34.7559C244.277 34.6517 244.525 34.5996 244.785 34.5996H250.146V30.5957H252.07V45H250.146V43.2422C250.127 43.4831 250.062 43.7109 249.951 43.9258C249.84 44.1406 249.697 44.3294 249.521 44.4922C249.352 44.6484 249.157 44.7721 248.936 44.8633C248.714 44.9544 248.48 45 248.232 45H244.785C244.525 45 244.277 44.9512 244.043 44.8535C243.809 44.7493 243.604 44.6126 243.428 44.4434C243.258 44.2676 243.122 44.0625 243.018 43.8281C242.92 43.5938 242.871 43.3431 242.871 43.0762V36.5234ZM244.785 43.0762H250.146V36.5234H244.785V43.0762ZM264.268 43.0762C264.268 43.3431 264.215 43.5938 264.111 43.8281C264.014 44.0625 263.877 44.2676 263.701 44.4434C263.532 44.6126 263.33 44.7493 263.096 44.8535C262.868 44.9512 262.62 45 262.354 45H257.188C256.927 45 256.68 44.9512 256.445 44.8535C256.211 44.7493 256.006 44.6126 255.83 44.4434C255.661 44.2676 255.524 44.0625 255.42 43.8281C255.322 43.5938 255.273 43.3431 255.273 43.0762V36.5234C255.273 36.2565 255.322 36.0059 255.42 35.7715C255.524 35.5371 255.661 35.3353 255.83 35.166C256.006 34.9902 256.211 34.8535 256.445 34.7559C256.68 34.6517 256.927 34.5996 257.188 34.5996H262.354C262.62 34.5996 262.868 34.6517 263.096 34.7559C263.33 34.8535 263.532 34.9902 263.701 35.166C263.877 35.3353 264.014 35.5371 264.111 35.7715C264.215 36.0059 264.268 36.2565 264.268 36.5234V43.0762ZM257.188 36.5234V43.0762H262.354V36.5234H257.188ZM273.76 43.0762V40.6641H269.199C268.932 40.6641 268.682 40.6152 268.447 40.5176C268.213 40.4134 268.008 40.2767 267.832 40.1074C267.663 39.9316 267.526 39.7266 267.422 39.4922C267.324 39.2578 267.275 39.0072 267.275 38.7402V36.5234C267.275 36.2565 267.324 36.0059 267.422 35.7715C267.526 35.5371 267.663 35.3353 267.832 35.166C268.008 34.9902 268.213 34.8535 268.447 34.7559C268.682 34.6517 268.932 34.5996 269.199 34.5996H275.283V36.5234H269.199V38.7402H273.76C274.027 38.7402 274.274 38.7923 274.502 38.8965C274.736 38.9941 274.941 39.1309 275.117 39.3066C275.293 39.4759 275.43 39.6777 275.527 39.9121C275.632 40.1465 275.684 40.3971 275.684 40.6641V43.0762C275.684 43.3431 275.632 43.5938 275.527 43.8281C275.43 44.0625 275.293 44.2676 275.117 44.4434C274.941 44.6126 274.736 44.7493 274.502 44.8535C274.274 44.9512 274.027 45 273.76 45H267.275V43.0762H273.76ZM284.688 40.459C284.688 40.1921 284.736 39.9447 284.834 39.7168C284.938 39.4824 285.075 39.2773 285.244 39.1016C285.42 38.9258 285.625 38.7891 285.859 38.6914C286.094 38.5872 286.341 38.5352 286.602 38.5352H291.562V36.5234H285.283V34.5996H291.562C291.829 34.5996 292.08 34.6517 292.314 34.7559C292.549 34.8535 292.751 34.9902 292.92 35.166C293.096 35.3353 293.232 35.5371 293.33 35.7715C293.434 36.0059 293.486 36.2565 293.486 36.5234V45H291.562V43.2422C291.543 43.4831 291.478 43.7109 291.367 43.9258C291.257 44.1406 291.113 44.3294 290.938 44.4922C290.768 44.6484 290.573 44.7721 290.352 44.8633C290.13 44.9544 289.896 45 289.648 45H286.602C286.341 45 286.094 44.9512 285.859 44.8535C285.625 44.7493 285.42 44.6126 285.244 44.4434C285.075 44.2676 284.938 44.0625 284.834 43.8281C284.736 43.5938 284.688 43.3431 284.688 43.0762V40.459ZM286.602 43.0762H291.562V40.459H286.602V43.0762ZM314.912 30.9961V45H312.91V39.0039H304.893V45H302.891V30.9961H304.893V37.002H312.91V30.9961H314.912ZM330.518 42.998C330.518 43.2715 330.465 43.5319 330.361 43.7793C330.257 44.0202 330.114 44.2318 329.932 44.4141C329.749 44.5964 329.535 44.7396 329.287 44.8438C329.046 44.9479 328.789 45 328.516 45H325.518V47.5977H323.516V45H320.518C320.244 45 319.984 44.9479 319.736 44.8438C319.495 44.7396 319.284 44.5964 319.102 44.4141C318.919 44.2318 318.776 44.0202 318.672 43.7793C318.568 43.5319 318.516 43.2715 318.516 42.998V32.998C318.516 32.7246 318.568 32.4674 318.672 32.2266C318.776 31.9792 318.919 31.7676 319.102 31.5918C319.284 31.4095 319.495 31.2663 319.736 31.1621C319.984 31.0514 320.244 30.9961 320.518 30.9961H328.516C328.789 30.9961 329.046 31.0514 329.287 31.1621C329.535 31.2663 329.749 31.4095 329.932 31.5918C330.114 31.7676 330.257 31.9792 330.361 32.2266C330.465 32.4674 330.518 32.7246 330.518 32.998V42.998ZM325.518 41.377V42.998H328.516V32.998H320.518V42.998H323.516V41.377H325.518ZM334.121 32.998C334.121 32.7246 334.173 32.4674 334.277 32.2266C334.382 31.9792 334.525 31.7676 334.707 31.5918C334.889 31.4095 335.101 31.2663 335.342 31.1621C335.589 31.0514 335.85 30.9961 336.123 30.9961H343.721C343.994 30.9961 344.251 31.0514 344.492 31.1621C344.74 31.2663 344.954 31.4095 345.137 31.5918C345.319 31.7676 345.462 31.9792 345.566 32.2266C345.671 32.4674 345.723 32.7246 345.723 32.998V34.8047H343.721V32.998H336.123V42.998H343.721V41.2012H345.723V42.998C345.723 43.2715 345.671 43.5319 345.566 43.7793C345.462 44.0202 345.319 44.2318 345.137 44.4141C344.954 44.5964 344.74 44.7396 344.492 44.8438C344.251 44.9479 343.994 45 343.721 45H336.123C335.85 45 335.589 44.9479 335.342 44.8438C335.101 44.7396 334.889 44.5964 334.707 44.4141C334.525 44.2318 334.382 44.0202 334.277 43.7793C334.173 43.5319 334.121 43.2715 334.121 42.998V32.998ZM357.725 43.0762C357.725 43.3431 357.673 43.5938 357.568 43.8281C357.471 44.0625 357.334 44.2676 357.158 44.4434C356.989 44.6126 356.787 44.7493 356.553 44.8535C356.325 44.9512 356.077 45 355.811 45H350.645C350.384 45 350.137 44.9512 349.902 44.8535C349.668 44.7493 349.463 44.6126 349.287 44.4434C349.118 44.2676 348.981 44.0625 348.877 43.8281C348.779 43.5938 348.73 43.3431 348.73 43.0762V36.5234C348.73 36.2565 348.779 36.0059 348.877 35.7715C348.981 35.5371 349.118 35.3353 349.287 35.166C349.463 34.9902 349.668 34.8535 349.902 34.7559C350.137 34.6517 350.384 34.5996 350.645 34.5996H355.811C356.077 34.5996 356.325 34.6517 356.553 34.7559C356.787 34.8535 356.989 34.9902 357.158 35.166C357.334 35.3353 357.471 35.5371 357.568 35.7715C357.673 36.0059 357.725 36.2565 357.725 36.5234V43.0762ZM350.645 36.5234V43.0762H355.811V36.5234H350.645ZM360.938 36.5234C360.938 36.2565 360.986 36.0059 361.084 35.7715C361.188 35.5371 361.325 35.3353 361.494 35.166C361.67 34.9902 361.875 34.8535 362.109 34.7559C362.344 34.6517 362.591 34.5996 362.852 34.5996H368.213V30.5957H370.137V45H368.213V43.2422C368.193 43.4831 368.128 43.7109 368.018 43.9258C367.907 44.1406 367.764 44.3294 367.588 44.4922C367.419 44.6484 367.223 44.7721 367.002 44.8633C366.781 44.9544 366.546 45 366.299 45H362.852C362.591 45 362.344 44.9512 362.109 44.8535C361.875 44.7493 361.67 44.6126 361.494 44.4434C361.325 44.2676 361.188 44.0625 361.084 43.8281C360.986 43.5938 360.938 43.3431 360.938 43.0762V36.5234ZM362.852 43.0762H368.213V36.5234H362.852V43.0762ZM382.139 40.7812H375.254V43.0762H382.139V45H375.254C374.993 45 374.746 44.9512 374.512 44.8535C374.277 44.7493 374.072 44.6126 373.896 44.4434C373.727 44.2676 373.59 44.0625 373.486 43.8281C373.389 43.5938 373.34 43.3431 373.34 43.0762V36.5234C373.34 36.2565 373.389 36.0059 373.486 35.7715C373.59 35.5371 373.727 35.3353 373.896 35.166C374.072 34.9902 374.277 34.8535 374.512 34.7559C374.746 34.6517 374.993 34.5996 375.254 34.5996H380.215C380.482 34.5996 380.732 34.6517 380.967 34.7559C381.201 34.8535 381.403 34.9902 381.572 35.166C381.748 35.3353 381.885 35.5371 381.982 35.7715C382.087 36.0059 382.139 36.2565 382.139 36.5234V40.7812ZM375.254 36.5234V38.8574H380.215V36.5234H375.254ZM387.266 36.5234V45H385.352V34.5996H387.266V36.4355C387.279 36.1816 387.337 35.944 387.441 35.7227C387.546 35.4948 387.682 35.2995 387.852 35.1367C388.027 34.9674 388.229 34.8372 388.457 34.7461C388.685 34.6484 388.929 34.5996 389.189 34.5996H391.23C391.497 34.5996 391.745 34.6517 391.973 34.7559C392.207 34.8535 392.412 34.9902 392.588 35.166C392.764 35.3353 392.9 35.5371 392.998 35.7715C393.102 36.0059 393.154 36.2565 393.154 36.5234V38.2812H391.23V36.5234H387.266ZM401.826 43.0762V40.6641H397.266C396.999 40.6641 396.748 40.6152 396.514 40.5176C396.279 40.4134 396.074 40.2767 395.898 40.1074C395.729 39.9316 395.592 39.7266 395.488 39.4922C395.391 39.2578 395.342 39.0072 395.342 38.7402V36.5234C395.342 36.2565 395.391 36.0059 395.488 35.7715C395.592 35.5371 395.729 35.3353 395.898 35.166C396.074 34.9902 396.279 34.8535 396.514 34.7559C396.748 34.6517 396.999 34.5996 397.266 34.5996H403.35V36.5234H397.266V38.7402H401.826C402.093 38.7402 402.34 38.7923 402.568 38.8965C402.803 38.9941 403.008 39.1309 403.184 39.3066C403.359 39.4759 403.496 39.6777 403.594 39.9121C403.698 40.1465 403.75 40.3971 403.75 40.6641V43.0762C403.75 43.3431 403.698 43.5938 403.594 43.8281C403.496 44.0625 403.359 44.2676 403.184 44.4434C403.008 44.6126 402.803 44.7493 402.568 44.8535C402.34 44.9512 402.093 45 401.826 45H395.342V43.0762H401.826Z" fill="white"/>
</svg>