<svg xmlns="http://www.w3.org/2000/svg" width="50" height="50" viewBox="0 0 50 50" fill="none">
  <path d="M10.513 2.61687H25.3982C27.679 2.61687 29.528 4.48592 29.528 6.79151V21.848H14.6428C12.362 21.848 10.513 19.979 10.513 17.6734V2.61687Z" fill="white"/>
  <path d="M0 9.31924C0 8.801 0.415602 8.38042 0.928273 8.38042C1.44094 8.38042 1.85655 8.801 1.85655 9.31924C1.85655 9.83748 1.44094 10.2581 0.928273 10.2581C0.415602 10.2581 0 9.83748 0 9.31924Z" fill="white"/>
  <path d="M5.98221 14.0655C5.98221 13.2878 6.60593 12.6573 7.37532 12.6573H7.47706C8.24646 12.6573 8.87017 13.2878 8.87017 14.0655C8.87017 14.8433 8.24646 15.4738 7.47706 15.4738H7.37532C6.60593 15.4738 5.98221 14.8433 5.98221 14.0655Z" fill="white"/>
  <path d="M3.30085 2.60828C3.01585 2.10904 3.18508 1.47061 3.67883 1.18231L5.46373 0.140081C5.95748 -0.148226 6.58878 0.0227667 6.87377 0.522004L7.90454 2.32764C8.18954 2.82688 8.02031 3.46531 7.52656 3.75362L5.74166 4.79584C5.24791 5.08415 4.61661 4.91316 4.33162 4.41392L3.30085 2.60828Z" fill="white"/>
  <path d="M0.876866 19.5994C0.734369 19.3498 0.818983 19.0306 1.06586 18.8865L1.81859 18.4469C2.06547 18.3028 2.38112 18.3883 2.52361 18.6379L2.95833 19.3994C3.10083 19.649 3.01622 19.9682 2.76934 20.1124L2.01661 20.5519C1.76973 20.6961 1.45408 20.6106 1.31159 20.361L0.876866 19.5994Z" fill="white"/>
  <path d="M29.4597 14.7602C29.4597 12.4546 31.3086 10.5856 33.5894 10.5856H48.3926V25.6052C48.3926 27.9108 46.5436 29.7798 44.2628 29.7798H29.4597V14.7602Z" fill="white"/>
  <path d="M45.9085 4.76425C45.7663 4.51448 45.851 4.19493 46.0977 4.05052L46.983 3.53235C47.2297 3.38793 47.545 3.47334 47.6873 3.72311L48.1991 4.62192C48.3414 4.87169 48.2567 5.19124 48.01 5.33565L47.1247 5.85382C46.8779 5.99824 46.5626 5.91283 46.4204 5.66306L45.9085 4.76425Z" fill="white"/>
  <path d="M39.9 7.38336C39.9 6.66669 40.4747 6.08194 41.1837 6.08194C41.8926 6.08194 42.4674 6.66669 42.4674 7.38336C42.4674 8.10003 41.8926 8.68478 41.1837 8.68478C40.4747 8.68478 39.9 8.10003 39.9 7.38336Z" fill="white"/>
  <path d="M30.5562 7.19466C30.2717 6.69512 30.4411 6.05603 30.9346 5.7672L31.8158 5.25143C32.3092 4.9626 32.9399 5.13341 33.2243 5.63295L33.7346 6.52892C34.0191 7.02846 33.8497 7.66755 33.3562 7.95638L32.475 8.47215C31.9816 8.76098 31.3509 8.59017 31.0665 8.09063L30.5562 7.19466Z" fill="white"/>
  <path d="M3.19896 25.97C3.19896 23.6644 5.04793 21.7953 7.32875 21.7953H22.1976V36.8514C22.1976 39.157 20.3487 41.026 18.0678 41.026H3.19896V25.97Z" fill="white"/>
  <path d="M7.94933 47.5902C7.66451 47.0908 7.8338 46.4522 8.32745 46.1637L10.1097 45.1222C10.6033 44.8337 11.2344 45.0046 11.5192 45.5039L12.5488 47.3091C12.8336 47.8084 12.6644 48.4471 12.1707 48.7356L10.3885 49.7771C9.89486 50.0656 9.26379 49.8947 8.97898 49.3953L7.94933 47.5902Z" fill="white"/>
  <path d="M18.6577 43.3361C18.6577 42.8183 19.073 42.3973 19.5852 42.3973C20.0974 42.3973 20.5127 42.8183 20.5127 43.3361C20.5127 43.8539 20.0974 44.2749 19.5852 44.2749C19.073 44.2749 18.6577 43.8539 18.6577 43.3361Z" fill="white"/>
  <path d="M0.619469 44.2862C0.619469 43.7684 1.03471 43.3474 1.54694 43.3474C2.05917 43.3474 2.47442 43.7684 2.47442 44.2862C2.47442 44.804 2.05917 45.225 1.54694 45.225C1.03471 45.225 0.619469 44.804 0.619469 44.2862Z" fill="white"/>
  <path d="M22.1976 29.7798H37.0442C39.325 29.7798 41.174 31.6489 41.174 33.9545V48.9364H26.3274C24.0466 48.9364 22.1976 47.0673 22.1976 44.7618V29.7798Z" fill="white"/>
  <path d="M42.1312 43.5683C42.1312 43.0519 42.5467 42.6332 43.0576 42.6332C43.5685 42.6332 43.984 43.0519 43.984 43.5683C43.984 44.0848 43.5685 44.5035 43.0576 44.5035C42.5467 44.5035 42.1312 44.0848 42.1312 43.5683Z" fill="white"/>
  <path d="M44.1899 32.2942C44.1899 31.749 44.6284 31.307 45.1677 31.307C45.707 31.307 46.1456 31.749 46.1456 32.2942C46.1456 32.8394 45.707 33.2813 45.1677 33.2813C44.6284 33.2813 44.1899 32.8394 44.1899 32.2942Z" fill="white"/>
  <path d="M46.6623 48.5763C46.3769 48.0773 46.546 47.4394 47.04 47.1515L47.9344 46.6302C48.4284 46.3422 49.0602 46.5134 49.3456 47.0124L49.8613 47.9141C50.1467 48.4131 49.9776 49.051 49.4836 49.3389L48.5892 49.8602C48.0952 50.1481 47.4634 49.977 47.178 49.478L46.6623 48.5763Z" fill="white"/>
  <path d="M47.3807 37.6975C47.3807 37.2097 47.7719 36.8142 48.2545 36.8142H48.4627C48.9453 36.8142 49.3364 37.2097 49.3364 37.6975C49.3364 38.1853 48.9453 38.5807 48.4627 38.5807H48.2545C47.7719 38.5807 47.3807 38.1853 47.3807 37.6975Z" fill="white"/>
</svg>