<svg width="1000" height="80" viewBox="0 0 1000 80" fill="none" xmlns="http://www.w3.org/2000/svg">
<path d="M875.18 26.0157C868.031 10.1793 852.268 0 834.893 0H0V80H999.657C999.791 80 999.863 79.8425 999.775 79.7417L993.114 72.1084C983.218 60.7665 969.072 54.0213 954.029 53.4712L913.852 52.0018C897.072 51.3882 882.089 41.3199 875.18 26.0157Z" fill="#D9D9D9"/>
<path d="M787.682 26.0636C781.28 10.3064 765.968 0 748.96 0H0V80H899.712C899.829 80 899.894 79.8652 899.822 79.7732L893.216 71.3613C884.731 60.5565 871.938 54.0121 858.211 53.4543L824.706 52.0928C808.328 51.4273 793.851 41.2496 787.682 26.0636Z" fill="#208637"/>
<path d="M135.393 37.998C135.393 36.9499 135.572 35.9863 135.93 35.1074C136.288 34.2285 136.786 33.4701 137.424 32.832C138.068 32.194 138.83 31.696 139.709 31.3379C140.594 30.9798 141.558 30.8008 142.6 30.8008C143.648 30.8008 144.611 30.9798 145.49 31.3379C146.369 31.696 147.128 32.194 147.766 32.832C148.404 33.4701 148.902 34.2285 149.26 35.1074C149.618 35.9863 149.797 36.9499 149.797 37.998C149.797 39.0397 149.618 40.0033 149.26 40.8887C148.902 41.7676 148.404 42.526 147.766 43.1641C147.128 43.8021 146.369 44.3001 145.49 44.6582C144.611 45.0163 143.648 45.1953 142.6 45.1953C141.558 45.1953 140.594 45.0163 139.709 44.6582C138.83 44.3001 138.068 43.8021 137.424 43.1641C136.786 42.526 136.288 41.7676 135.93 40.8887C135.572 40.0033 135.393 39.0397 135.393 37.998ZM142.6 43.8184C143.452 43.8184 144.23 43.6751 144.934 43.3887C145.643 43.1022 146.252 42.7018 146.76 42.1875C147.268 41.6732 147.661 41.0612 147.941 40.3516C148.221 39.6354 148.361 38.8509 148.361 37.998C148.361 37.1452 148.221 36.3639 147.941 35.6543C147.661 34.9382 147.268 34.3229 146.76 33.8086C146.252 33.2943 145.643 32.8939 144.934 32.6074C144.23 32.321 143.452 32.1777 142.6 32.1777C141.74 32.1777 140.956 32.321 140.246 32.6074C139.543 32.8939 138.938 33.2943 138.43 33.8086C137.928 34.3229 137.538 34.9382 137.258 35.6543C136.978 36.3639 136.838 37.1452 136.838 37.998C136.838 38.8509 136.978 39.6354 137.258 40.3516C137.538 41.0612 137.928 41.6732 138.43 42.1875C138.938 42.7018 139.543 43.1022 140.246 43.3887C140.956 43.6751 141.74 43.8184 142.6 43.8184ZM139.455 35.2441C139.455 35.0944 139.484 34.9544 139.543 34.8242C139.602 34.6875 139.68 34.5703 139.777 34.4727C139.882 34.3685 139.999 34.2871 140.129 34.2285C140.266 34.1699 140.409 34.1406 140.559 34.1406H144.553C144.702 34.1406 144.842 34.1699 144.973 34.2285C145.109 34.2871 145.227 34.3685 145.324 34.4727C145.428 34.5703 145.51 34.6875 145.568 34.8242C145.627 34.9544 145.656 35.0944 145.656 35.2441V36.5039H144.299V35.498H140.812V40.498H144.299V39.502H145.656V40.7617C145.656 40.9115 145.627 41.0547 145.568 41.1914C145.51 41.3216 145.428 41.4355 145.324 41.5332C145.227 41.6309 145.109 41.709 144.973 41.7676C144.842 41.8262 144.702 41.8555 144.553 41.8555H140.559C140.409 41.8555 140.266 41.8262 140.129 41.7676C139.999 41.709 139.882 41.6309 139.777 41.5332C139.68 41.4355 139.602 41.3216 139.543 41.1914C139.484 41.0547 139.455 40.9115 139.455 40.7617V35.2441ZM160.402 32.998V34.8047H158.4V32.998C158.4 32.7246 158.452 32.4674 158.557 32.2266C158.661 31.9792 158.804 31.7676 158.986 31.5918C159.169 31.4095 159.38 31.2663 159.621 31.1621C159.868 31.0514 160.129 30.9961 160.402 30.9961H166.74C167.014 30.9961 167.271 31.0514 167.512 31.1621C167.759 31.2663 167.971 31.4095 168.146 31.5918C168.329 31.7676 168.472 31.9792 168.576 32.2266C168.687 32.4674 168.742 32.7246 168.742 32.998V35.5566C168.742 35.8301 168.716 36.0742 168.664 36.2891C168.612 36.5039 168.527 36.6992 168.41 36.875C168.299 37.0443 168.156 37.1973 167.98 37.334C167.805 37.4707 167.59 37.6009 167.336 37.7246L160.402 40.9766V42.998H166.994V41.2012H168.996V45H158.4V41.3184C158.4 41.0449 158.426 40.8008 158.479 40.5859C158.537 40.3711 158.622 40.179 158.732 40.0098C158.843 39.8405 158.986 39.6875 159.162 39.5508C159.344 39.4076 159.556 39.2773 159.797 39.1602L166.74 35.8984V32.998H160.402ZM183.41 42.998C183.41 43.2715 183.358 43.5319 183.254 43.7793C183.15 44.0202 183.007 44.2318 182.824 44.4141C182.642 44.5964 182.427 44.7396 182.18 44.8438C181.939 44.9479 181.682 45 181.408 45H174.406C174.133 45 173.872 44.9479 173.625 44.8438C173.384 44.7396 173.173 44.5964 172.99 44.4141C172.808 44.2318 172.665 44.0202 172.561 43.7793C172.456 43.5319 172.404 43.2715 172.404 42.998V32.998C172.404 32.7246 172.456 32.4674 172.561 32.2266C172.665 31.9792 172.808 31.7676 172.99 31.5918C173.173 31.4095 173.384 31.2663 173.625 31.1621C173.872 31.0514 174.133 30.9961 174.406 30.9961H181.408C181.682 30.9961 181.939 31.0514 182.18 31.1621C182.427 31.2663 182.642 31.4095 182.824 31.5918C183.007 31.7676 183.15 31.9792 183.254 32.2266C183.358 32.4674 183.41 32.7246 183.41 32.998V42.998ZM174.406 32.998V42.998H181.408V32.998H174.406ZM188.82 32.998V34.8047H186.818V32.998C186.818 32.7246 186.87 32.4674 186.975 32.2266C187.079 31.9792 187.222 31.7676 187.404 31.5918C187.587 31.4095 187.798 31.2663 188.039 31.1621C188.286 31.0514 188.547 30.9961 188.82 30.9961H195.158C195.432 30.9961 195.689 31.0514 195.93 31.1621C196.177 31.2663 196.389 31.4095 196.564 31.5918C196.747 31.7676 196.89 31.9792 196.994 32.2266C197.105 32.4674 197.16 32.7246 197.16 32.998V35.5566C197.16 35.8301 197.134 36.0742 197.082 36.2891C197.03 36.5039 196.945 36.6992 196.828 36.875C196.717 37.0443 196.574 37.1973 196.398 37.334C196.223 37.4707 196.008 37.6009 195.754 37.7246L188.82 40.9766V42.998H195.412V41.2012H197.414V45H186.818V41.3184C186.818 41.0449 186.844 40.8008 186.896 40.5859C186.955 40.3711 187.04 40.179 187.15 40.0098C187.261 39.8405 187.404 39.6875 187.58 39.5508C187.762 39.4076 187.974 39.2773 188.215 39.1602L195.158 35.8984V32.998H188.82ZM210.588 41.6016C210.568 42.7409 210.282 43.5938 209.729 44.1602C209.175 44.7201 208.329 45 207.189 45H203.43C201.158 45 200.021 43.8672 200.021 41.6016V40.7617H201.984V41.5039C201.984 42.0312 202.102 42.4186 202.336 42.666C202.57 42.9134 202.954 43.0371 203.488 43.0371H207.121C207.655 43.0371 208.039 42.9134 208.273 42.666C208.508 42.4186 208.625 42.0312 208.625 41.5039V39.6191C208.625 39.0918 208.508 38.7077 208.273 38.4668C208.039 38.2194 207.655 38.0957 207.121 38.0957H200.422V30.9961H210.227V32.998H202.424V36.1426H207.189C208.335 36.1426 209.188 36.4225 209.748 36.9824C210.308 37.5358 210.588 38.3887 210.588 39.541V41.6016ZM219.191 40.5957H221.193V42.998H226.857V30.9961H228.859V42.998C228.859 43.2715 228.804 43.5319 228.693 43.7793C228.589 44.0202 228.446 44.2318 228.264 44.4141C228.088 44.5964 227.876 44.7396 227.629 44.8438C227.388 44.9479 227.131 45 226.857 45H221.193C220.92 45 220.66 44.9479 220.412 44.8438C220.171 44.7396 219.96 44.5964 219.777 44.4141C219.602 44.2318 219.458 44.0202 219.348 43.7793C219.243 43.5319 219.191 43.2715 219.191 42.998V40.5957ZM241.262 43.0762C241.262 43.3431 241.21 43.5938 241.105 43.8281C241.008 44.0625 240.871 44.2676 240.695 44.4434C240.526 44.6126 240.324 44.7493 240.09 44.8535C239.862 44.9512 239.615 45 239.348 45H234.182C233.921 45 233.674 44.9512 233.439 44.8535C233.205 44.7493 233 44.6126 232.824 44.4434C232.655 44.2676 232.518 44.0625 232.414 43.8281C232.316 43.5938 232.268 43.3431 232.268 43.0762V36.5234C232.268 36.2565 232.316 36.0059 232.414 35.7715C232.518 35.5371 232.655 35.3353 232.824 35.166C233 34.9902 233.205 34.8535 233.439 34.7559C233.674 34.6517 233.921 34.5996 234.182 34.5996H239.348C239.615 34.5996 239.862 34.6517 240.09 34.7559C240.324 34.8535 240.526 34.9902 240.695 35.166C240.871 35.3353 241.008 35.5371 241.105 35.7715C241.21 36.0059 241.262 36.2565 241.262 36.5234V43.0762ZM234.182 36.5234V43.0762H239.348V36.5234H234.182ZM246.389 36.5234V45H244.475V34.5996H246.389V36.4355C246.402 36.1816 246.46 35.944 246.564 35.7227C246.669 35.4948 246.805 35.2995 246.975 35.1367C247.15 34.9674 247.352 34.8372 247.58 34.7461C247.808 34.6484 248.052 34.5996 248.312 34.5996H250.354C250.62 34.5996 250.868 34.6517 251.096 34.7559C251.33 34.8535 251.535 34.9902 251.711 35.166C251.887 35.3353 252.023 35.5371 252.121 35.7715C252.225 36.0059 252.277 36.2565 252.277 36.5234V38.2812H250.354V36.5234H246.389ZM254.67 36.5234C254.67 36.2565 254.719 36.0059 254.816 35.7715C254.921 35.5371 255.057 35.3353 255.227 35.166C255.402 34.9902 255.607 34.8535 255.842 34.7559C256.076 34.6517 256.324 34.5996 256.584 34.5996H260.031C260.285 34.5996 260.526 34.6484 260.754 34.7461C260.982 34.8372 261.18 34.9674 261.35 35.1367C261.525 35.2995 261.665 35.4948 261.77 35.7227C261.88 35.944 261.939 36.1816 261.945 36.4355V34.5996H263.869V47.2754C263.869 47.5423 263.817 47.793 263.713 48.0273C263.615 48.2617 263.479 48.4635 263.303 48.6328C263.133 48.8086 262.932 48.9453 262.697 49.043C262.463 49.1471 262.212 49.1992 261.945 49.1992H255.871V47.2754H261.945V44.5996H256.584C256.324 44.5996 256.076 44.5508 255.842 44.4531C255.607 44.349 255.402 44.2122 255.227 44.043C255.057 43.8672 254.921 43.6621 254.816 43.4277C254.719 43.1934 254.67 42.9427 254.67 42.6758V36.5234ZM261.945 42.6758V36.5234H256.584V42.6758H261.945ZM275.871 40.7812H268.986V43.0762H275.871V45H268.986C268.726 45 268.479 44.9512 268.244 44.8535C268.01 44.7493 267.805 44.6126 267.629 44.4434C267.46 44.2676 267.323 44.0625 267.219 43.8281C267.121 43.5938 267.072 43.3431 267.072 43.0762V36.5234C267.072 36.2565 267.121 36.0059 267.219 35.7715C267.323 35.5371 267.46 35.3353 267.629 35.166C267.805 34.9902 268.01 34.8535 268.244 34.7559C268.479 34.6517 268.726 34.5996 268.986 34.5996H273.947C274.214 34.5996 274.465 34.6517 274.699 34.7559C274.934 34.8535 275.135 34.9902 275.305 35.166C275.48 35.3353 275.617 35.5371 275.715 35.7715C275.819 36.0059 275.871 36.2565 275.871 36.5234V40.7812ZM268.986 36.5234V38.8574H273.947V36.5234H268.986ZM296.34 35.9961C296.34 37.9492 295.507 39.0625 293.84 39.3359L296.477 45H294.26L291.662 39.4043H287.277V45H285.275V30.9961H292.941C295.207 30.9961 296.34 32.1322 296.34 34.4043V35.9961ZM287.277 37.4023H292.834C293.368 37.4023 293.752 37.2852 293.986 37.0508C294.221 36.8164 294.338 36.4323 294.338 35.8984V34.502C294.338 33.9681 294.221 33.584 293.986 33.3496C293.752 33.1152 293.368 32.998 292.834 32.998H287.277V37.4023ZM299.494 40.459C299.494 40.1921 299.543 39.9447 299.641 39.7168C299.745 39.4824 299.882 39.2773 300.051 39.1016C300.227 38.9258 300.432 38.7891 300.666 38.6914C300.9 38.5872 301.148 38.5352 301.408 38.5352H306.369V36.5234H300.09V34.5996H306.369C306.636 34.5996 306.887 34.6517 307.121 34.7559C307.355 34.8535 307.557 34.9902 307.727 35.166C307.902 35.3353 308.039 35.5371 308.137 35.7715C308.241 36.0059 308.293 36.2565 308.293 36.5234V45H306.369V43.2422C306.35 43.4831 306.285 43.7109 306.174 43.9258C306.063 44.1406 305.92 44.3294 305.744 44.4922C305.575 44.6484 305.38 44.7721 305.158 44.8633C304.937 44.9544 304.702 45 304.455 45H301.408C301.148 45 300.9 44.9512 300.666 44.8535C300.432 44.7493 300.227 44.6126 300.051 44.4434C299.882 44.2676 299.745 44.0625 299.641 43.8281C299.543 43.5938 299.494 43.3431 299.494 43.0762V40.459ZM301.408 43.0762H306.369V40.459H301.408V43.0762ZM319.748 36.5234V45H317.824V36.5234H313.42V45H311.506V34.5996H313.42V36.4355C313.433 36.1816 313.492 35.944 313.596 35.7227C313.7 35.4948 313.837 35.2995 314.006 35.1367C314.182 34.9674 314.383 34.8372 314.611 34.7461C314.839 34.6484 315.083 34.5996 315.344 34.5996H317.824C318.078 34.5996 318.319 34.6484 318.547 34.7461C318.775 34.8372 318.977 34.9674 319.152 35.1367C319.328 35.2995 319.468 35.4948 319.572 35.7227C319.683 35.944 319.742 36.1816 319.748 36.4355C319.761 36.1816 319.816 35.944 319.914 35.7227C320.018 35.4948 320.155 35.2995 320.324 35.1367C320.5 34.9674 320.702 34.8372 320.93 34.7461C321.158 34.6484 321.402 34.5996 321.662 34.5996H324.143C324.41 34.5996 324.66 34.6517 324.895 34.7559C325.129 34.8535 325.331 34.9902 325.5 35.166C325.676 35.3353 325.812 35.5371 325.91 35.7715C326.014 36.0059 326.066 36.2565 326.066 36.5234V45H324.143V36.5234H319.748ZM338.273 43.0762C338.273 43.3431 338.221 43.5938 338.117 43.8281C338.02 44.0625 337.883 44.2676 337.707 44.4434C337.538 44.6126 337.336 44.7493 337.102 44.8535C336.874 44.9512 336.626 45 336.359 45H331.193C330.933 45 330.686 44.9512 330.451 44.8535C330.217 44.7493 330.012 44.6126 329.836 44.4434C329.667 44.2676 329.53 44.0625 329.426 43.8281C329.328 43.5938 329.279 43.3431 329.279 43.0762V36.5234C329.279 36.2565 329.328 36.0059 329.426 35.7715C329.53 35.5371 329.667 35.3353 329.836 35.166C330.012 34.9902 330.217 34.8535 330.451 34.7559C330.686 34.6517 330.933 34.5996 331.193 34.5996H336.359C336.626 34.5996 336.874 34.6517 337.102 34.7559C337.336 34.8535 337.538 34.9902 337.707 35.166C337.883 35.3353 338.02 35.5371 338.117 35.7715C338.221 36.0059 338.273 36.2565 338.273 36.5234V43.0762ZM331.193 36.5234V43.0762H336.359V36.5234H331.193ZM347.766 43.0762V40.6641H343.205C342.938 40.6641 342.688 40.6152 342.453 40.5176C342.219 40.4134 342.014 40.2767 341.838 40.1074C341.669 39.9316 341.532 39.7266 341.428 39.4922C341.33 39.2578 341.281 39.0072 341.281 38.7402V36.5234C341.281 36.2565 341.33 36.0059 341.428 35.7715C341.532 35.5371 341.669 35.3353 341.838 35.166C342.014 34.9902 342.219 34.8535 342.453 34.7559C342.688 34.6517 342.938 34.5996 343.205 34.5996H349.289V36.5234H343.205V38.7402H347.766C348.033 38.7402 348.28 38.7923 348.508 38.8965C348.742 38.9941 348.947 39.1309 349.123 39.3066C349.299 39.4759 349.436 39.6777 349.533 39.9121C349.637 40.1465 349.689 40.3971 349.689 40.6641V43.0762C349.689 43.3431 349.637 43.5938 349.533 43.8281C349.436 44.0625 349.299 44.2676 349.123 44.4434C348.947 44.6126 348.742 44.7493 348.508 44.8535C348.28 44.9512 348.033 45 347.766 45H341.281V43.0762H347.766ZM354.113 47.9785H352.697L354.133 45H352.697V42.0801H355.617V45L354.113 47.9785ZM376.086 35.9961C376.086 37.9492 375.253 39.0625 373.586 39.3359L376.223 45H374.006L371.408 39.4043H367.023V45H365.021V30.9961H372.688C374.953 30.9961 376.086 32.1322 376.086 34.4043V35.9961ZM367.023 37.4023H372.58C373.114 37.4023 373.498 37.2852 373.732 37.0508C373.967 36.8164 374.084 36.4323 374.084 35.8984V34.502C374.084 33.9681 373.967 33.584 373.732 33.3496C373.498 33.1152 373.114 32.998 372.58 32.998H367.023V37.4023ZM388.234 43.0762C388.234 43.3431 388.182 43.5938 388.078 43.8281C387.98 44.0625 387.844 44.2676 387.668 44.4434C387.499 44.6126 387.297 44.7493 387.062 44.8535C386.835 44.9512 386.587 45 386.32 45H381.154C380.894 45 380.646 44.9512 380.412 44.8535C380.178 44.7493 379.973 44.6126 379.797 44.4434C379.628 44.2676 379.491 44.0625 379.387 43.8281C379.289 43.5938 379.24 43.3431 379.24 43.0762V36.5234C379.24 36.2565 379.289 36.0059 379.387 35.7715C379.491 35.5371 379.628 35.3353 379.797 35.166C379.973 34.9902 380.178 34.8535 380.412 34.7559C380.646 34.6517 380.894 34.5996 381.154 34.5996H386.32C386.587 34.5996 386.835 34.6517 387.062 34.7559C387.297 34.8535 387.499 34.9902 387.668 35.166C387.844 35.3353 387.98 35.5371 388.078 35.7715C388.182 36.0059 388.234 36.2565 388.234 36.5234V43.0762ZM381.154 36.5234V43.0762H386.32V36.5234H381.154ZM391.447 36.5234C391.447 36.2565 391.496 36.0059 391.594 35.7715C391.698 35.5371 391.835 35.3353 392.004 35.166C392.18 34.9902 392.385 34.8535 392.619 34.7559C392.854 34.6517 393.101 34.5996 393.361 34.5996H396.809C397.062 34.5996 397.303 34.6484 397.531 34.7461C397.759 34.8372 397.958 34.9674 398.127 35.1367C398.303 35.2995 398.443 35.4948 398.547 35.7227C398.658 35.944 398.716 36.1816 398.723 36.4355V34.5996H400.646V47.2754C400.646 47.5423 400.594 47.793 400.49 48.0273C400.393 48.2617 400.256 48.4635 400.08 48.6328C399.911 48.8086 399.709 48.9453 399.475 49.043C399.24 49.1471 398.99 49.1992 398.723 49.1992H392.648V47.2754H398.723V44.5996H393.361C393.101 44.5996 392.854 44.5508 392.619 44.4531C392.385 44.349 392.18 44.2122 392.004 44.043C391.835 43.8672 391.698 43.6621 391.594 43.4277C391.496 43.1934 391.447 42.9427 391.447 42.6758V36.5234ZM398.723 42.6758V36.5234H393.361V42.6758H398.723ZM412.648 40.7812H405.764V43.0762H412.648V45H405.764C405.503 45 405.256 44.9512 405.021 44.8535C404.787 44.7493 404.582 44.6126 404.406 44.4434C404.237 44.2676 404.1 44.0625 403.996 43.8281C403.898 43.5938 403.85 43.3431 403.85 43.0762V36.5234C403.85 36.2565 403.898 36.0059 403.996 35.7715C404.1 35.5371 404.237 35.3353 404.406 35.166C404.582 34.9902 404.787 34.8535 405.021 34.7559C405.256 34.6517 405.503 34.5996 405.764 34.5996H410.725C410.992 34.5996 411.242 34.6517 411.477 34.7559C411.711 34.8535 411.913 34.9902 412.082 35.166C412.258 35.3353 412.395 35.5371 412.492 35.7715C412.596 36.0059 412.648 36.2565 412.648 36.5234V40.7812ZM405.764 36.5234V38.8574H410.725V36.5234H405.764ZM417.775 36.5234V45H415.861V34.5996H417.775V36.4355C417.788 36.1816 417.847 35.944 417.951 35.7227C418.055 35.4948 418.192 35.2995 418.361 35.1367C418.537 34.9674 418.739 34.8372 418.967 34.7461C419.195 34.6484 419.439 34.5996 419.699 34.5996H421.74C422.007 34.5996 422.255 34.6517 422.482 34.7559C422.717 34.8535 422.922 34.9902 423.098 35.166C423.273 35.3353 423.41 35.5371 423.508 35.7715C423.612 36.0059 423.664 36.2565 423.664 36.5234V38.2812H421.74V36.5234H417.775ZM432.248 32.998C432.248 32.7246 432.3 32.4674 432.404 32.2266C432.508 31.9792 432.652 31.7676 432.834 31.5918C433.016 31.4095 433.228 31.2663 433.469 31.1621C433.716 31.0514 433.977 30.9961 434.25 30.9961H441.848C442.121 30.9961 442.378 31.0514 442.619 31.1621C442.867 31.2663 443.081 31.4095 443.264 31.5918C443.446 31.7676 443.589 31.9792 443.693 32.2266C443.798 32.4674 443.85 32.7246 443.85 32.998V34.8047H441.848V32.998H434.25V42.998H441.848V39.5996H438.049V37.5977H443.85V42.998C443.85 43.2715 443.798 43.5319 443.693 43.7793C443.589 44.0202 443.446 44.2318 443.264 44.4141C443.081 44.5964 442.867 44.7396 442.619 44.8438C442.378 44.9479 442.121 45 441.848 45H434.25C433.977 45 433.716 44.9479 433.469 44.8438C433.228 44.7396 433.016 44.5964 432.834 44.4141C432.652 44.2318 432.508 44.0202 432.404 43.7793C432.3 43.5319 432.248 43.2715 432.248 42.998V32.998ZM447.248 34.5996H449.162V43.0762H454.523V34.5996H456.447V45H454.523V43.2422C454.504 43.4831 454.439 43.7109 454.328 43.9258C454.217 44.1406 454.074 44.3294 453.898 44.4922C453.729 44.6484 453.534 44.7721 453.312 44.8633C453.091 44.9544 452.857 45 452.609 45H449.162C448.902 45 448.654 44.9512 448.42 44.8535C448.186 44.7493 447.98 44.6126 447.805 44.4434C447.635 44.2676 447.499 44.0625 447.395 43.8281C447.297 43.5938 447.248 43.3431 447.248 43.0762V34.5996ZM461.672 34.5996V45H459.748V34.5996H461.672ZM459.65 30.5957H461.77V32.5977H459.65V30.5957ZM464.982 36.5234C464.982 36.2565 465.031 36.0059 465.129 35.7715C465.233 35.5371 465.37 35.3353 465.539 35.166C465.715 34.9902 465.92 34.8535 466.154 34.7559C466.389 34.6517 466.636 34.5996 466.896 34.5996H472.258V30.5957H474.182V45H472.258V43.2422C472.238 43.4831 472.173 43.7109 472.062 43.9258C471.952 44.1406 471.809 44.3294 471.633 44.4922C471.464 44.6484 471.268 44.7721 471.047 44.8633C470.826 44.9544 470.591 45 470.344 45H466.896C466.636 45 466.389 44.9512 466.154 44.8535C465.92 44.7493 465.715 44.6126 465.539 44.4434C465.37 44.2676 465.233 44.0625 465.129 43.8281C465.031 43.5938 464.982 43.3431 464.982 43.0762V36.5234ZM466.896 43.0762H472.258V36.5234H466.896V43.0762ZM486.379 43.0762C486.379 43.3431 486.327 43.5938 486.223 43.8281C486.125 44.0625 485.988 44.2676 485.812 44.4434C485.643 44.6126 485.441 44.7493 485.207 44.8535C484.979 44.9512 484.732 45 484.465 45H479.299C479.038 45 478.791 44.9512 478.557 44.8535C478.322 44.7493 478.117 44.6126 477.941 44.4434C477.772 44.2676 477.635 44.0625 477.531 43.8281C477.434 43.5938 477.385 43.3431 477.385 43.0762V36.5234C477.385 36.2565 477.434 36.0059 477.531 35.7715C477.635 35.5371 477.772 35.3353 477.941 35.166C478.117 34.9902 478.322 34.8535 478.557 34.7559C478.791 34.6517 479.038 34.5996 479.299 34.5996H484.465C484.732 34.5996 484.979 34.6517 485.207 34.7559C485.441 34.8535 485.643 34.9902 485.812 35.166C485.988 35.3353 486.125 35.5371 486.223 35.7715C486.327 36.0059 486.379 36.2565 486.379 36.5234V43.0762ZM479.299 36.5234V43.0762H484.465V36.5234H479.299ZM491.008 47.9785H489.592L491.027 45H489.592V42.0801H492.512V45L491.008 47.9785ZM509.143 45L503.918 34.7363V45H501.916V30.9961H504.104L509.436 41.543L514.777 30.9961H516.955V45H514.963V34.7363L509.738 45H509.143ZM520.373 40.459C520.373 40.1921 520.422 39.9447 520.52 39.7168C520.624 39.4824 520.76 39.2773 520.93 39.1016C521.105 38.9258 521.311 38.7891 521.545 38.6914C521.779 38.5872 522.027 38.5352 522.287 38.5352H527.248V36.5234H520.969V34.5996H527.248C527.515 34.5996 527.766 34.6517 528 34.7559C528.234 34.8535 528.436 34.9902 528.605 35.166C528.781 35.3353 528.918 35.5371 529.016 35.7715C529.12 36.0059 529.172 36.2565 529.172 36.5234V45H527.248V43.2422C527.229 43.4831 527.163 43.7109 527.053 43.9258C526.942 44.1406 526.799 44.3294 526.623 44.4922C526.454 44.6484 526.258 44.7721 526.037 44.8633C525.816 44.9544 525.581 45 525.334 45H522.287C522.027 45 521.779 44.9512 521.545 44.8535C521.311 44.7493 521.105 44.6126 520.93 44.4434C520.76 44.2676 520.624 44.0625 520.52 43.8281C520.422 43.5938 520.373 43.3431 520.373 43.0762V40.459ZM522.287 43.0762H527.248V40.459H522.287V43.0762ZM534.299 36.5234V45H532.385V34.5996H534.299V36.4355C534.312 36.1816 534.37 35.944 534.475 35.7227C534.579 35.4948 534.715 35.2995 534.885 35.1367C535.061 34.9674 535.262 34.8372 535.49 34.7461C535.718 34.6484 535.962 34.5996 536.223 34.5996H538.264C538.531 34.5996 538.778 34.6517 539.006 34.7559C539.24 34.8535 539.445 34.9902 539.621 35.166C539.797 35.3353 539.934 35.5371 540.031 35.7715C540.135 36.0059 540.188 36.2565 540.188 36.5234V38.2812H538.264V36.5234H534.299ZM544.494 30.5957V45H542.58V30.5957H544.494ZM556.691 43.0762C556.691 43.3431 556.639 43.5938 556.535 43.8281C556.438 44.0625 556.301 44.2676 556.125 44.4434C555.956 44.6126 555.754 44.7493 555.52 44.8535C555.292 44.9512 555.044 45 554.777 45H549.611C549.351 45 549.104 44.9512 548.869 44.8535C548.635 44.7493 548.43 44.6126 548.254 44.4434C548.085 44.2676 547.948 44.0625 547.844 43.8281C547.746 43.5938 547.697 43.3431 547.697 43.0762V36.5234C547.697 36.2565 547.746 36.0059 547.844 35.7715C547.948 35.5371 548.085 35.3353 548.254 35.166C548.43 34.9902 548.635 34.8535 548.869 34.7559C549.104 34.6517 549.351 34.5996 549.611 34.5996H554.777C555.044 34.5996 555.292 34.6517 555.52 34.7559C555.754 34.8535 555.956 34.9902 556.125 35.166C556.301 35.3353 556.438 35.5371 556.535 35.7715C556.639 36.0059 556.691 36.2565 556.691 36.5234V43.0762ZM549.611 36.5234V43.0762H554.777V36.5234H549.611ZM569.104 45H567.18V36.5234H561.818V45H559.904V34.5996H561.818V36.4355C561.831 36.1816 561.89 35.944 561.994 35.7227C562.098 35.4948 562.235 35.2995 562.404 35.1367C562.58 34.9674 562.782 34.8372 563.01 34.7461C563.238 34.6484 563.482 34.5996 563.742 34.5996H567.18C567.447 34.5996 567.697 34.6517 567.932 34.7559C568.166 34.8535 568.368 34.9902 568.537 35.166C568.713 35.3353 568.85 35.5371 568.947 35.7715C569.051 36.0059 569.104 36.2565 569.104 36.5234V45ZM587.619 37.6953C587.912 37.7865 588.179 37.9167 588.42 38.0859C588.661 38.2552 588.866 38.4733 589.035 38.7402C589.204 39.0007 589.335 39.3099 589.426 39.668C589.517 40.026 589.562 40.4362 589.562 40.8984V41.6016C589.562 43.8672 588.43 45 586.164 45H578.498V30.9961H585.764C588.029 30.9961 589.162 32.1322 589.162 34.4043V34.6582C589.162 35.446 589.035 36.0905 588.781 36.5918C588.534 37.0866 588.146 37.4544 587.619 37.6953ZM580.461 38.8965V43.0371H586.105C586.633 43.0371 587.014 42.9134 587.248 42.666C587.482 42.4186 587.6 42.0312 587.6 41.5039V40.4199C587.6 39.8861 587.482 39.4987 587.248 39.2578C587.014 39.0169 586.633 38.8965 586.105 38.8965H580.461ZM580.461 32.959V36.9434H585.842C586.324 36.9238 586.669 36.7936 586.877 36.5527C587.092 36.3053 587.199 35.9277 587.199 35.4199V34.502C587.199 33.9681 587.082 33.5775 586.848 33.3301C586.613 33.0827 586.232 32.959 585.705 32.959H580.461ZM592.365 40.459C592.365 40.1921 592.414 39.9447 592.512 39.7168C592.616 39.4824 592.753 39.2773 592.922 39.1016C593.098 38.9258 593.303 38.7891 593.537 38.6914C593.771 38.5872 594.019 38.5352 594.279 38.5352H599.24V36.5234H592.961V34.5996H599.24C599.507 34.5996 599.758 34.6517 599.992 34.7559C600.227 34.8535 600.428 34.9902 600.598 35.166C600.773 35.3353 600.91 35.5371 601.008 35.7715C601.112 36.0059 601.164 36.2565 601.164 36.5234V45H599.24V43.2422C599.221 43.4831 599.156 43.7109 599.045 43.9258C598.934 44.1406 598.791 44.3294 598.615 44.4922C598.446 44.6484 598.251 44.7721 598.029 44.8633C597.808 44.9544 597.574 45 597.326 45H594.279C594.019 45 593.771 44.9512 593.537 44.8535C593.303 44.7493 593.098 44.6126 592.922 44.4434C592.753 44.2676 592.616 44.0625 592.512 43.8281C592.414 43.5938 592.365 43.3431 592.365 43.0762V40.459ZM594.279 43.0762H599.24V40.459H594.279V43.0762ZM606.291 30.5957V45H604.377V30.5957H606.291ZM608.889 34.5996H611.428V31.3965H613.352V34.5996H616.77V36.5234H613.352V43.0762H616.77V45H613.352C613.091 45 612.844 44.9512 612.609 44.8535C612.375 44.7493 612.17 44.6126 611.994 44.4434C611.818 44.2676 611.678 44.0625 611.574 43.8281C611.477 43.5938 611.428 43.3431 611.428 43.0762V36.5234H608.889V34.5996ZM628.977 43.0762C628.977 43.3431 628.924 43.5938 628.82 43.8281C628.723 44.0625 628.586 44.2676 628.41 44.4434C628.241 44.6126 628.039 44.7493 627.805 44.8535C627.577 44.9512 627.329 45 627.062 45H621.896C621.636 45 621.389 44.9512 621.154 44.8535C620.92 44.7493 620.715 44.6126 620.539 44.4434C620.37 44.2676 620.233 44.0625 620.129 43.8281C620.031 43.5938 619.982 43.3431 619.982 43.0762V36.5234C619.982 36.2565 620.031 36.0059 620.129 35.7715C620.233 35.5371 620.37 35.3353 620.539 35.166C620.715 34.9902 620.92 34.8535 621.154 34.7559C621.389 34.6517 621.636 34.5996 621.896 34.5996H627.062C627.329 34.5996 627.577 34.6517 627.805 34.7559C628.039 34.8535 628.241 34.9902 628.41 35.166C628.586 35.3353 628.723 35.5371 628.82 35.7715C628.924 36.0059 628.977 36.2565 628.977 36.5234V43.0762ZM621.896 36.5234V43.0762H627.062V36.5234H621.896ZM632.189 36.5234C632.189 36.2565 632.238 36.0059 632.336 35.7715C632.44 35.5371 632.577 35.3353 632.746 35.166C632.922 34.9902 633.127 34.8535 633.361 34.7559C633.596 34.6517 633.843 34.5996 634.104 34.5996H639.465V30.5957H641.389V45H639.465V43.2422C639.445 43.4831 639.38 43.7109 639.27 43.9258C639.159 44.1406 639.016 44.3294 638.84 44.4922C638.671 44.6484 638.475 44.7721 638.254 44.8633C638.033 44.9544 637.798 45 637.551 45H634.104C633.843 45 633.596 44.9512 633.361 44.8535C633.127 44.7493 632.922 44.6126 632.746 44.4434C632.577 44.2676 632.44 44.0625 632.336 43.8281C632.238 43.5938 632.189 43.3431 632.189 43.0762V36.5234ZM634.104 43.0762H639.465V36.5234H634.104V43.0762ZM644.592 40.459C644.592 40.1921 644.641 39.9447 644.738 39.7168C644.842 39.4824 644.979 39.2773 645.148 39.1016C645.324 38.9258 645.529 38.7891 645.764 38.6914C645.998 38.5872 646.245 38.5352 646.506 38.5352H651.467V36.5234H645.188V34.5996H651.467C651.734 34.5996 651.984 34.6517 652.219 34.7559C652.453 34.8535 652.655 34.9902 652.824 35.166C653 35.3353 653.137 35.5371 653.234 35.7715C653.339 36.0059 653.391 36.2565 653.391 36.5234V45H651.467V43.2422C651.447 43.4831 651.382 43.7109 651.271 43.9258C651.161 44.1406 651.018 44.3294 650.842 44.4922C650.673 44.6484 650.477 44.7721 650.256 44.8633C650.035 44.9544 649.8 45 649.553 45H646.506C646.245 45 645.998 44.9512 645.764 44.8535C645.529 44.7493 645.324 44.6126 645.148 44.4434C644.979 44.2676 644.842 44.0625 644.738 43.8281C644.641 43.5938 644.592 43.3431 644.592 43.0762V40.459ZM646.506 43.0762H651.467V40.459H646.506V43.0762ZM665.803 45H663.879V36.5234H658.518V45H656.604V34.5996H658.518V36.4355C658.531 36.1816 658.589 35.944 658.693 35.7227C658.798 35.4948 658.934 35.2995 659.104 35.1367C659.279 34.9674 659.481 34.8372 659.709 34.7461C659.937 34.6484 660.181 34.5996 660.441 34.5996H663.879C664.146 34.5996 664.396 34.6517 664.631 34.7559C664.865 34.8535 665.067 34.9902 665.236 35.166C665.412 35.3353 665.549 35.5371 665.646 35.7715C665.751 36.0059 665.803 36.2565 665.803 36.5234V45ZM678 43.0762C678 43.3431 677.948 43.5938 677.844 43.8281C677.746 44.0625 677.609 44.2676 677.434 44.4434C677.264 44.6126 677.062 44.7493 676.828 44.8535C676.6 44.9512 676.353 45 676.086 45H670.92C670.66 45 670.412 44.9512 670.178 44.8535C669.943 44.7493 669.738 44.6126 669.562 44.4434C669.393 44.2676 669.257 44.0625 669.152 43.8281C669.055 43.5938 669.006 43.3431 669.006 43.0762V36.5234C669.006 36.2565 669.055 36.0059 669.152 35.7715C669.257 35.5371 669.393 35.3353 669.562 35.166C669.738 34.9902 669.943 34.8535 670.178 34.7559C670.412 34.6517 670.66 34.5996 670.92 34.5996H676.086C676.353 34.5996 676.6 34.6517 676.828 34.7559C677.062 34.8535 677.264 34.9902 677.434 35.166C677.609 35.3353 677.746 35.5371 677.844 35.7715C677.948 36.0059 678 36.2565 678 36.5234V43.0762ZM670.92 36.5234V43.0762H676.086V36.5234H670.92ZM166.76 65V50.9961H174.426C176.691 50.9961 177.824 52.1322 177.824 54.4043V56.3965C177.824 58.6686 176.691 59.8047 174.426 59.8047H168.762V65H166.76ZM168.762 57.8027H174.318C174.852 57.8027 175.236 57.6855 175.471 57.4512C175.705 57.2168 175.822 56.8327 175.822 56.2988V54.502C175.822 53.9681 175.705 53.584 175.471 53.3496C175.236 53.1152 174.852 52.998 174.318 52.998H168.762V57.8027ZM182.346 56.5234V65H180.432V54.5996H182.346V56.4355C182.359 56.1816 182.417 55.944 182.521 55.7227C182.626 55.4948 182.762 55.2995 182.932 55.1367C183.107 54.9674 183.309 54.8372 183.537 54.7461C183.765 54.6484 184.009 54.5996 184.27 54.5996H186.311C186.577 54.5996 186.825 54.6517 187.053 54.7559C187.287 54.8535 187.492 54.9902 187.668 55.166C187.844 55.3353 187.98 55.5371 188.078 55.7715C188.182 56.0059 188.234 56.2565 188.234 56.5234V58.2812H186.311V56.5234H182.346ZM199.621 63.0762C199.621 63.3431 199.569 63.5938 199.465 63.8281C199.367 64.0625 199.23 64.2676 199.055 64.4434C198.885 64.6126 198.684 64.7493 198.449 64.8535C198.221 64.9512 197.974 65 197.707 65H192.541C192.281 65 192.033 64.9512 191.799 64.8535C191.564 64.7493 191.359 64.6126 191.184 64.4434C191.014 64.2676 190.878 64.0625 190.773 63.8281C190.676 63.5938 190.627 63.3431 190.627 63.0762V56.5234C190.627 56.2565 190.676 56.0059 190.773 55.7715C190.878 55.5371 191.014 55.3353 191.184 55.166C191.359 54.9902 191.564 54.8535 191.799 54.7559C192.033 54.6517 192.281 54.5996 192.541 54.5996H197.707C197.974 54.5996 198.221 54.6517 198.449 54.7559C198.684 54.8535 198.885 54.9902 199.055 55.166C199.23 55.3353 199.367 55.5371 199.465 55.7715C199.569 56.0059 199.621 56.2565 199.621 56.5234V63.0762ZM192.541 56.5234V63.0762H197.707V56.5234H192.541ZM203.537 69.1992L205.715 64.0625L201.633 54.5996H203.654L206.691 61.7578L209.729 54.5996H211.75L205.451 69.1992H203.537ZM222.551 60.7812H215.666V63.0762H222.551V65H215.666C215.406 65 215.158 64.9512 214.924 64.8535C214.689 64.7493 214.484 64.6126 214.309 64.4434C214.139 64.2676 214.003 64.0625 213.898 63.8281C213.801 63.5938 213.752 63.3431 213.752 63.0762V56.5234C213.752 56.2565 213.801 56.0059 213.898 55.7715C214.003 55.5371 214.139 55.3353 214.309 55.166C214.484 54.9902 214.689 54.8535 214.924 54.7559C215.158 54.6517 215.406 54.5996 215.666 54.5996H220.627C220.894 54.5996 221.145 54.6517 221.379 54.7559C221.613 54.8535 221.815 54.9902 221.984 55.166C222.16 55.3353 222.297 55.5371 222.395 55.7715C222.499 56.0059 222.551 56.2565 222.551 56.5234V60.7812ZM215.666 56.5234V58.8574H220.627V56.5234H215.666ZM227.678 56.5234V63.0762H232.639V61.3184H234.562V63.0762C234.562 63.3431 234.51 63.5938 234.406 63.8281C234.309 64.0625 234.172 64.2676 233.996 64.4434C233.827 64.6126 233.625 64.7493 233.391 64.8535C233.156 64.9512 232.906 65 232.639 65H227.678C227.417 65 227.17 64.9512 226.936 64.8535C226.701 64.7493 226.496 64.6126 226.32 64.4434C226.151 64.2676 226.014 64.0625 225.91 63.8281C225.812 63.5938 225.764 63.3431 225.764 63.0762V56.5234C225.764 56.2565 225.812 56.0059 225.91 55.7715C226.014 55.5371 226.151 55.3353 226.32 55.166C226.496 54.9902 226.701 54.8535 226.936 54.7559C227.17 54.6517 227.417 54.5996 227.678 54.5996H232.639C232.906 54.5996 233.156 54.6517 233.391 54.7559C233.625 54.8535 233.827 54.9902 233.996 55.166C234.172 55.3353 234.309 55.5371 234.406 55.7715C234.51 56.0059 234.562 56.2565 234.562 56.5234V58.2812H232.639V56.5234H227.678ZM237.17 54.5996H239.709V51.3965H241.633V54.5996H245.051V56.5234H241.633V63.0762H245.051V65H241.633C241.372 65 241.125 64.9512 240.891 64.8535C240.656 64.7493 240.451 64.6126 240.275 64.4434C240.1 64.2676 239.96 64.0625 239.855 63.8281C239.758 63.5938 239.709 63.3431 239.709 63.0762V56.5234H237.17V54.5996ZM257.258 63.0762C257.258 63.3431 257.206 63.5938 257.102 63.8281C257.004 64.0625 256.867 64.2676 256.691 64.4434C256.522 64.6126 256.32 64.7493 256.086 64.8535C255.858 64.9512 255.611 65 255.344 65H250.178C249.917 65 249.67 64.9512 249.436 64.8535C249.201 64.7493 248.996 64.6126 248.82 64.4434C248.651 64.2676 248.514 64.0625 248.41 63.8281C248.312 63.5938 248.264 63.3431 248.264 63.0762V56.5234C248.264 56.2565 248.312 56.0059 248.41 55.7715C248.514 55.5371 248.651 55.3353 248.82 55.166C248.996 54.9902 249.201 54.8535 249.436 54.7559C249.67 54.6517 249.917 54.5996 250.178 54.5996H255.344C255.611 54.5996 255.858 54.6517 256.086 54.7559C256.32 54.8535 256.522 54.9902 256.691 55.166C256.867 55.3353 257.004 55.5371 257.102 55.7715C257.206 56.0059 257.258 56.2565 257.258 56.5234V63.0762ZM250.178 56.5234V63.0762H255.344V56.5234H250.178ZM266.467 56.5234C266.467 56.2565 266.516 56.0059 266.613 55.7715C266.717 55.5371 266.854 55.3353 267.023 55.166C267.199 54.9902 267.404 54.8535 267.639 54.7559C267.873 54.6517 268.12 54.5996 268.381 54.5996H273.742V50.5957H275.666V65H273.742V63.2422C273.723 63.4831 273.658 63.7109 273.547 63.9258C273.436 64.1406 273.293 64.3294 273.117 64.4922C272.948 64.6484 272.753 64.7721 272.531 64.8633C272.31 64.9544 272.076 65 271.828 65H268.381C268.12 65 267.873 64.9512 267.639 64.8535C267.404 64.7493 267.199 64.6126 267.023 64.4434C266.854 64.2676 266.717 64.0625 266.613 63.8281C266.516 63.5938 266.467 63.3431 266.467 63.0762V56.5234ZM268.381 63.0762H273.742V56.5234H268.381V63.0762ZM287.668 60.7812H280.783V63.0762H287.668V65H280.783C280.523 65 280.275 64.9512 280.041 64.8535C279.807 64.7493 279.602 64.6126 279.426 64.4434C279.257 64.2676 279.12 64.0625 279.016 63.8281C278.918 63.5938 278.869 63.3431 278.869 63.0762V56.5234C278.869 56.2565 278.918 56.0059 279.016 55.7715C279.12 55.5371 279.257 55.3353 279.426 55.166C279.602 54.9902 279.807 54.8535 280.041 54.7559C280.275 54.6517 280.523 54.5996 280.783 54.5996H285.744C286.011 54.5996 286.262 54.6517 286.496 54.7559C286.73 54.8535 286.932 54.9902 287.102 55.166C287.277 55.3353 287.414 55.5371 287.512 55.7715C287.616 56.0059 287.668 56.2565 287.668 56.5234V60.7812ZM280.783 56.5234V58.8574H285.744V56.5234H280.783ZM296.877 56.5234C296.877 56.2565 296.926 56.0059 297.023 55.7715C297.128 55.5371 297.264 55.3353 297.434 55.166C297.609 54.9902 297.814 54.8535 298.049 54.7559C298.283 54.6517 298.531 54.5996 298.791 54.5996H302.238C302.492 54.5996 302.733 54.6484 302.961 54.7461C303.189 54.8372 303.387 54.9674 303.557 55.1367C303.732 55.2995 303.872 55.4948 303.977 55.7227C304.087 55.944 304.146 56.1816 304.152 56.4355V54.5996H306.076V67.2754C306.076 67.5423 306.024 67.793 305.92 68.0273C305.822 68.2617 305.686 68.4635 305.51 68.6328C305.34 68.8086 305.139 68.9453 304.904 69.043C304.67 69.1471 304.419 69.1992 304.152 69.1992H298.078V67.2754H304.152V64.5996H298.791C298.531 64.5996 298.283 64.5508 298.049 64.4531C297.814 64.349 297.609 64.2122 297.434 64.043C297.264 63.8672 297.128 63.6621 297.023 63.4277C296.926 63.1934 296.877 62.9427 296.877 62.6758V56.5234ZM304.152 62.6758V56.5234H298.791V62.6758H304.152ZM311.193 56.5234V65H309.279V54.5996H311.193V56.4355C311.206 56.1816 311.265 55.944 311.369 55.7227C311.473 55.4948 311.61 55.2995 311.779 55.1367C311.955 54.9674 312.157 54.8372 312.385 54.7461C312.613 54.6484 312.857 54.5996 313.117 54.5996H315.158C315.425 54.5996 315.673 54.6517 315.9 54.7559C316.135 54.8535 316.34 54.9902 316.516 55.166C316.691 55.3353 316.828 55.5371 316.926 55.7715C317.03 56.0059 317.082 56.2565 317.082 56.5234V58.2812H315.158V56.5234H311.193ZM319.475 60.459C319.475 60.1921 319.523 59.9447 319.621 59.7168C319.725 59.4824 319.862 59.2773 320.031 59.1016C320.207 58.9258 320.412 58.7891 320.646 58.6914C320.881 58.5872 321.128 58.5352 321.389 58.5352H326.35V56.5234H320.07V54.5996H326.35C326.617 54.5996 326.867 54.6517 327.102 54.7559C327.336 54.8535 327.538 54.9902 327.707 55.166C327.883 55.3353 328.02 55.5371 328.117 55.7715C328.221 56.0059 328.273 56.2565 328.273 56.5234V65H326.35V63.2422C326.33 63.4831 326.265 63.7109 326.154 63.9258C326.044 64.1406 325.9 64.3294 325.725 64.4922C325.555 64.6484 325.36 64.7721 325.139 64.8633C324.917 64.9544 324.683 65 324.436 65H321.389C321.128 65 320.881 64.9512 320.646 64.8535C320.412 64.7493 320.207 64.6126 320.031 64.4434C319.862 64.2676 319.725 64.0625 319.621 63.8281C319.523 63.5938 319.475 63.3431 319.475 63.0762V60.459ZM321.389 63.0762H326.35V60.459H321.389V63.0762ZM331.486 56.5234C331.486 56.2565 331.535 56.0059 331.633 55.7715C331.737 55.5371 331.874 55.3353 332.043 55.166C332.219 54.9902 332.424 54.8535 332.658 54.7559C332.893 54.6517 333.14 54.5996 333.4 54.5996H338.762V50.5957H340.686V65H338.762V63.2422C338.742 63.4831 338.677 63.7109 338.566 63.9258C338.456 64.1406 338.312 64.3294 338.137 64.4922C337.967 64.6484 337.772 64.7721 337.551 64.8633C337.329 64.9544 337.095 65 336.848 65H333.4C333.14 65 332.893 64.9512 332.658 64.8535C332.424 64.7493 332.219 64.6126 332.043 64.4434C331.874 64.2676 331.737 64.0625 331.633 63.8281C331.535 63.5938 331.486 63.3431 331.486 63.0762V56.5234ZM333.4 63.0762H338.762V56.5234H333.4V63.0762ZM343.889 54.5996H345.803V63.0762H351.164V54.5996H353.088V65H351.164V63.2422C351.145 63.4831 351.079 63.7109 350.969 63.9258C350.858 64.1406 350.715 64.3294 350.539 64.4922C350.37 64.6484 350.174 64.7721 349.953 64.8633C349.732 64.9544 349.497 65 349.25 65H345.803C345.542 65 345.295 64.9512 345.061 64.8535C344.826 64.7493 344.621 64.6126 344.445 64.4434C344.276 64.2676 344.139 64.0625 344.035 63.8281C343.938 63.5938 343.889 63.3431 343.889 63.0762V54.5996ZM356.291 60.459C356.291 60.1921 356.34 59.9447 356.438 59.7168C356.542 59.4824 356.678 59.2773 356.848 59.1016C357.023 58.9258 357.229 58.7891 357.463 58.6914C357.697 58.5872 357.945 58.5352 358.205 58.5352H363.166V56.5234H356.887V54.5996H363.166C363.433 54.5996 363.684 54.6517 363.918 54.7559C364.152 54.8535 364.354 54.9902 364.523 55.166C364.699 55.3353 364.836 55.5371 364.934 55.7715C365.038 56.0059 365.09 56.2565 365.09 56.5234V65H363.166V63.2422C363.146 63.4831 363.081 63.7109 362.971 63.9258C362.86 64.1406 362.717 64.3294 362.541 64.4922C362.372 64.6484 362.176 64.7721 361.955 64.8633C361.734 64.9544 361.499 65 361.252 65H358.205C357.945 65 357.697 64.9512 357.463 64.8535C357.229 64.7493 357.023 64.6126 356.848 64.4434C356.678 64.2676 356.542 64.0625 356.438 63.8281C356.34 63.5938 356.291 63.3431 356.291 63.0762V60.459ZM358.205 63.0762H363.166V60.459H358.205V63.0762ZM370.217 56.5234V63.0762H375.178V61.3184H377.102V63.0762C377.102 63.3431 377.049 63.5938 376.945 63.8281C376.848 64.0625 376.711 64.2676 376.535 64.4434C376.366 64.6126 376.164 64.7493 375.93 64.8535C375.695 64.9512 375.445 65 375.178 65H370.217C369.956 65 369.709 64.9512 369.475 64.8535C369.24 64.7493 369.035 64.6126 368.859 64.4434C368.69 64.2676 368.553 64.0625 368.449 63.8281C368.352 63.5938 368.303 63.3431 368.303 63.0762V56.5234C368.303 56.2565 368.352 56.0059 368.449 55.7715C368.553 55.5371 368.69 55.3353 368.859 55.166C369.035 54.9902 369.24 54.8535 369.475 54.7559C369.709 54.6517 369.956 54.5996 370.217 54.5996H375.178C375.445 54.5996 375.695 54.6517 375.93 54.7559C376.164 54.8535 376.366 54.9902 376.535 55.166C376.711 55.3353 376.848 55.5371 376.945 55.7715C377.049 56.0059 377.102 56.2565 377.102 56.5234V58.2812H375.178V56.5234H370.217ZM382.336 54.5996V65H380.412V54.5996H382.336ZM380.314 50.5957H382.434V52.5977H380.314V50.5957ZM394.641 63.0762C394.641 63.3431 394.589 63.5938 394.484 63.8281C394.387 64.0625 394.25 64.2676 394.074 64.4434C393.905 64.6126 393.703 64.7493 393.469 64.8535C393.241 64.9512 392.993 65 392.727 65H387.561C387.3 65 387.053 64.9512 386.818 64.8535C386.584 64.7493 386.379 64.6126 386.203 64.4434C386.034 64.2676 385.897 64.0625 385.793 63.8281C385.695 63.5938 385.646 63.3431 385.646 63.0762V56.5234C385.646 56.2565 385.695 56.0059 385.793 55.7715C385.897 55.5371 386.034 55.3353 386.203 55.166C386.379 54.9902 386.584 54.8535 386.818 54.7559C387.053 54.6517 387.3 54.5996 387.561 54.5996H392.727C392.993 54.5996 393.241 54.6517 393.469 54.7559C393.703 54.8535 393.905 54.9902 394.074 55.166C394.25 55.3353 394.387 55.5371 394.484 55.7715C394.589 56.0059 394.641 56.2565 394.641 56.5234V63.0762ZM387.561 56.5234V63.0762H392.727V56.5234H387.561ZM390.588 50.5957H393.508L390.207 52.8027H388.361L390.588 50.5957ZM407.053 65H405.129V56.5234H399.768V65H397.854V54.5996H399.768V56.4355C399.781 56.1816 399.839 55.944 399.943 55.7227C400.048 55.4948 400.184 55.2995 400.354 55.1367C400.529 54.9674 400.731 54.8372 400.959 54.7461C401.187 54.6484 401.431 54.5996 401.691 54.5996H405.129C405.396 54.5996 405.646 54.6517 405.881 54.7559C406.115 54.8535 406.317 54.9902 406.486 55.166C406.662 55.3353 406.799 55.5371 406.896 55.7715C407.001 56.0059 407.053 56.2565 407.053 56.5234V65ZM416.252 58.3984H420.93V60.3223H416.252V58.3984ZM430.334 50.9961H432.336V62.998H440.334V50.9961H442.336V62.998C442.336 63.2715 442.284 63.5319 442.18 63.7793C442.076 64.0202 441.932 64.2318 441.75 64.4141C441.568 64.5964 441.353 64.7396 441.105 64.8438C440.865 64.9479 440.607 65 440.334 65H432.336C432.062 65 431.802 64.9479 431.555 64.8438C431.314 64.7396 431.102 64.5964 430.92 64.4141C430.738 64.2318 430.594 64.0202 430.49 63.7793C430.386 63.5319 430.334 63.2715 430.334 62.998V50.9961ZM447.941 50.9961V62.998H455.139V65H445.939V50.9961H447.941ZM459.543 59.0039C459.27 59.0039 459.009 58.9518 458.762 58.8477C458.521 58.737 458.309 58.5938 458.127 58.418C457.945 58.2357 457.801 58.0241 457.697 57.7832C457.593 57.5358 457.541 57.2754 457.541 57.002V52.998C457.541 52.7246 457.593 52.4674 457.697 52.2266C457.801 51.9792 457.945 51.7676 458.127 51.5918C458.309 51.4095 458.521 51.2663 458.762 51.1621C459.009 51.0514 459.27 50.9961 459.543 50.9961H466.34C466.613 50.9961 466.87 51.0514 467.111 51.1621C467.359 51.2663 467.574 51.4095 467.756 51.5918C467.938 51.7676 468.081 51.9792 468.186 52.2266C468.29 52.4674 468.342 52.7246 468.342 52.998V54.8047H466.34V52.998H459.543V57.002H466.34C466.613 57.002 466.87 57.054 467.111 57.1582C467.359 57.2624 467.574 57.4056 467.756 57.5879C467.938 57.7702 468.081 57.985 468.186 58.2324C468.29 58.4733 468.342 58.7305 468.342 59.0039V62.998C468.342 63.2715 468.29 63.5319 468.186 63.7793C468.081 64.0202 467.938 64.2318 467.756 64.4141C467.574 64.5964 467.359 64.7396 467.111 64.8438C466.87 64.9479 466.613 65 466.34 65H459.348C459.074 65 458.814 64.9479 458.566 64.8438C458.326 64.7396 458.114 64.5964 457.932 64.4141C457.749 64.2318 457.606 64.0202 457.502 63.7793C457.398 63.5319 457.346 63.2715 457.346 62.998V61.2012H459.348V62.998H466.34V59.0039H459.543ZM478.156 50.9961L483.557 65H481.555L480.314 61.7773H473.996L472.756 65H470.754L476.154 50.9961H478.156ZM474.758 59.7754H479.543L477.16 53.6035L474.758 59.7754ZM493.957 50.9961V62.998H501.154V65H491.955V50.9961H493.957ZM512.16 60.7812H505.275V63.0762H512.16V65H505.275C505.015 65 504.768 64.9512 504.533 64.8535C504.299 64.7493 504.094 64.6126 503.918 64.4434C503.749 64.2676 503.612 64.0625 503.508 63.8281C503.41 63.5938 503.361 63.3431 503.361 63.0762V56.5234C503.361 56.2565 503.41 56.0059 503.508 55.7715C503.612 55.5371 503.749 55.3353 503.918 55.166C504.094 54.9902 504.299 54.8535 504.533 54.7559C504.768 54.6517 505.015 54.5996 505.275 54.5996H510.236C510.503 54.5996 510.754 54.6517 510.988 54.7559C511.223 54.8535 511.424 54.9902 511.594 55.166C511.77 55.3353 511.906 55.5371 512.004 55.7715C512.108 56.0059 512.16 56.2565 512.16 56.5234V60.7812ZM505.275 56.5234V58.8574H510.236V56.5234H505.275ZM524.367 63.0762C524.367 63.3431 524.315 63.5938 524.211 63.8281C524.113 64.0625 523.977 64.2676 523.801 64.4434C523.632 64.6126 523.43 64.7493 523.195 64.8535C522.967 64.9512 522.72 65 522.453 65H517.287C517.027 65 516.779 64.9512 516.545 64.8535C516.311 64.7493 516.105 64.6126 515.93 64.4434C515.76 64.2676 515.624 64.0625 515.52 63.8281C515.422 63.5938 515.373 63.3431 515.373 63.0762V56.5234C515.373 56.2565 515.422 56.0059 515.52 55.7715C515.624 55.5371 515.76 55.3353 515.93 55.166C516.105 54.9902 516.311 54.8535 516.545 54.7559C516.779 54.6517 517.027 54.5996 517.287 54.5996H522.453C522.72 54.5996 522.967 54.6517 523.195 54.7559C523.43 54.8535 523.632 54.9902 523.801 55.166C523.977 55.3353 524.113 55.5371 524.211 55.7715C524.315 56.0059 524.367 56.2565 524.367 56.5234V63.0762ZM517.287 56.5234V63.0762H522.453V56.5234H517.287ZM520.314 50.5957H523.234L519.934 52.8027H518.088L520.314 50.5957ZM536.779 65H534.855V56.5234H529.494V65H527.58V54.5996H529.494V56.4355C529.507 56.1816 529.566 55.944 529.67 55.7227C529.774 55.4948 529.911 55.2995 530.08 55.1367C530.256 54.9674 530.458 54.8372 530.686 54.7461C530.913 54.6484 531.158 54.5996 531.418 54.5996H534.855C535.122 54.5996 535.373 54.6517 535.607 54.7559C535.842 54.8535 536.044 54.9902 536.213 55.166C536.389 55.3353 536.525 55.5371 536.623 55.7715C536.727 56.0059 536.779 56.2565 536.779 56.5234V65ZM541.398 67.9785H539.982L541.418 65H539.982V62.0801H542.902V65L541.398 67.9785ZM554.309 65H552.307V50.9961H554.309L562.727 61.8555V50.9961H564.729V65H562.727L554.309 54.1406V65ZM570.148 54.5996V65H568.225V54.5996H570.148ZM568.127 50.5957H570.246V52.5977H568.127V50.5957ZM575.373 56.5234V63.0762H580.334V61.3184H582.258V63.0762C582.258 63.3431 582.206 63.5938 582.102 63.8281C582.004 64.0625 581.867 64.2676 581.691 64.4434C581.522 64.6126 581.32 64.7493 581.086 64.8535C580.852 64.9512 580.601 65 580.334 65H575.373C575.113 65 574.865 64.9512 574.631 64.8535C574.396 64.7493 574.191 64.6126 574.016 64.4434C573.846 64.2676 573.71 64.0625 573.605 63.8281C573.508 63.5938 573.459 63.3431 573.459 63.0762V56.5234C573.459 56.2565 573.508 56.0059 573.605 55.7715C573.71 55.5371 573.846 55.3353 574.016 55.166C574.191 54.9902 574.396 54.8535 574.631 54.7559C574.865 54.6517 575.113 54.5996 575.373 54.5996H580.334C580.601 54.5996 580.852 54.6517 581.086 54.7559C581.32 54.8535 581.522 54.9902 581.691 55.166C581.867 55.3353 582.004 55.5371 582.102 55.7715C582.206 56.0059 582.258 56.2565 582.258 56.5234V58.2812H580.334V56.5234H575.373ZM585.471 60.459C585.471 60.1921 585.52 59.9447 585.617 59.7168C585.721 59.4824 585.858 59.2773 586.027 59.1016C586.203 58.9258 586.408 58.7891 586.643 58.6914C586.877 58.5872 587.124 58.5352 587.385 58.5352H592.346V56.5234H586.066V54.5996H592.346C592.613 54.5996 592.863 54.6517 593.098 54.7559C593.332 54.8535 593.534 54.9902 593.703 55.166C593.879 55.3353 594.016 55.5371 594.113 55.7715C594.217 56.0059 594.27 56.2565 594.27 56.5234V65H592.346V63.2422C592.326 63.4831 592.261 63.7109 592.15 63.9258C592.04 64.1406 591.896 64.3294 591.721 64.4922C591.551 64.6484 591.356 64.7721 591.135 64.8633C590.913 64.9544 590.679 65 590.432 65H587.385C587.124 65 586.877 64.9512 586.643 64.8535C586.408 64.7493 586.203 64.6126 586.027 64.4434C585.858 64.2676 585.721 64.0625 585.617 63.8281C585.52 63.5938 585.471 63.3431 585.471 63.0762V60.459ZM587.385 63.0762H592.346V60.459H587.385V63.0762ZM599.396 56.5234V65H597.482V54.5996H599.396V56.4355C599.41 56.1816 599.468 55.944 599.572 55.7227C599.676 55.4948 599.813 55.2995 599.982 55.1367C600.158 54.9674 600.36 54.8372 600.588 54.7461C600.816 54.6484 601.06 54.5996 601.32 54.5996H603.361C603.628 54.5996 603.876 54.6517 604.104 54.7559C604.338 54.8535 604.543 54.9902 604.719 55.166C604.895 55.3353 605.031 55.5371 605.129 55.7715C605.233 56.0059 605.285 56.2565 605.285 56.5234V58.2812H603.361V56.5234H599.396ZM607.678 60.459C607.678 60.1921 607.727 59.9447 607.824 59.7168C607.928 59.4824 608.065 59.2773 608.234 59.1016C608.41 58.9258 608.615 58.7891 608.85 58.6914C609.084 58.5872 609.331 58.5352 609.592 58.5352H614.553V56.5234H608.273V54.5996H614.553C614.82 54.5996 615.07 54.6517 615.305 54.7559C615.539 54.8535 615.741 54.9902 615.91 55.166C616.086 55.3353 616.223 55.5371 616.32 55.7715C616.424 56.0059 616.477 56.2565 616.477 56.5234V65H614.553V63.2422C614.533 63.4831 614.468 63.7109 614.357 63.9258C614.247 64.1406 614.104 64.3294 613.928 64.4922C613.758 64.6484 613.563 64.7721 613.342 64.8633C613.12 64.9544 612.886 65 612.639 65H609.592C609.331 65 609.084 64.9512 608.85 64.8535C608.615 64.7493 608.41 64.6126 608.234 64.4434C608.065 64.2676 607.928 64.0625 607.824 63.8281C607.727 63.5938 607.678 63.3431 607.678 63.0762V60.459ZM609.592 63.0762H614.553V60.459H609.592V63.0762ZM619.689 56.5234C619.689 56.2565 619.738 56.0059 619.836 55.7715C619.94 55.5371 620.077 55.3353 620.246 55.166C620.422 54.9902 620.627 54.8535 620.861 54.7559C621.096 54.6517 621.343 54.5996 621.604 54.5996H625.051C625.305 54.5996 625.546 54.6484 625.773 54.7461C626.001 54.8372 626.2 54.9674 626.369 55.1367C626.545 55.2995 626.685 55.4948 626.789 55.7227C626.9 55.944 626.958 56.1816 626.965 56.4355V54.5996H628.889V67.2754C628.889 67.5423 628.837 67.793 628.732 68.0273C628.635 68.2617 628.498 68.4635 628.322 68.6328C628.153 68.8086 627.951 68.9453 627.717 69.043C627.482 69.1471 627.232 69.1992 626.965 69.1992H620.891V67.2754H626.965V64.5996H621.604C621.343 64.5996 621.096 64.5508 620.861 64.4531C620.627 64.349 620.422 64.2122 620.246 64.043C620.077 63.8672 619.94 63.6621 619.836 63.4277C619.738 63.1934 619.689 62.9427 619.689 62.6758V56.5234ZM626.965 62.6758V56.5234H621.604V62.6758H626.965ZM632.092 54.5996H634.006V63.0762H639.367V54.5996H641.291V65H639.367V63.2422C639.348 63.4831 639.283 63.7109 639.172 63.9258C639.061 64.1406 638.918 64.3294 638.742 64.4922C638.573 64.6484 638.378 64.7721 638.156 64.8633C637.935 64.9544 637.701 65 637.453 65H634.006C633.745 65 633.498 64.9512 633.264 64.8535C633.029 64.7493 632.824 64.6126 632.648 64.4434C632.479 64.2676 632.342 64.0625 632.238 63.8281C632.141 63.5938 632.092 63.3431 632.092 63.0762V54.5996ZM644.494 60.459C644.494 60.1921 644.543 59.9447 644.641 59.7168C644.745 59.4824 644.882 59.2773 645.051 59.1016C645.227 58.9258 645.432 58.7891 645.666 58.6914C645.9 58.5872 646.148 58.5352 646.408 58.5352H651.369V56.5234H645.09V54.5996H651.369C651.636 54.5996 651.887 54.6517 652.121 54.7559C652.355 54.8535 652.557 54.9902 652.727 55.166C652.902 55.3353 653.039 55.5371 653.137 55.7715C653.241 56.0059 653.293 56.2565 653.293 56.5234V65H651.369V63.2422C651.35 63.4831 651.285 63.7109 651.174 63.9258C651.063 64.1406 650.92 64.3294 650.744 64.4922C650.575 64.6484 650.38 64.7721 650.158 64.8633C649.937 64.9544 649.702 65 649.455 65H646.408C646.148 65 645.9 64.9512 645.666 64.8535C645.432 64.7493 645.227 64.6126 645.051 64.4434C644.882 64.2676 644.745 64.0625 644.641 63.8281C644.543 63.5938 644.494 63.3431 644.494 63.0762V60.459ZM646.408 63.0762H651.369V60.459H646.408V63.0762ZM656.506 62.0801H659.426V65H656.506V62.0801Z" fill="white"/>
</svg>
