<svg width="100" height="100" viewBox="0 0 100 100" fill="none" xmlns="http://www.w3.org/2000/svg">
<path d="M16.9402 8.61032L38.5142 1.98003C41.82 0.96409 45.1679 3.44372 45.9922 7.51844L51.3746 34.1281L29.8006 40.7584C26.4949 41.7744 23.1469 39.2947 22.3227 35.22L16.9402 8.61032Z" fill="#28A745"/>
<path d="M0.0415253 20.1382C-0.143736 19.2223 0.308267 18.2939 1.05131 18.0655C1.79436 17.8372 2.54706 18.3954 2.73232 19.3113C2.91759 20.2272 2.46558 21.1556 1.72254 21.3839C0.979495 21.6123 0.226787 21.0541 0.0415253 20.1382Z" fill="#208637"/>
<path d="M15.6313 44.6189C15.3533 43.2443 16.0319 41.8522 17.147 41.5095L17.2944 41.4642C18.4096 41.1215 19.5389 41.958 19.817 43.3325C20.095 44.707 19.4164 46.0991 18.3013 46.4418L18.1538 46.4871C17.0387 46.8298 15.9093 45.9934 15.6313 44.6189Z" fill="#343A40"/>
<path d="M9.41327 5.85916C8.82174 5.10379 8.83878 3.9001 9.45134 3.17064L11.6657 0.533649C12.2783 -0.195813 13.2544 -0.174812 13.8459 0.580556L15.9853 3.31257C16.5769 4.06793 16.5598 5.27163 15.9473 6.00109L13.7329 8.63808C13.1203 9.36754 12.1442 9.34654 11.5527 8.59117L9.41327 5.85916Z" fill="#343A40"/>
<path d="M1.93786 47.0019C1.64209 46.6243 1.65061 46.0224 1.95689 45.6577L2.89075 44.5456C3.19703 44.1809 3.68508 44.1914 3.98084 44.569L4.88314 45.7213C5.1789 46.0989 5.17038 46.7008 4.8641 47.0655L3.93024 48.1776C3.62397 48.5423 3.13592 48.5318 2.84015 48.1541L1.93786 47.0019Z" fill="#28A745"/>
<path d="M62.6293 30.6347C62.8077 26.441 65.7103 23.2195 69.1125 23.4392L91.1941 24.8657L90.0326 52.1853C89.8543 56.3791 86.9517 59.6006 83.5494 59.3808L61.4678 57.9543L62.6293 30.6347Z" fill="#343A40"/>
<path d="M86.2639 17.7506C86.071 17.2826 86.2221 16.7095 86.6013 16.4706L87.9619 15.6134C88.3411 15.3745 88.8048 15.5603 88.9977 16.0283L89.6917 17.7125C89.8846 18.1805 89.7335 18.7536 89.3543 18.9925L87.9937 19.8497C87.6145 20.0886 87.1507 19.9029 86.9579 19.4348L86.2639 17.7506Z" fill="#28A745"/>
<path d="M62.7281 15.0768C62.7835 13.7732 63.686 12.765 64.7436 12.8333C65.8011 12.9016 66.6132 14.0206 66.5578 15.3242C66.5024 16.6278 65.5999 17.636 64.5423 17.5677C63.4847 17.4994 62.6726 16.3804 62.7281 15.0768Z" fill="#343A40"/>
<path d="M55.9234 34.0965C55.5376 33.1605 55.8398 32.0144 56.5982 31.5366L57.9525 30.6833C58.7109 30.2055 59.6384 30.577 60.0241 31.513L60.716 33.1919C61.1017 34.1279 60.7996 35.2741 60.0412 35.7519L58.6868 36.6051C57.9284 37.0829 57.0009 36.7115 56.6152 35.7754L55.9234 34.0965Z" fill="#208637"/>
<path d="M15.3506 57.3406C15.113 53.1513 17.6755 49.5178 21.0741 49.2249L43.23 47.3152L44.782 74.6718C45.0196 78.8611 42.4572 82.4946 39.0585 82.7875L16.9026 84.6972L15.3506 57.3406Z" fill="#343A40"/>
<path d="M24.6577 96.014C24.1819 95.1433 24.3683 93.9611 25.0741 93.3735L27.6224 91.2522C28.3283 90.6646 29.2862 90.8941 29.7621 91.7649L31.4824 94.9126C31.9583 95.7833 31.7719 96.9655 31.066 97.5531L28.5178 99.6744C27.8119 100.262 26.8539 100.032 26.3781 99.1618L24.6577 96.014Z" fill="#343A40"/>
<path d="M45.2975 81.1869C45.2441 80.2461 45.8194 79.4278 46.5827 79.362C47.346 79.2962 48.0081 80.0078 48.0615 80.9487C48.1149 81.8895 47.5395 82.7078 46.7762 82.7736C46.013 82.8394 45.3508 82.1277 45.2975 81.1869Z" fill="#28A745"/>
<path d="M9.82695 77.5751C9.77358 76.6343 10.3489 75.816 11.1122 75.7502C11.8755 75.6844 12.5376 76.396 12.591 77.3369C12.6444 78.2777 12.069 79.096 11.3057 79.1618C10.5425 79.2276 9.88033 78.5159 9.82695 77.5751Z" fill="#208637"/>
<path d="M49.6731 63.2749H71.8498C75.2567 63.2749 78.0185 66.6792 78.0185 70.8787V98.1671H55.8418C52.4349 98.1671 49.6731 94.7628 49.6731 90.5633V63.2749Z" fill="#208637"/>
<path d="M79.5917 83.0373C79.5917 82.0965 80.2122 81.3339 80.9754 81.3339C81.7386 81.3339 82.3592 82.0965 82.3592 83.0373C82.3592 83.978 81.7386 84.7406 80.9754 84.7406C80.2122 84.7406 79.5917 83.978 79.5917 83.0373Z" fill="#343A40"/>
<path d="M73.4229 61.6512C73.4229 60.6581 74.0779 59.8532 74.8835 59.8532C75.6891 59.8532 76.3442 60.6581 76.3442 61.6512C76.3442 62.6442 75.6891 63.4492 74.8835 63.4492C74.0779 63.4492 73.4229 62.6442 73.4229 61.6512Z" fill="#343A40"/>
<path d="M95.0144 84.4975C94.5881 83.5886 94.8407 82.4267 95.5785 81.9023L96.9146 80.9527C97.6524 80.4283 98.5962 80.74 99.0225 81.6489L99.7928 83.2913C100.219 84.2002 99.9665 85.3622 99.2286 85.8866L97.8926 86.8361C97.1547 87.3605 96.211 87.0488 95.7847 86.1399L95.0144 84.4975Z" fill="#208637"/>
<path d="M84.9893 67.5449C84.9893 66.6564 85.5737 65.9362 86.2945 65.9362H86.6055C87.3263 65.9362 87.9106 66.6564 87.9106 67.5449C87.9106 68.4334 87.3263 69.1537 86.6055 69.1537H86.2945C85.5737 69.1537 84.9893 68.4334 84.9893 67.5449Z" fill="#28A745"/>
<path d="M49.6731 63.2749H52.7574L51.6779 67.0768L49.6731 69.9282V63.2749Z" fill="white"/>
<path d="M39.9571 47.592L43.1918 47.3068L43.4274 50.9186L42.9647 52.8196L39.9571 47.592Z" fill="white"/>
<path d="M42.6226 45.5057L44.8716 42.6259L47.0073 45.1157L47.6954 46.9099L42.6226 45.5057Z" fill="#343A40"/>
<path d="M48.836 59.2829L51.3313 61.5176L48.645 63.8112L45.6633 64.6655L48.836 59.2829Z" fill="#208637"/>
</svg>
