<svg width="100" height="100" viewBox="0 0 100 100" fill="none" xmlns="http://www.w3.org/2000/svg">
<g filter="url(#filter0_d_1636_2309)">
<path fill-rule="evenodd" clip-rule="evenodd" d="M49.9986 18.75C56.7526 18.7526 63.324 20.9433 68.7285 24.994C74.1331 29.0447 78.0798 34.7373 79.9776 41.2192C81.8753 47.7012 81.622 54.6235 79.2555 60.9494C76.8891 67.2752 72.5368 72.6642 66.8507 76.309C61.1646 79.9538 54.4506 81.6584 47.7145 81.1673C40.9783 80.6762 34.5825 78.016 29.4851 73.585C24.3877 69.1541 20.863 63.1909 19.439 56.5887C18.015 49.9865 18.7683 43.1007 21.5861 36.9625C21.8928 36.2162 21.899 35.3802 21.6033 34.6295C21.3076 33.8788 20.7331 33.2715 19.9999 32.9348C19.2666 32.5981 18.4316 32.558 17.6695 32.8229C16.9074 33.0879 16.2773 33.6373 15.9111 34.3563C12.5299 41.7224 11.6263 49.9858 13.3357 57.9086C15.045 65.8315 19.2753 72.9872 25.3928 78.3041C31.5104 83.6209 39.1858 86.8126 47.2696 87.401C55.3533 87.9895 63.4101 85.9431 70.2332 81.5682C77.0562 77.1934 82.2782 70.7258 85.117 63.134C87.9557 55.5423 88.2584 47.2351 85.9796 39.4569C83.7009 31.6788 78.9634 24.8482 72.4768 19.9885C65.9902 15.1287 58.1037 12.5014 49.9986 12.5V18.75Z" fill="#343A40"/>
</g>
<path d="M49.9993 27.9123V3.33731C49.9992 3.04041 49.9145 2.74969 49.7551 2.49919C49.5958 2.24869 49.3683 2.04878 49.0994 1.92286C48.8306 1.79695 48.5314 1.75025 48.2369 1.78823C47.9425 1.82621 47.6649 1.94729 47.4368 2.13731L32.6868 14.4248C32.511 14.5714 32.3695 14.7549 32.2724 14.9623C32.1753 15.1697 32.125 15.3958 32.125 15.6248C32.125 15.8538 32.1753 16.0799 32.2724 16.2873C32.3695 16.4947 32.511 16.6782 32.6868 16.8248L47.4368 29.1123C47.6649 29.3023 47.9425 29.4234 48.2369 29.4614C48.5314 29.4994 48.8306 29.4527 49.0994 29.3267C49.3683 29.2008 49.5958 29.0009 49.7551 28.7504C49.9145 28.4999 49.9992 28.2092 49.9993 27.9123Z" fill="#343A40"/>
<defs>
<filter id="filter0_d_1636_2309" x="8.49219" y="12.5" width="83" height="83" filterUnits="userSpaceOnUse" color-interpolation-filters="sRGB">
<feFlood flood-opacity="0" result="BackgroundImageFix"/>
<feColorMatrix in="SourceAlpha" type="matrix" values="0 0 0 0 0 0 0 0 0 0 0 0 0 0 0 0 0 0 127 0" result="hardAlpha"/>
<feOffset dy="4"/>
<feGaussianBlur stdDeviation="2"/>
<feComposite in2="hardAlpha" operator="out"/>
<feColorMatrix type="matrix" values="0 0 0 0 0 0 0 0 0 0 0 0 0 0 0 0 0 0 0.25 0"/>
<feBlend mode="normal" in2="BackgroundImageFix" result="effect1_dropShadow_1636_2309"/>
<feBlend mode="normal" in="SourceGraphic" in2="effect1_dropShadow_1636_2309" result="shape"/>
</filter>
</defs>
</svg>
