<svg width="100" height="100" viewBox="0 0 100 100" fill="none" xmlns="http://www.w3.org/2000/svg">
<g clip-path="url(#clip0_1636_2316)">
<path d="M9.375 93.75C8.5462 93.75 7.75134 94.0793 7.16529 94.6653C6.57924 95.2514 6.25 96.0462 6.25 96.875C6.25 97.7038 6.57924 98.4987 7.16529 99.0847C7.75134 99.6708 8.5462 100 9.375 100H90.625C91.4538 100 92.2487 99.6708 92.8347 99.0847C93.4208 98.4987 93.75 97.7038 93.75 96.875C93.75 96.0462 93.4208 95.2514 92.8347 94.6653C92.2487 94.0793 91.4538 93.75 90.625 93.75H81.25V15.625C81.25 13.1386 80.2623 10.754 78.5041 8.99589C76.746 7.23774 74.3614 6.25002 71.875 6.25002H68.75V3.12501C68.7499 2.67771 68.6538 2.23563 68.4682 1.82866C68.2826 1.42168 68.0118 1.0593 67.674 0.76601C67.3363 0.472717 66.9395 0.255345 66.5106 0.128588C66.0816 0.00183077 65.6304 -0.031358 65.1875 0.0312651L21.4375 6.28127C20.692 6.38667 20.0096 6.7577 19.5158 7.32611C19.0221 7.89452 18.7501 8.62209 18.75 9.37502V93.75H9.375ZM68.75 12.5H71.875C72.7038 12.5 73.4987 12.8293 74.0847 13.4153C74.6708 14.0014 75 14.7962 75 15.625V93.75H68.75V12.5ZM53.125 62.5C51.4 62.5 50 59.7 50 56.25C50 52.8 51.4 50 53.125 50C54.85 50 56.25 52.8 56.25 56.25C56.25 59.7 54.85 62.5 53.125 62.5Z" fill="#343A40"/>
</g>
<defs>
<clipPath id="clip0_1636_2316">
<rect width="100" height="100" fill="white"/>
</clipPath>
</defs>
</svg>
