<svg xmlns="http://www.w3.org/2000/svg" width="116" height="105" viewBox="0 0 116 105" fill="none">
  <path d="M51.5014 0.5C50.5143 0.5 49.8562 1.02065 49.3627 1.67146L0.993562 90.3123C0.664521 90.9631 0.5 92.0044 0.5 92.7854V103.329C0.5 103.979 1.15808 104.5 1.98069 104.5H114.019C114.842 104.5 115.5 103.979 115.5 103.329V92.7854C115.5 92.1345 115.335 90.9631 115.006 90.3123L66.6373 1.67146C66.3083 1.02065 65.4857 0.5 64.4986 0.5H51.1724L51.5014 0.5ZM50.0207 39.5488H66.4728V65.5814H50.0207V39.5488ZM50.0207 78.5976H66.4728V91.6139H50.0207V78.5976Z" fill="#C7AE4D"/>
</svg>