<svg xmlns="http://www.w3.org/2000/svg" width="60" height="60" viewBox="0 0 60 60" fill="none">
<rect width="60" height="60" rx="10" fill="#444444" fill-opacity="0.6"/>
<path d="M28.75 23.75C28.75 23.4185 28.6183 23.1005 28.3839 22.8661C28.1495 22.6317 27.8315 22.5 27.5 22.5C27.1685 22.5 26.8505 22.6317 26.6161 22.8661C26.3817 23.1005 26.25 23.4185 26.25 23.75V25.335L24.8775 24.5425C24.7353 24.4591 24.578 24.4047 24.4147 24.3824C24.2513 24.36 24.0852 24.3702 23.9258 24.4124C23.7664 24.4545 23.617 24.5278 23.486 24.6279C23.3551 24.728 23.2452 24.8531 23.1628 24.9958C23.0804 25.1386 23.027 25.2963 23.0057 25.4597C22.9845 25.6232 22.9958 25.7893 23.039 25.9484C23.0822 26.1075 23.1564 26.2564 23.2574 26.3867C23.3584 26.517 23.4842 26.626 23.6275 26.7075L25 27.5L23.6275 28.2925C23.4842 28.374 23.3584 28.483 23.2574 28.6133C23.1564 28.7436 23.0822 28.8925 23.039 29.0516C22.9958 29.2107 22.9845 29.3768 23.0057 29.5403C23.027 29.7037 23.0804 29.8614 23.1628 30.0042C23.2452 30.1469 23.3551 30.272 23.486 30.3721C23.617 30.4722 23.7664 30.5455 23.9258 30.5876C24.0852 30.6298 24.2513 30.64 24.4147 30.6176C24.578 30.5953 24.7353 30.5409 24.8775 30.4575L26.25 29.665V31.25C26.25 31.5815 26.3817 31.8995 26.6161 32.1339C26.8505 32.3683 27.1685 32.5 27.5 32.5C27.8315 32.5 28.1495 32.3683 28.3839 32.1339C28.6183 31.8995 28.75 31.5815 28.75 31.25V29.665L30.1225 30.4575C30.2647 30.5409 30.422 30.5953 30.5853 30.6176C30.7487 30.64 30.9148 30.6298 31.0742 30.5876C31.2336 30.5455 31.383 30.4722 31.514 30.3721C31.6449 30.272 31.7548 30.1469 31.8372 30.0042C31.9196 29.8614 31.973 29.7037 31.9943 29.5403C32.0155 29.3768 32.0042 29.2107 31.961 29.0516C31.9178 28.8925 31.8436 28.7436 31.7426 28.6133C31.6416 28.483 31.5158 28.374 31.3725 28.2925L30 27.5L31.3725 26.7075C31.5158 26.626 31.6416 26.517 31.7426 26.3867C31.8436 26.2564 31.9178 26.1075 31.961 25.9484C32.0042 25.7893 32.0155 25.6232 31.9943 25.4597C31.973 25.2963 31.9196 25.1386 31.8372 24.9958C31.7548 24.8531 31.6449 24.728 31.514 24.6279C31.383 24.5278 31.2336 24.4545 31.0742 24.4124C30.9148 24.3702 30.7487 24.36 30.5853 24.3824C30.422 24.4047 30.2647 24.4591 30.1225 24.5425L28.75 25.335V23.75ZM23.75 35C23.4185 35 23.1005 35.1317 22.8661 35.3661C22.6317 35.6005 22.5 35.9185 22.5 36.25C22.5 36.5815 22.6317 36.8995 22.8661 37.1339C23.1005 37.3683 23.4185 37.5 23.75 37.5H36.25C36.5815 37.5 36.8995 37.3683 37.1339 37.1339C37.3683 36.8995 37.5 36.5815 37.5 36.25C37.5 35.9185 37.3683 35.6005 37.1339 35.3661C36.8995 35.1317 36.5815 35 36.25 35H23.75ZM23.75 40C23.4185 40 23.1005 40.1317 22.8661 40.3661C22.6317 40.6005 22.5 40.9185 22.5 41.25C22.5 41.5815 22.6317 41.8995 22.8661 42.1339C23.1005 42.3683 23.4185 42.5 23.75 42.5H36.25C36.5815 42.5 36.8995 42.3683 37.1339 42.1339C37.3683 41.8995 37.5 41.5815 37.5 41.25C37.5 40.9185 37.3683 40.6005 37.1339 40.3661C36.8995 40.1317 36.5815 40 36.25 40H23.75Z" fill="white"/>
<path d="M45 45V21.25L33.75 10H20C18.6739 10 17.4021 10.5268 16.4645 11.4645C15.5268 12.4021 15 13.6739 15 15V45C15 46.3261 15.5268 47.5979 16.4645 48.5355C17.4021 49.4732 18.6739 50 20 50H40C41.3261 50 42.5979 49.4732 43.5355 48.5355C44.4732 47.5979 45 46.3261 45 45ZM33.75 17.5C33.75 18.4946 34.1451 19.4484 34.8483 20.1517C35.5516 20.8549 36.5054 21.25 37.5 21.25H42.5V45C42.5 45.663 42.2366 46.2989 41.7678 46.7678C41.2989 47.2366 40.663 47.5 40 47.5H20C19.337 47.5 18.7011 47.2366 18.2322 46.7678C17.7634 46.2989 17.5 45.663 17.5 45V15C17.5 14.337 17.7634 13.7011 18.2322 13.2322C18.7011 12.7634 19.337 12.5 20 12.5H33.75V17.5Z" fill="white"/>
</svg>