<svg xmlns="http://www.w3.org/2000/svg" width="237" height="814" viewBox="0 0 237 814" fill="none">
<path d="M0 78.7377H41.2082C43.9697 78.7377 46.2082 76.4991 46.2082 73.7377V37.5295C46.2082 34.7681 43.9697 32.5295 41.2082 32.5295H0V78.7377Z" fill="#444444"/>
<path d="M53 61.9283C53 64.6897 55.2386 66.9283 58 66.9283H82.6562C85.4176 66.9283 87.6562 64.6897 87.6562 61.9283V37.2721C87.6562 34.5107 85.4176 32.2721 82.6562 32.2721H58C55.2386 32.2721 53 34.5107 53 37.2721V61.9283Z" fill="#444444"/>
<path d="M177 24.1425C177 26.9039 179.239 29.1425 182 29.1425H200.88C203.642 29.1425 205.88 26.9039 205.88 24.1425V5.26236C205.88 2.50094 203.642 0.262356 200.88 0.262356H182C179.239 0.262356 177 2.50093 177 5.26236V24.1425Z" fill="#444444"/>
<path d="M219 29.3282C219 30.985 220.343 32.3282 222 32.3282H233.328C234.985 32.3282 236.328 30.985 236.328 29.3282V18.0001C236.328 16.3432 234.985 15.0001 233.328 15.0001H222C220.343 15.0001 219 16.3432 219 18.0001V29.3282Z" fill="#444444"/>
<path d="M98 29.6562C98 32.4176 100.239 34.6562 103 34.6562H127.656C130.418 34.6562 132.656 32.4176 132.656 29.6562V5C132.656 2.23858 130.418 0 127.656 0H103C100.239 0 98 2.23858 98 5V29.6562Z" fill="#444444"/>
<path d="M134 68.1425C134 70.9039 136.239 73.1425 139 73.1425H157.88C160.642 73.1425 162.88 70.9039 162.88 68.1425V49.2624C162.88 46.5009 160.642 44.2624 157.88 44.2624H139C136.239 44.2624 134 46.5009 134 49.2624V68.1425Z" fill="#444444"/>
<path d="M29 50C29 52.7615 31.2386 55 34 55H64C66.7614 55 69 52.7615 69 50V20C69 17.2386 66.7614 15 64 15H34C31.2386 15 29 17.2386 29 20V50Z" fill="#208637" fill-opacity="0.9"/>
<path d="M82 38.4097C82 41.1711 84.2386 43.4097 87 43.4097H102C104.761 43.4097 107 41.1711 107 38.4097V23.4097C107 20.6483 104.761 18.4097 102 18.4097H87C84.2386 18.4097 82 20.6483 82 23.4097V38.4097Z" fill="#208637" fill-opacity="0.9"/>
<path d="M116 52.9185C116 55.6799 118.239 57.9185 121 57.9185H145.656C148.418 57.9185 150.656 55.6799 150.656 52.9185V28.2623C150.656 25.5009 148.418 23.2623 145.656 23.2623H121C118.239 23.2623 116 25.5009 116 28.2623V52.9185Z" fill="#208637" fill-opacity="0.9"/>
<path d="M157 43.9185C157 46.6799 159.239 48.9185 162 48.9185H186.656C189.418 48.9185 191.656 46.6799 191.656 43.9185V19.2623C191.656 16.5009 189.418 14.2623 186.656 14.2623H162C159.239 14.2623 157 16.5009 157 19.2623V43.9185Z" fill="#208637" fill-opacity="0.9"/>
<path d="M198 37.3665C198 40.1279 200.239 42.3665 203 42.3665H216.104C218.866 42.3665 221.104 40.1279 221.104 37.3665V24.2624C221.104 21.501 218.866 19.2624 216.104 19.2624H203C200.239 19.2624 198 21.501 198 24.2624V37.3665Z" fill="#208637" fill-opacity="0.9"/>
<path d="M66.0008 154C66.0008 156.761 63.7622 159 61.0008 159H0.000818171V79H61.0008C63.7622 79 66.0008 81.2386 66.0008 84V154Z" fill="#208637" fill-opacity="0.9"/>
<path d="M70.0008 300C70.0008 302.761 67.7622 305 65.0008 305H5.00082C2.23939 305 0.000810541 302.761 0.000810541 300V230C0.000810541 227.239 2.23939 225 5.00081 225H65.0008C67.7622 225 70.0008 227.239 70.0008 230V300Z" fill="#208637" fill-opacity="0.9"/>
<path d="M99.0008 228C99.0008 230.761 96.7622 233 94.0008 233H5.00081C2.23939 233 0.000818171 230.761 0.000818171 228V139C0.000818171 136.239 2.23939 134 5.00082 134H94.0008C96.7622 134 99.0008 136.239 99.0008 139V228Z" fill="#444444"/>
<path d="M50.0008 378C50.0008 380.761 47.7622 383 45.0008 383H0.000818171V294H45.0008C47.7622 294 50.0008 296.239 50.0008 299V378Z" fill="#444444"/>
<path d="M89.0008 455C89.0008 457.761 86.7622 460 84.0008 460H0.000818171V371H84.0008C86.7622 371 89.0008 373.239 89.0008 376V455Z" fill="#208637" fill-opacity="0.9"/>
<path d="M76.0008 533C76.0008 535.761 73.7622 538 71.0008 538H0.000818171V449H71.0008C73.7622 449 76.0008 451.239 76.0008 454V533Z" fill="#444444"/>
<path d="M95.0008 693C95.0008 695.761 92.7622 698 90.0008 698H0.000818171V609H90.0008C92.7622 609 95.0008 611.239 95.0008 614V693Z" fill="#444444"/>
<path d="M51.0008 615C51.0008 617.761 48.7622 620 46.0008 620H0.000818171V531H46.0008C48.7622 531 51.0008 533.239 51.0008 536V615Z" fill="#208637" fill-opacity="0.9"/>
<path d="M89.0008 771C89.0008 773.761 86.7622 776 84.0008 776H0.000818171V687H84.0008C86.7622 687 89.0008 689.239 89.0008 692V771Z" fill="#208637" fill-opacity="0.9"/>
<path d="M38.5 808.5C38.5 811.261 36.2614 813.5 33.5 813.5H7.62939e-06V772.5H33.5C36.2614 772.5 38.5 774.739 38.5 777.5V808.5Z" fill="#444444"/>
</svg>