<svg xmlns="http://www.w3.org/2000/svg" width="547" height="512" viewBox="0 0 547 512" fill="none">
<path d="M172.091 18.3181H276.287C292.253 18.3181 305.196 31.4015 305.196 47.5406V152.936H201C185.034 152.936 172.091 139.853 172.091 123.714V18.3181Z" fill="#28A745"/>
<path d="M98.5 65.2347C98.5 61.607 101.409 58.6629 104.998 58.6629C108.587 58.6629 111.496 61.607 111.496 65.2347C111.496 68.8624 108.587 71.8064 104.998 71.8064C101.409 71.8064 98.5 68.8624 98.5 65.2347Z" fill="#208637"/>
<path d="M140.375 98.4586C140.375 93.0144 144.741 88.601 150.127 88.601H150.839C156.225 88.601 160.591 93.0144 160.591 98.4586C160.591 103.903 156.225 108.316 150.839 108.316H150.127C144.741 108.316 140.375 103.903 140.375 98.4586Z" fill="#343A40"/>
<path d="M121.606 18.258C119.611 14.7633 120.796 10.2943 124.252 8.27614L136.746 0.980567C140.202 -1.03758 144.621 0.159367 146.616 3.65403L153.832 16.2935C155.827 19.7882 154.642 24.2572 151.186 26.2753L138.692 33.5709C135.235 35.589 130.816 34.3921 128.821 30.8974L121.606 18.258Z" fill="#343A40"/>
<path d="M104.638 137.196C103.641 135.449 104.233 133.214 105.961 132.205L111.23 129.128C112.958 128.119 115.168 128.718 116.165 130.465L119.208 135.796C120.206 137.543 119.614 139.778 117.885 140.787L112.616 143.863C110.888 144.873 108.679 144.274 107.681 142.527L104.638 137.196Z" fill="#28A745"/>
<path d="M304.718 103.321C304.718 87.1823 317.66 74.0989 333.626 74.0989H437.248V179.236C437.248 195.375 424.306 208.459 408.34 208.459H304.718V103.321Z" fill="#343A40"/>
<path d="M419.86 33.3497C418.864 31.6014 419.457 29.3645 421.184 28.3536L427.381 24.7264C429.108 23.7155 431.315 24.3134 432.311 26.0618L435.894 32.3535C436.89 34.1018 436.297 36.3387 434.57 37.3496L428.373 40.9768C426.646 41.9877 424.438 41.3898 423.443 39.6414L419.86 33.3497Z" fill="#28A745"/>
<path d="M377.8 51.6835C377.8 46.6668 381.823 42.5736 386.786 42.5736C391.749 42.5736 395.772 46.6668 395.772 51.6835C395.772 56.7002 391.749 60.7935 386.786 60.7935C381.823 60.7935 377.8 56.7002 377.8 51.6835Z" fill="#343A40"/>
<path d="M312.393 50.3626C310.402 46.8658 311.588 42.3922 315.042 40.3704L321.21 36.76C324.665 34.7382 329.079 35.9339 331.07 39.4306L334.642 45.7025C336.633 49.1992 335.448 53.6729 331.993 55.6947L325.825 59.3051C322.371 61.3269 317.957 60.1312 315.965 56.6344L312.393 50.3626Z" fill="#208637"/>
<path d="M120.893 181.79C120.893 165.651 133.836 152.567 149.801 152.567H253.883V257.96C253.883 274.099 240.941 287.182 224.975 287.182H120.893V181.79Z" fill="#343A40"/>
<path d="M154.145 333.131C152.152 329.636 153.337 325.165 156.792 323.146L169.268 315.855C172.723 313.836 177.141 315.032 179.134 318.528L186.342 331.164C188.336 334.659 187.15 339.13 183.695 341.149L171.22 348.44C167.764 350.459 163.347 349.263 161.353 345.767L154.145 333.131Z" fill="#343A40"/>
<path d="M229.104 303.353C229.104 299.728 232.011 296.781 235.597 296.781C239.182 296.781 242.089 299.728 242.089 303.353C242.089 306.977 239.182 309.924 235.597 309.924C232.011 309.924 229.104 306.977 229.104 303.353Z" fill="#28A745"/>
<path d="M102.836 310.003C102.836 306.379 105.743 303.432 109.329 303.432C112.914 303.432 115.821 306.379 115.821 310.003C115.821 313.628 112.914 316.575 109.329 316.575C105.743 316.575 102.836 313.628 102.836 310.003Z" fill="#208637"/>
<path d="M253.883 208.459H357.809C373.775 208.459 386.718 221.542 386.718 237.681V342.555H282.792C266.826 342.555 253.883 329.471 253.883 313.332V208.459Z" fill="#208637"/>
<path d="M393.419 304.978C393.419 301.363 396.327 298.432 399.903 298.432C403.48 298.432 406.388 301.363 406.388 304.978C406.388 308.594 403.48 311.525 399.903 311.525C396.327 311.525 393.419 308.594 393.419 304.978Z" fill="#343A40"/>
<path d="M407.829 226.059C407.829 222.243 410.899 219.149 414.674 219.149C418.449 219.149 421.519 222.243 421.519 226.059C421.519 229.876 418.449 232.969 414.674 232.969C410.899 232.969 407.829 229.876 407.829 226.059Z" fill="#343A40"/>
<path d="M425.136 340.034C423.138 336.541 424.322 332.076 427.78 330.06L434.041 326.411C437.499 324.396 441.921 325.594 443.919 329.087L447.529 335.399C449.527 338.892 448.343 343.357 444.885 345.372L438.624 349.022C435.166 351.037 430.744 349.839 428.746 346.346L425.136 340.034Z" fill="#208637"/>
<path d="M430.165 263.882C430.165 260.468 432.903 257.7 436.281 257.7H437.739C441.117 257.7 443.855 260.468 443.855 263.882C443.855 267.297 441.117 270.065 437.739 270.065H436.281C432.903 270.065 430.165 267.297 430.165 263.882Z" fill="#28A745"/>
<g filter="url(#filter0_d_972_2071)">
<path d="M18.9941 445.02C17.627 445.02 16.3249 444.759 15.0879 444.238C13.8835 443.685 12.8255 442.969 11.9141 442.09C11.0026 441.178 10.2865 440.12 9.76562 438.916C9.24479 437.679 8.98438 436.377 8.98438 435.01V414.99C8.98438 413.623 9.24479 412.337 9.76562 411.133C10.2865 409.896 11.0026 408.838 11.9141 407.959C12.8255 407.048 13.8835 406.331 15.0879 405.811C16.3249 405.257 17.627 404.98 18.9941 404.98H52.9785C54.3457 404.98 55.6315 405.257 56.8359 405.811C58.0729 406.331 59.1471 407.048 60.0586 407.959C60.9701 408.838 61.6862 409.896 62.207 411.133C62.7279 412.337 62.9883 413.623 62.9883 414.99V424.023H52.9785V414.99H18.9941V435.01H52.9785C54.3457 435.01 55.6315 435.27 56.8359 435.791C58.0729 436.312 59.1471 437.028 60.0586 437.939C60.9701 438.851 61.6862 439.925 62.207 441.162C62.7279 442.367 62.9883 443.652 62.9883 445.02V464.99C62.9883 466.357 62.7279 467.66 62.207 468.896C61.6862 470.101 60.9701 471.159 60.0586 472.07C59.1471 472.982 58.0729 473.698 56.8359 474.219C55.6315 474.74 54.3457 475 52.9785 475H18.0176C16.6504 475 15.3483 474.74 14.1113 474.219C12.9069 473.698 11.849 472.982 10.9375 472.07C10.026 471.159 9.3099 470.101 8.78906 468.896C8.26823 467.66 8.00781 466.357 8.00781 464.99V456.006H18.0176V464.99H52.9785V445.02H18.9941ZM85.6934 404.98L106.055 437.695L126.465 404.98H138.086L111.084 447.217V475H101.074V447.217L74.0723 404.98H85.6934ZM159.131 404.98V464.99H195.117V475H149.121V404.98H159.131ZM217.139 404.98V464.99H253.125V475H207.129V404.98H217.139ZM296.143 404.98L323.145 475H313.135L306.934 458.887H275.342L269.141 475H259.131L286.133 404.98H296.143ZM279.15 448.877H303.076L291.162 418.018L279.15 448.877ZM380.762 438.477C382.227 438.932 383.561 439.583 384.766 440.43C385.97 441.276 386.995 442.367 387.842 443.701C388.688 445.003 389.339 446.549 389.795 448.34C390.251 450.13 390.479 452.181 390.479 454.492V458.008C390.479 469.336 384.814 475 373.486 475H335.156V404.98H371.484C382.812 404.98 388.477 410.661 388.477 422.021V423.291C388.477 427.23 387.842 430.452 386.572 432.959C385.335 435.433 383.398 437.272 380.762 438.477ZM344.971 444.482V465.186H373.193C375.83 465.186 377.734 464.567 378.906 463.33C380.078 462.093 380.664 460.156 380.664 457.52V452.1C380.664 449.43 380.078 447.493 378.906 446.289C377.734 445.085 375.83 444.482 373.193 444.482H344.971ZM344.971 414.795V434.717H371.875C374.284 434.619 376.009 433.968 377.051 432.764C378.125 431.527 378.662 429.639 378.662 427.1V422.51C378.662 419.84 378.076 417.887 376.904 416.65C375.732 415.413 373.828 414.795 371.191 414.795H344.971ZM405.469 404.98H415.479V464.99H455.469V404.98H465.479V464.99C465.479 466.357 465.218 467.66 464.697 468.896C464.176 470.101 463.46 471.159 462.549 472.07C461.637 472.982 460.563 473.698 459.326 474.219C458.122 474.74 456.836 475 455.469 475H415.479C414.111 475 412.809 474.74 411.572 474.219C410.368 473.698 409.31 472.982 408.398 472.07C407.487 471.159 406.771 470.101 406.25 468.896C405.729 467.66 405.469 466.357 405.469 464.99V404.98ZM493.506 445.02C492.139 445.02 490.837 444.759 489.6 444.238C488.395 443.685 487.337 442.969 486.426 442.09C485.514 441.178 484.798 440.12 484.277 438.916C483.757 437.679 483.496 436.377 483.496 435.01V414.99C483.496 413.623 483.757 412.337 484.277 411.133C484.798 409.896 485.514 408.838 486.426 407.959C487.337 407.048 488.395 406.331 489.6 405.811C490.837 405.257 492.139 404.98 493.506 404.98H527.49C528.857 404.98 530.143 405.257 531.348 405.811C532.585 406.331 533.659 407.048 534.57 407.959C535.482 408.838 536.198 409.896 536.719 411.133C537.24 412.337 537.5 413.623 537.5 414.99V424.023H527.49V414.99H493.506V435.01H527.49C528.857 435.01 530.143 435.27 531.348 435.791C532.585 436.312 533.659 437.028 534.57 437.939C535.482 438.851 536.198 439.925 536.719 441.162C537.24 442.367 537.5 443.652 537.5 445.02V464.99C537.5 466.357 537.24 467.66 536.719 468.896C536.198 470.101 535.482 471.159 534.57 472.07C533.659 472.982 532.585 473.698 531.348 474.219C530.143 474.74 528.857 475 527.49 475H492.529C491.162 475 489.86 474.74 488.623 474.219C487.419 473.698 486.361 472.982 485.449 472.07C484.538 471.159 483.822 470.101 483.301 468.896C482.78 467.66 482.52 466.357 482.52 464.99V456.006H492.529V464.99H527.49V445.02H493.506Z" fill="#208637"/>
</g>
<path d="M25.5026 500.05C22.8325 502.784 22.8325 507.216 25.5026 509.95C28.1727 512.683 32.5019 512.683 35.172 509.95C37.8421 507.216 37.8421 502.784 35.172 500.05C32.5019 497.317 28.1727 497.317 25.5026 500.05Z" fill="#343A40"/>
<path d="M47.5276 505C47.5276 508.093 49.9766 510.6 52.9975 510.6H72.8256C75.8465 510.6 78.2954 508.093 78.2954 505C78.2954 501.907 75.8465 499.4 72.8256 499.4H52.9975C49.9766 499.4 47.5276 501.907 47.5276 505Z" fill="#343A40"/>
<path d="M85.8164 505C85.8164 508.093 88.2654 510.6 91.2863 510.6H111.114C114.135 510.6 116.584 508.093 116.584 505C116.584 501.907 114.135 499.4 111.114 499.4H91.2863C88.2654 499.4 85.8164 501.907 85.8164 505Z" fill="#343A40"/>
<path d="M124.105 505C124.105 508.093 126.554 510.6 129.575 510.6H149.403C152.424 510.6 154.873 508.093 154.873 505C154.873 501.907 152.424 499.4 149.403 499.4H129.575C126.554 499.4 124.105 501.907 124.105 505Z" fill="#343A40"/>
<path d="M162.394 505C162.394 508.093 164.843 510.6 167.864 510.6H187.692C190.713 510.6 193.162 508.093 193.162 505C193.162 501.907 190.713 499.4 187.692 499.4H167.864C164.843 499.4 162.394 501.907 162.394 505Z" fill="#343A40"/>
<path d="M200.683 505C200.683 508.093 203.132 510.6 206.153 510.6H225.981C229.002 510.6 231.451 508.093 231.451 505C231.451 501.907 229.002 499.4 225.981 499.4H206.153C203.132 499.4 200.683 501.907 200.683 505Z" fill="#343A40"/>
<path d="M238.972 505C238.972 508.093 241.421 510.6 244.442 510.6H264.27C267.291 510.6 269.739 508.093 269.739 505C269.739 501.907 267.291 499.4 264.27 499.4H244.441C241.421 499.4 238.972 501.907 238.972 505Z" fill="#343A40"/>
<path d="M277.26 505C277.26 508.093 279.709 510.6 282.73 510.6H302.558C305.579 510.6 308.028 508.093 308.028 505C308.028 501.907 305.579 499.4 302.558 499.4H282.73C279.709 499.4 277.26 501.907 277.26 505Z" fill="#343A40"/>
<path d="M315.549 505C315.549 508.093 317.998 510.6 321.019 510.6H340.847C343.868 510.6 346.317 508.093 346.317 505C346.317 501.907 343.868 499.4 340.847 499.4H321.019C317.998 499.4 315.549 501.907 315.549 505Z" fill="#343A40"/>
<path d="M353.838 505C353.838 508.093 356.287 510.6 359.308 510.6H379.136C382.157 510.6 384.606 508.093 384.606 505C384.606 501.907 382.157 499.4 379.136 499.4H359.308C356.287 499.4 353.838 501.907 353.838 505Z" fill="#343A40"/>
<path d="M392.127 505C392.127 508.093 394.576 510.6 397.597 510.6H417.425C420.446 510.6 422.895 508.093 422.895 505C422.895 501.907 420.446 499.4 417.425 499.4H397.597C394.576 499.4 392.127 501.907 392.127 505Z" fill="#343A40"/>
<path d="M430.416 505C430.416 508.093 432.865 510.6 435.886 510.6H455.714C458.735 510.6 461.184 508.093 461.184 505C461.184 501.907 458.735 499.4 455.714 499.4H435.886C432.865 499.4 430.416 501.907 430.416 505Z" fill="#343A40"/>
<path d="M468.705 505C468.705 508.093 471.153 510.6 474.174 510.6H494.003C497.023 510.6 499.472 508.093 499.472 505C499.472 501.907 497.023 499.4 494.003 499.4H474.174C471.153 499.4 468.705 501.907 468.705 505Z" fill="#343A40"/>
<path d="M511.828 500.05C509.158 502.784 509.158 507.216 511.828 509.95C514.498 512.683 518.827 512.683 521.497 509.95C524.168 507.216 524.168 502.784 521.497 500.05C518.827 497.317 514.498 497.317 511.828 500.05Z" fill="#343A40"/>
<defs>
<filter id="filter0_d_972_2071" x="4.00781" y="404.98" width="537.492" height="78.0195" filterUnits="userSpaceOnUse" color-interpolation-filters="sRGB">
<feFlood flood-opacity="0" result="BackgroundImageFix"/>
<feColorMatrix in="SourceAlpha" type="matrix" values="0 0 0 0 0 0 0 0 0 0 0 0 0 0 0 0 0 0 127 0" result="hardAlpha"/>
<feOffset dy="4"/>
<feGaussianBlur stdDeviation="2"/>
<feComposite in2="hardAlpha" operator="out"/>
<feColorMatrix type="matrix" values="0 0 0 0 0 0 0 0 0 0 0 0 0 0 0 0 0 0 0.25 0"/>
<feBlend mode="normal" in2="BackgroundImageFix" result="effect1_dropShadow_972_2071"/>
<feBlend mode="normal" in="SourceGraphic" in2="effect1_dropShadow_972_2071" result="shape"/>
</filter>
</defs>
</svg>