<svg xmlns="http://www.w3.org/2000/svg" width="237" height="814" viewBox="0 0 237 814" fill="none">
<path d="M236.328 78.7377H195.12C192.358 78.7377 190.12 76.4991 190.12 73.7377V37.5295C190.12 34.7681 192.358 32.5295 195.12 32.5295H236.328V78.7377Z" fill="#444444"/>
<path d="M183.328 61.9283C183.328 64.6897 181.09 66.9283 178.328 66.9283H153.672C150.911 66.9283 148.672 64.6897 148.672 61.9283V37.2721C148.672 34.5107 150.911 32.2721 153.672 32.2721H178.328C181.09 32.2721 183.328 34.5107 183.328 37.2721V61.9283Z" fill="#444444"/>
<path d="M59.3281 24.1425C59.3281 26.9039 57.0896 29.1425 54.3281 29.1425H35.448C32.6866 29.1425 30.448 26.9039 30.448 24.1425V5.26236C30.448 2.50094 32.6865 0.262356 35.448 0.262356H54.3281C57.0896 0.262356 59.3281 2.50093 59.3281 5.26236V24.1425Z" fill="#444444"/>
<path d="M17.3281 29.3282C17.3281 30.985 15.985 32.3282 14.3281 32.3282H3.00003C1.34317 32.3282 3.05176e-05 30.985 3.05176e-05 29.3282V18.0001C3.05176e-05 16.3432 1.34317 15.0001 3.00003 15.0001H14.3281C15.985 15.0001 17.3281 16.3432 17.3281 18.0001V29.3282Z" fill="#444444"/>
<path d="M138.328 29.6562C138.328 32.4176 136.09 34.6562 133.328 34.6562H108.672C105.911 34.6562 103.672 32.4176 103.672 29.6562V5C103.672 2.23858 105.911 0 108.672 0H133.328C136.09 0 138.328 2.23858 138.328 5V29.6562Z" fill="#444444"/>
<path d="M102.328 68.1425C102.328 70.9039 100.09 73.1425 97.3281 73.1425H78.448C75.6866 73.1425 73.448 70.9039 73.448 68.1425V49.2624C73.448 46.5009 75.6865 44.2624 78.448 44.2624H97.3281C100.09 44.2624 102.328 46.5009 102.328 49.2624V68.1425Z" fill="#444444"/>
<path d="M207.328 50C207.328 52.7615 205.09 55 202.328 55H172.328C169.567 55 167.328 52.7615 167.328 50V20C167.328 17.2386 169.567 15 172.328 15H202.328C205.09 15 207.328 17.2386 207.328 20V50Z" fill="#208637" fill-opacity="0.9"/>
<path d="M154.328 38.4097C154.328 41.1711 152.09 43.4097 149.328 43.4097H134.328C131.567 43.4097 129.328 41.1711 129.328 38.4097V23.4097C129.328 20.6483 131.567 18.4097 134.328 18.4097H149.328C152.09 18.4097 154.328 20.6483 154.328 23.4097V38.4097Z" fill="#208637" fill-opacity="0.9"/>
<path d="M120.328 52.9185C120.328 55.6799 118.09 57.9185 115.328 57.9185H90.672C87.9105 57.9185 85.672 55.6799 85.672 52.9185V28.2623C85.672 25.5009 87.9105 23.2623 90.672 23.2623H115.328C118.09 23.2623 120.328 25.5009 120.328 28.2623V52.9185Z" fill="#208637" fill-opacity="0.9"/>
<path d="M79.3281 43.9185C79.3281 46.6799 77.0896 48.9185 74.3281 48.9185H49.672C46.9105 48.9185 44.672 46.6799 44.672 43.9185V19.2623C44.672 16.5009 46.9105 14.2623 49.672 14.2623H74.3281C77.0896 14.2623 79.3281 16.5009 79.3281 19.2623V43.9185Z" fill="#208637" fill-opacity="0.9"/>
<path d="M38.3281 37.3665C38.3281 40.1279 36.0896 42.3665 33.3281 42.3665H20.224C17.4626 42.3665 15.224 40.1279 15.224 37.3665V24.2624C15.224 21.501 17.4626 19.2624 20.224 19.2624H33.3281C36.0896 19.2624 38.3281 21.501 38.3281 24.2624V37.3665Z" fill="#208637" fill-opacity="0.9"/>
<path d="M170.327 154C170.327 156.761 172.566 159 175.327 159H236.327V79H175.327C172.566 79 170.327 81.2386 170.327 84V154Z" fill="#208637" fill-opacity="0.9"/>
<path d="M166.327 300C166.327 302.761 168.566 305 171.327 305H231.327C234.089 305 236.327 302.761 236.327 300V230C236.327 227.239 234.089 225 231.327 225H171.327C168.566 225 166.327 227.239 166.327 230V300Z" fill="#208637" fill-opacity="0.9"/>
<path d="M137.327 228C137.327 230.761 139.566 233 142.327 233H231.327C234.089 233 236.327 230.761 236.327 228V139C236.327 136.239 234.089 134 231.327 134H142.327C139.566 134 137.327 136.239 137.327 139V228Z" fill="#444444"/>
<path d="M186.327 378C186.327 380.761 188.566 383 191.327 383H236.327V294H191.327C188.566 294 186.327 296.239 186.327 299V378Z" fill="#444444"/>
<path d="M147.327 455C147.327 457.761 149.566 460 152.327 460H236.327V371H152.327C149.566 371 147.327 373.239 147.327 376V455Z" fill="#208637" fill-opacity="0.9"/>
<path d="M160.327 533C160.327 535.761 162.566 538 165.327 538H236.327V449H165.327C162.566 449 160.327 451.239 160.327 454V533Z" fill="#444444"/>
<path d="M141.327 693C141.327 695.761 143.566 698 146.327 698H236.327V609H146.327C143.566 609 141.327 611.239 141.327 614V693Z" fill="#444444"/>
<path d="M185.327 615C185.327 617.761 187.566 620 190.327 620H236.327V531H190.327C187.566 531 185.327 533.239 185.327 536V615Z" fill="#208637" fill-opacity="0.9"/>
<path d="M147.327 771C147.327 773.761 149.566 776 152.327 776H236.327V687H152.327C149.566 687 147.327 689.239 147.327 692V771Z" fill="#208637" fill-opacity="0.9"/>
<path d="M197.828 808.5C197.828 811.261 200.067 813.5 202.828 813.5H236.328V772.5H202.828C200.067 772.5 197.828 774.739 197.828 777.5V808.5Z" fill="#444444"/>
</svg>